<?xml version="1.0" standalone="no"?>
<!DOCTYPE svg PUBLIC "-//W3C//DTD SVG 1.1//EN" "http://www.w3.org/Graphics/SVG/1.1/DTD/svg11.dtd" >
<svg xmlns="http://www.w3.org/2000/svg" xmlns:xlink="http://www.w3.org/1999/xlink" version="1.1">
<metadata></metadata>
<defs>
<font id="mathleteskinny" horiz-adv-x="565" >
<font-face units-per-em="2048" ascent="1638" descent="-410" />
<missing-glyph horiz-adv-x="614" />
<glyph horiz-adv-x="0" />
<glyph horiz-adv-x="0" />
<glyph horiz-adv-x="682" />
<glyph unicode="&#xd;" horiz-adv-x="681" />
<glyph unicode=" "  horiz-adv-x="614" />
<glyph unicode="&#x09;" horiz-adv-x="614" />
<glyph unicode="&#xa0;" horiz-adv-x="614" />
<glyph unicode="!" horiz-adv-x="286" d="M168 317v854q0 12 -8.5 20.5t-20.5 8.5t-20 -8.5t-8 -20.5v-854q0 -12 8 -20t20 -8t20.5 8t8.5 20zM190 90q0 12 -9.5 20.5t-20.5 6.5q-32 -1 -55.5 -19t-28.5 -43q-2 -18 9.5 -31.5t29.5 -13.5q26 -1 43.5 10t23.5 26.5t7.5 27t0.5 16.5z" />
<glyph unicode="&#x22;" horiz-adv-x="417" d="M319 1169q0 12 -8 21.5t-20 9.5q-13 -2 -21.5 -10.5t-7.5 -20.5q2 -55 2 -237q0 -12 8.5 -20.5t20.5 -8.5t20.5 8.5t8.5 20.5q0 154 -3 237zM127 926v114q0 76 6 109q2 12 -5 22t-19 11q-12 2 -22 -5.5t-11 -19.5q-8 -47 -8 -115q0 -36 2 -61v-55q0 -12 8 -20.5t20 -8.5 t20.5 8.5t8.5 20.5z" />
<glyph unicode="#" horiz-adv-x="790" d="M199 756l-6 -15q-10 -33 -39 -104q-16 -33 -56 -33q-70 -3 -114 2q-12 2 -21.5 -6t-9.5 -20q-2 -12 6.5 -21.5t20.5 -9.5q50 -4 81 -4q48 -3 33 -47q-34 -93 -39 -150q-2 -12 5.5 -22t19.5 -11q12 -2 22 5.5t11 19.5q8 72 57 188q9 20 41 23q53 3 123 12q35 5 41.5 -1.5 t-4.5 -43.5q-29 -89 -47 -162q-2 -11 4.5 -22t17.5 -12q11 -2 22.5 4.5t12.5 17.5q36 134 59 201q9 34 45 37q76 9 125 12q12 0 20.5 9.5t8.5 21.5q-2 12 -11.5 19.5t-21.5 6.5q-37 -3 -80 -6q-36 -3 -41.5 6.5t7.5 38.5l47 127q0 2 34 2q18 1 40.5 1.5t35.5 1t21 1.5 q12 0 20 9.5t8 21.5q-2 12 -11 20t-21 7h-52q-34 0 -37.5 5.5t5.5 39.5q13 54 14 63q2 12 -5.5 23t-19.5 12q-11 0 -20 -6q-7 -5 -10 -11.5t-5 -17.5t-4 -16q-5 -19 -22 -62q-1 -2 -2.5 -7.5t-2.5 -7t-2.5 -5.5t-3.5 -5t-5 -3.5t-7.5 -3t-10 -1.5t-13.5 -1 q-20 -1 -56.5 -1.5t-52.5 -1.5h-10q-26 -2 -34.5 6.5t-0.5 39.5q3 10 21 59q7 29 -20 38t-38 -18q-15 -48 -30 -98q-4 -13 -7 -20t-10.5 -10t-10 -3.5t-17.5 -1.5q-91 -8 -146 -26q-27 -11 -17.5 -38t38.5 -20q29 13 88 19q15 2 23 1.5t16.5 -4.5t6.5 -14t-7 -28zM459 772 l-39 -110q-9 -22 -17 -26q-9 -6 -30 -9q-24 -3 -62.5 -7t-50.5 -6q-25 -1 -33.5 12t0.5 36q8 20 14.5 39.5t13.5 41.5t11 33q3 10 6.5 17t6 10.5t7 5.5t6.5 2.5t9 1t10 0.5q17 1 55 2t58 2q9 0 17 0.5t13.5 -1.5t8 -6.5t2 -14t-5.5 -23.5z" />
<glyph unicode="$" horiz-adv-x="684" d="M473 999q1 -11 12.5 -17.5t24.5 -4.5q10 1 16 12.5t4 22.5q-40 159 -139 211q-5 2 -14.5 6t-14.5 6q-35 8 -38 43q0 26 -5 123q0 12 -9 20.5t-21 8.5q-12 -2 -20 -11.5t-7 -21.5q4 -78 4 -121q3 -35 -33 -47q-6 -2 -36 -17q-96 -52 -155 -165.5t-46 -235.5q6 -74 53 -115 q34 -28 74 -36t139 -13q14 0 14 -41q1 -104 4 -274.5t3 -233.5q0 -17 -3 -27t-6.5 -14t-11.5 -2.5t-13.5 4.5t-15.5 9q-98 65 -116 192q-1 12 -11 19.5t-22 5.5q-12 -1 -19.5 -11t-5.5 -22q10 -93 63 -161t130 -97q32 -13 35 -45q3 -67 6 -129q0 -12 9.5 -20.5t21.5 -6.5 q12 0 20 9.5t6 21.5q-1 19 -2 55.5t-2 54.5q-3 37 39 43q87 12 143 82t60 183q3 74 -7.5 144t-34.5 132.5t-68.5 109t-104.5 64.5h-2q-11 2 -24 15t-13 30q-3 240 -6 396q0 5 0.5 10t1 9t1 7.5t1.5 6.5t2.5 5t2.5 4t2.5 2.5l3 1t3.5 -0.5q11 -4 19 -9q73 -36 108 -170z M264 707q-64 2 -104 8q-49 6 -75 29t-32 71q-10 106 40 204t132 142q2 1 5 3t10.5 4.5t13 0.5t10.5 -12t6 -29q4 -102 4 -380q0 -41 -10 -41zM334 592q0 47 12 47q2 -1 5 -2t5 -2q91 -28 135 -137.5t39 -251.5q-4 -91 -43.5 -143.5t-103.5 -63.5q-19 -4 -30 1.5t-11 16.5 q-5 146 -8 535z" />
<glyph unicode="%" horiz-adv-x="671" d="M573 1174q9 17 -1.5 31t-26 13t-25.5 -16q-265 -485 -514 -1177q-7 -29 19.5 -38.5t37.5 17.5q243 669 510 1170zM188 1155q-53 10 -90.5 -17t-50.5 -77q-13 -43 0.5 -85.5t50.5 -60.5q55 -22 94 -8.5t58 56.5q15 29 10.5 78.5t-27.5 78.5q-35 32 -45 35zM121 1079 q17 18 34 10.5t30 -25t16 -32.5q8 -35 -11 -60.5t-67 -2.5q-13 6 -19 28q-6 13 -2.5 39.5t19.5 42.5zM414 250q-11 4 -49 -4q-17 -1 -39.5 -22t-36.5 -40q-51 -79 -16.5 -128.5t112.5 -43.5q80 8 104.5 67t-36.5 144q-24 24 -39 27zM362 186l9 2h2q8 1 20.5 0.5t14.5 -2.5 q39 -56 28.5 -82.5t-55.5 -31.5t-58.5 15.5t15.5 64.5z" />
<glyph unicode="&#x26;" horiz-adv-x="679" d="M350 475l39 4q30 6 129 6q66 -2 66 -30q0 -12 -8.5 -20.5t-20.5 -8.5h-10q-41 0 -41 -6q15 -172 -33 -264q-31 -58 -81.5 -101.5t-106.5 -60.5q-67 -19 -126 4t-100 88q-51 85 -55 226.5t43 228.5q20 33 47 63q24 26 0 53q-2 2 -24 35q-36 78 -26 185t56 213 q44 101 99.5 143.5t117.5 23.5q48 -17 85 -65.5t49 -108.5q9 -60 -11 -108q-8 -16 -24.5 -16.5t-26.5 12t-2 28.5q13 26 4 72t-35 84q-57 79 -118 33q-45 -36 -85.5 -126.5t-50.5 -182.5q-9 -100 21 -158q15 -33 45 -47q14 -6 49 -10h8q2 -1 8.5 -2.5t8.5 -2.5q4 0 6 -2 q4 -2 10 -8q12 -19 0 -37q-7 -7 -16 -10h-11h-20q-27 0 -41 -10q-47 -29 -70 -80q-41 -73 -37.5 -198.5t45.5 -194.5q59 -95 160 -68q45 12 86 48t66 85q40 79 28 232l-2 4q0 5 -41 2q-49 -7 -79 -14q-29 -4 -35 20q-7 28 18 37q27 8 43 10z" />
<glyph unicode="'" horiz-adv-x="159" d="M57 1186q1 12 -6.5 21.5t-19.5 11.5q-12 0 -21.5 -8.5t-9.5 -20.5q-3 -50 0 -127q6 -91 6 -121q0 -12 8.5 -20.5t20.5 -8.5t20 8.5t8 20.5q0 8 -0.5 24t-1.5 46.5t-2 54.5q-4 92 -2 119z" />
<glyph unicode="(" horiz-adv-x="473" d="M358 1145q18 7 20 23t-10.5 27t-29.5 3q-171 -70 -236 -412q-24 -132 -24 -270q-1 -69 0.5 -106.5t10.5 -93.5t28.5 -99t55.5 -99.5t91 -119.5q13 -15 29.5 -10.5t21 19t-5.5 28.5q-43 49 -73.5 92t-49 81t-29.5 74.5t-15 73t-5 76.5t0 84q0 81 9 165.5t30.5 184 t68.5 175.5t113 104z" />
<glyph unicode=")" horiz-adv-x="481" d="M258 1010l-53 71q-21 29 -59.5 61t-75.5 44q-17 8 -29.5 -3t-11 -27t19.5 -23q34 -13 62 -39q8 -7 14.5 -13.5t12 -11.5t12 -13t10 -12t11.5 -14.5t11 -14.5t13 -18.5t14 -19.5q166 -230 98 -477q-3 -13 -10.5 -35.5l-9.5 -28.5q-20 -55 -62 -131l-37 -69l-36 -64 l-46 -74l-43 -69q-11 -16 -1.5 -30t25.5 -14t26 15l43 68l45 71l37 66q8 14 15.5 28t15 27t10.5 19l32 65q34 67 51 139q77 273 -104 527z" />
<glyph unicode="*" horiz-adv-x="587" d="M217 803l35 67q17 34 26 34.5t29 -34.5q6 -10 21 -32.5t20 -30.5q11 -16 28 -13.5t23.5 16t-2.5 30.5q-10 15 -28.5 45t-26.5 43q-23 41 55 73q11 4 36 16t40 17q17 5 19.5 21t-9.5 27.5t-30 4.5q-54 -17 -82 -32q-34 -16 -41.5 -9.5t-5.5 44.5q3 36 12 71q4 10 -2 21 t-17 16q-12 4 -22.5 -2t-15.5 -18q-14 -43 -17 -101q-1 -30 -6.5 -34t-36.5 4q-17 4 -53.5 16t-56.5 16q-11 2 -22.5 -4t-12.5 -16q-2 -13 4.5 -24.5t17.5 -12.5q58 -13 105 -31q29 -10 32 -18.5t-12 -36.5l-20 -37l-37 -68q-8 -17 2 -31t25.5 -13t25.5 16z" />
<glyph unicode="+" horiz-adv-x="610" d="M14 643q-12 -1 -18 -11.5t-4 -23.5q1 -12 11.5 -18t23.5 -4q82 16 186 16q28 0 35 -6t8 -35q9 -186 12 -219q0 -12 10.5 -20.5t22.5 -6.5q10 0 18.5 10t6.5 21q-3 27 -6 97.5t-7 113.5q-3 32 2 37.5t39 5.5q40 0 84 -2t47 -2q12 0 20.5 8.5t8.5 20.5t-8.5 20t-20.5 8 q-57 0 -133 4q-27 2 -34 8.5t-7 34.5q0 69 -8 209q0 12 -9.5 20.5t-21.5 8.5q-12 -2 -19.5 -11.5t-6.5 -21.5q6 -105 6 -203q0 -29 -9.5 -36t-47.5 -7q-116 0 -181 -16z" />
<glyph unicode="," horiz-adv-x="237" d="M76 86q-15 11 -30 3t-16 -23t13 -29q39 -28 39 -76t-31 -135q-7 -29 20 -38.5t38 17.5q17 51 25 86.5t8 73.5t-16.5 67.5t-49.5 53.5z" />
<glyph unicode="-" horiz-adv-x="667" d="M31 571q-12 -2 -19 -11t-6 -21t11 -19.5t22 -5.5q112 16 344 10q144 -4 160 -4q12 0 20 8.5t8 20.5t-8 20.5t-20 8.5q-8 0 -156 4q-232 9 -356 -11z" />
<glyph unicode="." horiz-adv-x="262" d="M164 80q0 1 -5 17t-12.5 25t-21.5 9q-44 4 -71 -13.5t-27.5 -44t16.5 -55.5q20 -26 46.5 -32.5t49 13t27.5 62.5q2 10 -2 19z" />
<glyph unicode="/" horiz-adv-x="575" d="M53 289l-37 -96q-39 -105 -47 -199q-2 -12 6.5 -21.5t20.5 -9.5q12 -2 21.5 6.5t9.5 20.5q7 77 43 182l39 94q26 63 34 90q206 543 334 824q8 17 -2.5 29.5t-26.5 12t-24 -17.5q-151 -335 -334 -827q-22 -49 -37 -88z" />
<glyph unicode="0" d="M453 979q-6 110 -50 199q-40 89 -103.5 109t-143.5 -44q-175 -149 -199 -524q-6 -66 10 -219q17 -166 57 -302.5t103 -195.5q47 -41 98 -41q65 2 122 56t87 176q35 145 35 446q0 103 -2 166q-2 50 -14 174zM406 831q6 -240 2 -374q-16 -333 -105 -402q-44 -35 -78 -35 q-29 0 -57 25q-55 52 -96 199q-30 111 -46.5 255t-11.5 216q24 349 179 483q55 42 91 30.5t66 -75.5q25 -51 40.5 -166t15.5 -156z" />
<glyph unicode="1" horiz-adv-x="483" d="M195 1200q0 8 -2 10q-2 14 -11 22.5t-22 8.5q-11 0 -21 -10q-75 -69 -129 -154q-11 -16 -2.5 -31t23.5 -15.5t28 13.5q11 20 29 41q19 24 29.5 31t16.5 -4t7 -45q3 -72 9 -168q12 -184 6 -295q-19 -353 -19 -555q0 -3 -0.5 -7t-11 -11t-29.5 -8q-17 -1 -35 -1t-36.5 0.5 t-26.5 0.5q-12 0 -20.5 -8.5t-8.5 -20.5t8.5 -20.5t20.5 -8.5q100 0 180 2t180 2q12 0 20.5 8.5t8.5 20.5t-8.5 20.5t-20.5 8.5h-120q-45 -3 -45 8q4 275 20 565q6 105 -4 303q-14 206 -14 297z" />
<glyph unicode="2" d="M274 498l72 125q132 252 92 415q-24 104 -100 159t-162 36q-90 -21 -136 -111t-26 -223q1 -12 11 -19.5t22 -5.5q12 1 19.5 11t5.5 22q-18 113 16.5 184t99.5 85q63 13 118 -27.5t75 -122.5q35 -142 -88 -375q-19 -37 -68 -123q-92 -155 -133 -258q0 -5 -53 -129l-33 -78 l-10 -26l-4 -8v-13q0 -20 18 -28l8 -2q9 -1 20.5 -2.5t18.5 -1.5h23q74 0 131 2q27 1 93.5 4t86.5 4h49q12 0 20.5 8t8.5 20t-8.5 20.5t-20.5 8.5h-49q-23 -2 -90 -2q-16 -1 -47 -2t-45 -2q-55 -2 -129 -2h-10l-9 2l31 76q37 90 58 131q12 41 47 110z" />
<glyph unicode="3" horiz-adv-x="512" d="M154 715l-11 -2q-3 -1 -14.5 -3t-19.5 -5t-17 -9q-24 -17 -21.5 -40.5t27.5 -28.5q21 -2 56 2q9 -2 73 -31q53 -24 86 -76t41 -119q18 -159 -31.5 -259.5t-136.5 -120.5q-79 -20 -142 36.5t-69 167.5q0 12 -9 20.5t-21 8.5q-12 -2 -20 -11.5t-7 -21.5q6 -136 90.5 -209.5 t192.5 -48.5q110 26 171.5 147t39.5 300q-8 79 -50 143t-110 96q-2 0 -5.5 1.5t-10 5.5t-8 9t5 14t24.5 19q98 58 131 160t-10 207q-32 78 -78.5 120.5t-95.5 43.5t-99 -31q-64 -48 -98.5 -140t-21.5 -190q1 -12 10.5 -19t21.5 -5q12 1 19.5 11t5.5 22q-10 83 18 159.5 t80 112.5q31 20 62 20t63 -32.5t58 -94.5q39 -96 -5.5 -188t-146.5 -137q-1 -1 -18 -4z" />
<glyph unicode="4" horiz-adv-x="563" d="M440 686l-14 2q-17 1 -23.5 3t-11.5 11t-4 29q3 78 10 162q3 67 6 111q5 125 -8 208q-4 15 -10 21q-4 4 -18 4q-12 0 -33 -14q-5 -2 -8 -9l-226 -331l-108 -160l-33 -55q-3 -5 -8 -19l-4 -8q-3 -25 16 -37q12 -4 14 -2h7q18 2 32 6q7 0 19 4q16 3 36.5 7t33 6.5t20.5 3.5 q73 7 154 4q15 0 19.5 -0.5t11.5 -4t8.5 -12.5t0.5 -26q-5 -113 -12 -246t-10.5 -210.5t-3.5 -119.5q0 -12 8.5 -20t20.5 -8t20 8t8 20q0 110 29 576q1 13 2 18t5 11t12.5 8t23.5 2h14q12 -1 21.5 6.5t11.5 19.5q0 12 -8.5 21.5t-20.5 9.5zM344 1047v-23q0 -30 -6 -113 t-6 -114q-1 -10 -2 -32t-2 -32q-1 -28 -10 -34.5t-33 -6.5q-71 2 -168 -6q-2 0 -8 -1t-9 -1q-12 -1 -20.5 -1t-14 1t-9 2t-4 4.5t-1 5t2 7t4 7.5t6 9t6.5 10l-27 -39l107 160l145 211q10 15 17.5 23t15.5 11.5t12 -8.5t4 -40z" />
<glyph unicode="5" horiz-adv-x="595" d="M86 745v27q0 3 -1 52.5t-1 78.5q-6 130 12 199q3 23 10 33q3 6 5 6q40 12 153 0q111 -17 172 -21q12 -1 21.5 7t11.5 20q0 12 -8.5 21.5t-20.5 9.5q-2 0 -29.5 3t-50.5 7q-19 3 -90 10q-124 15 -176 0q-41 -12 -55 -82q-11 -42 -14 -125v-90q0 -49 2 -76q2 -29 2 -53 q0 -8 -2 -22q-4 -67 -2 -101q9 -34 32 -31h4q5 1 29 5l55 12q14 3 62 10l10 2q20 5 47 2q53 -11 93.5 -53t59.5 -100.5t25 -128.5t-10 -136q-18 -94 -81 -154.5t-138 -66.5q-73 -6 -121.5 51t-48.5 170q0 12 -8.5 20.5t-20.5 8.5t-20 -8.5t-8 -20.5q0 -138 65.5 -213 t167.5 -67q94 8 170.5 82.5t99.5 185.5q10 64 11 129.5t-17.5 129.5t-47.5 114t-79 82t-112 35q-14 2 -109 -17l-8 -2q-22 -3 -31 -2t-12 10q0 9 1 24t1 23z" />
<glyph unicode="6" horiz-adv-x="569" d="M397 1022v-49v-10q0 -20 13 -31q6 -6 20 -6q12 0 20 9t7 21v68q-3 49 -15 76q-35 89 -87.5 122t-116.5 9q-102 -34 -181 -172q-42 -69 -63 -227.5t-10 -329.5q11 -201 60.5 -334t139.5 -164q79 -25 140.5 7t99.5 110q66 140 45 321q-8 91 -38.5 155t-82.5 83 q-122 50 -270 -182l-19 -29q-15 -18 -16 4q0 5 -1 16.5t-1 16.5q-9 158 12 315q37 293 203 355q80 28 133 -97q5 -17 8 -57zM70 291v39q10 63 67.5 151t114.5 129q45 28 76 17q30 -14 53.5 -65.5t30.5 -125.5q15 -173 -41 -289q-61 -124 -166 -86q-54 18 -91.5 95.5 t-43.5 134.5z" />
<glyph unicode="7" d="M422 1057l35 100l10 35q4 20 4 22q-5 14 -8 19q-8 11 -23 14q-10 2 -41 -0.5t-39 -1.5q-44 0 -75 2q-132 4 -197 4q-68 0 -72 -4q-25 -14 -34 -55q-10 -55 18 -160q9 -25 37 -18q24 6 20 35q-15 47 -18 88q0 3 -1 10t-1 10q0 19 2 29q2 8 10 8h39q64 0 115 -2 q123 -6 157 -6h39q-5 -30 -32 -109l-62 -164q-31 -74 -80 -256q-9 -34 -26 -94t-19.5 -70t-14.5 -50.5t-14 -46.5t-15.5 -47t-21.5 -62.5t-30 -83.5q-41 -112 -66 -209q-2 -11 5 -22.5t18 -12.5q11 -2 22.5 5t12.5 18q27 98 63 200l72 205q27 89 72 256q43 164 75 250z" />
<glyph unicode="8" horiz-adv-x="600" d="M313 602l-43 31q-33 26 -8 57q10 14 25.5 38t21.5 32q20 31 45.5 99t41.5 119t16 54q14 106 -45.5 173t-145.5 59q-79 -8 -143.5 -75.5t-87.5 -170.5q-26 -118 10.5 -197t122.5 -151q30 -24 6 -58q-49 -65 -68 -96q-99 -152 -84 -342q10 -124 92 -179.5t191 -29.5 q104 26 176 110.5t68 190.5q0 111 -58 201q-19 30 -60 69.5t-73 65.5zM215 725q-27 -33 -57 -6q-74 60 -103.5 125t-7.5 162q20 85 70 138.5t108 59.5q46 6 77.5 -21.5t43.5 -78.5q4 -16 0 -51q-38 -180 -86 -260q-16 -26 -45 -68zM236 586l38 -31q87 -66 121 -119 q48 -79 51 -170q1 -89 -56 -155.5t-144 -87.5q-83 -20 -142 20t-69 135q-15 163 76 307q20 34 65 93q27 34 60 8z" />
<glyph unicode="9" horiz-adv-x="546" d="M446 1030l-12 57q-35 118 -114 138.5t-170 -66.5q-86 -79 -121.5 -192.5t10.5 -198.5q36 -62 88.5 -80t105.5 8q83 39 136 121l18 25v-2q0 -2 0.5 -6.5t0.5 -10v-13t0.5 -15t0.5 -16.5v-17q0 -151 2 -270q2 -199 2 -455q0 -12 8.5 -20.5t20.5 -8.5t20.5 8.5t8.5 20.5 q0 281 -2 502q-3 328 -3 487v4zM387 1020q-12 -88 -55 -160.5t-121 -109.5q-76 -29 -123 47q-34 61 -2.5 156.5t104.5 164.5q43 41 79.5 50.5t66 -18t45.5 -95.5q6 -18 6 -35z" />
<glyph unicode=":" horiz-adv-x="327" d="M160 848h-4h-2q-3 1 -5.5 1t-5.5 -1q-4 0 -6 -2q-2 0 -4 -2q-10 0 -16 -2q-34 -9 -37 -37q-7 -43 51 -66q25 -10 51.5 -3t40.5 26q21 31 1.5 54.5t-64.5 31.5zM176 397q-24 9 -76 -12q-24 -6 -36.5 -31t-2.5 -49q14 -44 58 -41q15 2 37 15q31 20 41.5 47t3 47t-24.5 24z " />
<glyph unicode=";" horiz-adv-x="411" d="M244 713q2 4 4.5 7t6 6.5t5.5 6.5q8 8 10 12q22 36 15 58q-13 42 -52.5 49t-74.5 -18t-45 -62t18 -74q28 -30 56.5 -27t50.5 31q1 2 3 5.5t3 5.5zM244 207v-31q-1 -11 -4.5 -22t-6 -17.5t-9 -21t-9.5 -21.5q-8 -17 2.5 -29.5t26.5 -12t24 17.5q25 58 33 96q3 28 10 49 q15 63 -4 117q-12 31 -34.5 44.5t-57.5 20.5q-34 8 -47 6q-9 0 -18 -12q-31 -38 -34.5 -78.5t19.5 -66.5q26 -33 66 -33q14 0 30 1q10 0 11.5 -0.5t1.5 -4.5v-2z" />
<glyph unicode="&#x3c;" horiz-adv-x="417" d="M254 729l39 59q10 15 18 31q15 31 8 45q-7 16 -26 17t-27 -19q-18 -41 -59 -100l-51 -74q-35 -48 -50 -74q-58 -84 -88 -145q-42 -79 -32 -117q18 -79 129 -207l43 -47l43 -49q37 -40 65 -84q8 -16 25.5 -15t25 14t-1.5 30q-20 39 -69 92l-45 51l-41 47 q-102 117 -117 181q-2 7 4 26q3 12 23 51q23 45 86 140q5 7 21.5 30.5t27.5 40.5z" />
<glyph unicode="=" horiz-adv-x="741" d="M55 754q-12 0 -20 -8.5t-8 -20.5t8 -20.5t20 -8.5q156 0 281 2h280q12 0 20.5 8.5t8.5 20.5t-8.5 20.5t-20.5 8.5h-280q-125 -2 -281 -2zM618 449h-305q-214 -9 -299 -48q-17 -7 -18 -23t12 -27t31 -3q74 30 179.5 36.5t399.5 6.5q12 0 20.5 8.5t8.5 20.5t-8.5 20.5 t-20.5 8.5z" />
<glyph unicode="&#x3e;" horiz-adv-x="604" d="M418 600l53 -27q12 -8 18 -10q1 -1 3.5 -2t3.5 -2q2 -2 4 -2q6 -6 8 -10q12 -21 -10 -60q-7 -13 -41 -61q-35 -47 -133 -160l-97 -110l-98 -107q-10 -12 -19.5 -23.5t-16.5 -21t-9 -12.5q-11 -16 -28 -13.5t-23.5 16t2.5 30.5q15 22 49 61l100 111q189 216 226 264 q13 15 26 37q8 20 6 22l-51 27l-55 28q-27 15 -35 19l-141 92q-106 70 -160 102q-16 8 -15 26t14 25.5t30 -1.5q77 -45 161 -101l144 -94l28 -14z" />
<glyph unicode="?" horiz-adv-x="559" d="M328 688l49 41q58 54 76.5 134.5t2 154.5t-56.5 129q-45 65 -116.5 85t-132.5 -1t-89 -68q-37 -57 -41 -139q-6 -123 -6 -137q-2 -12 6.5 -21.5t20.5 -9.5q12 -2 21.5 6.5t9.5 20.5l4 86q2 62 9 98t26 68q18 29 61 42t94.5 -2.5t85.5 -62.5q33 -46 46.5 -106.5 t-1.5 -125.5t-61 -108q-13 -13 -43 -37q-75 -63 -105 -114q-34 -55 -44 -148t-1 -168q-1 -27 13 -39q6 -6 20 -6q12 0 20.5 9.5t6.5 21.5q-10 65 -1.5 158t36.5 143q32 49 90 96zM186 121l-6 2q-12 2 -23 -5.5t-12 -17.5q-7 -40 4 -68t41 -28q30 4 35.5 35t-10.5 61 q-4 8 -10 11q-11 7 -19 10z" />
<glyph unicode="@" horiz-adv-x="790" d="M479 596q-13 120 -42 176t-83 68q-24 7 -45 -4t-34 -27t-37 -53q-59 -88 -83.5 -205.5t5.5 -198.5q11 -27 34 -51t48 -31q93 -26 161 68q8 11 12.5 18t8.5 13t6 7.5t2 0.5q0 -2 2 -4q24 -49 72 -49q40 0 82.5 59.5t70 138t31.5 140.5q5 69 -12 166.5t-51 179.5 q-46 107 -113.5 159t-155.5 27q-130 -42 -217 -180q-147 -231 -143 -553q2 -112 41.5 -211t107.5 -152q62 -47 173 -65t184 6q21 6 90 39q70 36 82 41q18 7 19.5 23t-11 27t-29.5 3q-37 -12 -88 -41q-46 -24 -80 -35q-63 -20 -157.5 -4t-145.5 55q-86 62 -116.5 214t6.5 317 q33 174 115.5 301.5t185.5 157.5q45 13 84 -4.5t65 -52.5t46.5 -85.5t31 -94t16.5 -85.5q20 -85 9.5 -182t-60.5 -193q-12 -23 -30.5 -41t-30.5 -18q-10 0 -19 18q-12 21 -18 68q0 29 4 47q8 54 6 82zM416 612l-8 -94l-7 -49q-10 -30 -12 -35q-25 -62 -59.5 -90t-71.5 -16 q-11 5 -25 18.5t-20 26.5q-24 63 -1 169.5t75 182.5q20 32 43 49q1 1 3 2t3 2q23 13 41 -12q16 -24 29 -59q10 -38 10 -95z" />
<glyph unicode="A" horiz-adv-x="512" d="M-14 25q0 -12 9 -20t21 -7q12 0 20.5 9.5t6.5 21.5q-11 253 8 577q3 37 37 43q21 4 72 8q63 6 119 13q6 0 10 2q-2 -23 -2 -94q-7 -265 7 -390.5t71 -189.5q13 -15 29.5 -10.5t21 19t-5.5 28.5q-47 54 -59 170.5t-7 369.5q5 274 -10.5 404.5t-75.5 216.5 q-36 46 -71.5 56.5t-63.5 -9.5t-49 -63q-37 -78 -49 -195q-59 -546 -39 -960zM102 711q-44 -6 -41 39q23 313 66 405q20 40 36 42.5t46 -38.5q76 -98 80 -391q0 -41 -8 -41h-11q-40 -5 -116 -10q-36 -4 -52 -6z" />
<glyph unicode="B" horiz-adv-x="526" d="M35 -35v23q1 -12 12 -18.5t23 -4.5q5 2 41 8q41 6 98 27q76 36 127 98q106 127 94 299q-7 85 -66 176.5t-128 126.5q-4 4 -3 7q1 1 2.5 2t2.5 2q58 55 67 145q15 161 -26 279q-31 82 -88.5 117.5t-141.5 13.5q-12 -3 -16 -15q-4 -8 -4 -14q-1 -9 3.5 -25.5t2.5 -27.5 q-12 -73 -12 -174q0 -30 5 -113t7 -98q8 -58 2 -396q-8 -295 -8 -395q6 -25 6 -43zM100 1208v4q16 6 43 -4q52 -17 80 -94q37 -104 25 -254q-6 -65 -51 -104q-15 -15 -47 -31q-3 -1 -9.5 -4t-9.5 -4l-6 -2q-2 -2 -4 -2l-2 -2q-2 0 -4 -2l-6 -7q-8 -11 -5 -26q9 -22 26 -27.5 t46 -3.5q14 2 25 2q7 3 10 0q56 -29 119 -131q35 -56 41 -126.5t-14 -134.5t-65.5 -119t-107.5 -83q-11 -4 -51 -14q-22 -5 -34 5t-11 32q0 39 4 211q8 295 0 516q0 3 -0.5 15t-1.5 35.5t-2 47.5q-6 83 -6 115q0 128 18 192z" />
<glyph unicode="C" horiz-adv-x="507" d="M350 1016q-2 -12 4.5 -23t18.5 -12q12 -2 23 4.5t12 18.5q18 90 -33 196q-25 55 -70 76.5t-98 9.5q-42 -12 -82.5 -46t-65.5 -79q-52 -101 -73 -293q-20 -167 8.5 -419.5t87.5 -360.5q36 -65 91.5 -86t105.5 6q47 23 79.5 72t40.5 106q2 12 -5 22t-19 11q-12 2 -22 -5 t-11 -19q-6 -44 -31 -80q-15 -21 -34 -36.5t-43 -24.5t-50.5 6.5t-48.5 56.5q-57 99 -84 360q-23 238 -6 400t68 256q42 79 110 96q41 12 75 -23t47.5 -89t4.5 -101z" />
<glyph unicode="D" horiz-adv-x="540" d="M72 1274q107 0 185 -45.5t121 -126.5t58.5 -186.5t3.5 -231.5q-21 -223 -110.5 -425t-196.5 -255q-6 -4 -14 -4q-6 1 -16 -2.5t-19 -3.5q-10 -3 -21 4q-9 6 -12 18q-17 99 -14 230l2 106t1.5 80t0.5 37q0 7 -6 127q-10 203 -10 334q-3 186 20 293l-2 22q0 12 8.5 20.5 t20.5 8.5zM381 690q22 220 -39.5 356t-198.5 162q-19 5 -31.5 -3t-15.5 -27q-15 -91 -12 -248q0 -166 8 -328q6 -123 6 -129q1 -10 -2 -227q-3 -104 8 -191q3 0 5 2q89 45 170.5 233t101.5 400z" />
<glyph unicode="E" horiz-adv-x="524" d="M127 1253h102q18 -1 59 -3t72.5 -3.5t38.5 -1.5q12 0 20.5 -8t8.5 -20q0 -13 -8 -21t-21 -8q-25 0 -172 6q-61 3 -96 0h-22q-6 -4 -12 -11.5t-9 -12.5l-2 -5q-7 -42 -10 -96q-5 -83 -8 -291v-24q0 -42 41 -39q33 2 79 2q12 1 21.5 -7t11.5 -20q0 -12 -8 -21.5t-20 -9.5 q-6 -2 -56 -2q-6 0 -18 -1t-17 -1q-34 0 -34 -41q0 -118 2 -190q2 -88 2 -145v-54q-2 -33 -2 -84q0 -60 2 -78q2 -6 2 -18h12q4 0 16.5 -1t22.5 -1h65q58 0 97 2h61q12 0 20.5 -8.5t8.5 -20.5t-8.5 -20t-20.5 -8q-24 0 -61 -2t-94 -2q-72 0 -95 2h-18q-28 0 -41 8q-2 0 -6 4 q-13 10 -17 31q-2 8 -2 30q-2 20 -2 82q0 51 2 84v54q0 63 -2 186q-7 414 4 608q2 42 11 103q12 53 28 63q17 10 72 14z" />
<glyph unicode="F" horiz-adv-x="559" d="M76 1253h-13h-4q-2 -2 -4 -2t-10 -4q-16 -11 -16 -26v-7q-1 -4 -2 -14.5t-2 -15.5q-9 -62 -9 -146q-2 -23 -2 -55q-2 -14 -2 -29q-19 -189 -10 -460q14 -396 14 -457q0 -12 8.5 -20.5t20.5 -8.5t20.5 8.5t8.5 20.5q0 10 -1.5 58t-5 169.5t-6.5 231.5q-2 41 -2 112 q0 39 35 45q36 4 72 4q12 0 20.5 8.5t8.5 20.5t-8.5 20.5t-20.5 8.5q-13 0 -34.5 -1t-29.5 -1q-43 -6 -43 37q1 34 4.5 92.5t4.5 83.5q4 36 4 39q0 2 1 6.5t1 7.5q0 32 2 55q0 45 4 119q1 7 2 14.5t1.5 11.5t0.5 7v8q8 2 33 2q236 8 317 8q12 0 20.5 8.5t8.5 20.5t-8.5 20.5 t-20.5 8.5q-112 0 -319 -7q-16 -2 -39 -2z" />
<glyph unicode="G" horiz-adv-x="479" d="M379 399q10 -38 10 -77q0 -99 -38.5 -199t-98.5 -129q-85 -43 -156.5 43t-97.5 264q-25 163 -15.5 360.5t50.5 342.5q25 83 63 139.5t78.5 79t82 15.5t75.5 -46q52 -61 49 -150q0 -12 -9.5 -20t-21.5 -6q-12 0 -20 9.5t-6 21.5q2 67 -35.5 107.5t-89.5 12.5 q-65 -32 -107.5 -174t-50.5 -340q-8 -189 16 -347.5t70 -213.5q105 -125 172 62q31 85 31 168q0 37 -6 55q-13 26 -39 26q-9 -1 -29.5 -2t-30.5 -2q-14 -2 -35 -2q-12 0 -20 8.5t-8 20.5t8 20.5t20 8.5q38 0 68 6q58 2 84 -9.5t37 -52.5z" />
<glyph unicode="H" horiz-adv-x="483" d="M387 1239q0 12 -8.5 20.5t-20.5 8.5t-20 -8.5t-8 -20.5q0 -51 -2 -208t-2 -263q0 -8 -1 -14.5t-1 -11t-3 -7.5t-4 -4.5t-6 -2.5t-6 -1.5t-8.5 -1t-9.5 -0.5q-41 -3 -103 -6q-37 -2 -88 -2h-10.5h-9.5t-7 1t-7 4t-3.5 7.5t-3 11.5t-0.5 17q0 107 -1 264.5t-1 210.5 q0 12 -8 20.5t-20 8.5t-20.5 -8.5t-8.5 -20.5q0 -340 2 -612t2 -613q0 -12 8.5 -20t20.5 -8t20 8t8 20q0 330 -2 606q0 17 1.5 24t10 13t27.5 6q10 0 24 1t33.5 2t34.5 2q17 1 49 2t46 2q24 2 33.5 -5.5t9.5 -33.5q0 -154 -2.5 -354.5t-2.5 -245.5q0 -12 8.5 -20.5 t20.5 -8.5t20.5 8.5t8.5 20.5q0 203 6 608q4 536 4 604z" />
<glyph unicode="I" horiz-adv-x="466" d="M-2 43q-12 0 -20.5 -9.5t-6.5 -21.5q0 -12 9.5 -20t21.5 -6q150 6 320 0q12 -1 21 6.5t11 19.5q0 12 -8 21.5t-20 9.5q-20 2 -62 2q-10 0 -14.5 0.5t-10 1t-7 1.5t-4 2t-2.5 4t-0.5 5t-0.5 7.5v9.5q-8 127 -6 205v94q0 115 2 205q2 88 2 192q0 227 -8 344q0 5 -2 15 t-1.5 13t4 7.5t13.5 6t27 1.5q24 0 45 -0.5t32 -0.5l11 -1q12 0 20.5 8.5t8.5 20.5t-8.5 20t-20.5 8q-20 0 -100 3q-149 3 -240 -11q-12 -1 -19 -11t-5 -21q1 -12 11 -19.5t21 -5.5q17 2 53.5 5.5t47.5 4.5q8 -1 13.5 0.5t10 -1t7.5 -2.5t5 -3.5t3 -4.5t2 -6t1 -6.5 t0.5 -7.5t0.5 -8q10 -160 10 -348q0 -104 -2 -192q-2 -90 -2 -205q0 -45 -2 -92q-1 -56 1.5 -128.5t2.5 -86.5q0 -21 -43 -21q-20 -1 -61 -2t-62 -2z" />
<glyph unicode="J" horiz-adv-x="563" d="M438 1270h-153q-79 -2 -150 2q-12 2 -21.5 -6.5t-9.5 -20.5q-2 -12 6.5 -21.5t20.5 -9.5q31 -4 111 -4q20 0 29.5 -4t11.5 -9t6 -21q15 -68 20 -160q11 -162 -0.5 -359t-40.5 -348q-14 -70 -30 -127q-14 -46 -33 -65q-68 -73 -119 -6q-54 67 -63 170q0 11 -10 19.5 t-21 8.5q-12 -1 -20.5 -11.5t-6.5 -21.5q12 -125 74 -202q43 -53 95.5 -54.5t111.5 56.5q52 52 80 223q29 154 41.5 357.5t1.5 363.5q-5 79 -19 149q-7 20 -2 32.5t39 12.5h51q12 0 20.5 8.5t8.5 20.5t-8.5 20t-20.5 7z" />
<glyph unicode="K" horiz-adv-x="546" d="M422 51h-45l-8 4q-17 13 -25 29q-6 10 -10.5 23t-9 30t-7.5 30.5t-6.5 36.5t-5.5 35.5t-5.5 39t-4.5 36.5q-12 104 -14 119q-21 124 -54 193t-86 92q-38 18 -20 51q66 122 146 237.5t141 172.5q13 12 8.5 28t-19 20t-30.5 -7q-113 -110 -246 -334q-12 -21 -21.5 -31.5 t-16.5 -2t-5 45.5q12 238 22 313q2 12 -5 22t-19 11q-12 2 -22 -5t-11 -19q-29 -217 -29 -506v-45q3 -273 23 -652q0 -12 9.5 -20t21.5 -6q12 0 20 9.5t6 21.5q-20 410 -20 608q0 55 45 35q28 -16 49 -50q22 -37 37 -97t20.5 -101t12.5 -111q2 -12 7 -52t7.5 -57t8.5 -50 t12.5 -51.5t17.5 -39.5t24 -34q9 -12 23 -19q24 -12 45 -12q25 2 31 2h8q12 0 20.5 8.5t8.5 20.5t-8.5 20t-20.5 8z" />
<glyph unicode="L" horiz-adv-x="440" d="M82 160v170q-2 54 2 270q10 397 -18 590q-1 12 -11 19t-22 5t-19 -11t-6 -21q26 -187 19 -580q-4 -214 -2 -272v-35v-62q-2 -29 -2 -73q2 -43 2 -103v-12q0 -9 1 -24.5t1 -24.5v12q0 -4 2 -6q3 -9 6 -12q11 -17 61 -21q40 -4 84 -4h135q12 0 20.5 8.5t8.5 20.5t-8.5 20.5 t-20.5 8.5q-125 0 -135 2h-53q-32 3 -33 4q-6 0 -10 2v26q-2 25 -2 103z" />
<glyph unicode="M" horiz-adv-x="745" d="M14 1188l2 -6q2 -2 2 -4q11 -108 11 -226q0 -110 -6 -331q-9 -221 -9 -332q0 -33 -2 -78q-3 -134 13 -197q1 -11 12 -17.5t24 -4.5q10 1 16.5 12.5t4.5 22.5q-12 58 -12 127q0 38 2 67v68q0 136 8 332q6 220 6 331q0 68 -2 97q0 82 7 82q3 -2 7 -9q8 -12 17 -30 q38 -71 60 -104.5t67 -88.5q20 -27 20 -32t-16 -27q-16 -23 -43.5 -64t-40.5 -59q-12 -16 -4.5 -31.5t22 -17t27.5 11.5q10 13 21 28.5t24.5 36.5t23.5 35q20 31 27.5 31t30.5 -29q51 -66 65 -88q11 -16 28.5 -13.5t24 16t-2.5 30.5q-2 3 -91 121q-5 7 -13 16t-8 13t10 20 q3 5 5 8l17 27q66 106 106 162q25 34 45 38q6 1 6 -4t1 -14t1 -14q0 -18 9 -135q3 -98 12 -291q13 -422 43 -639q0 -12 10.5 -19.5t22.5 -5.5q12 0 19 10.5t5 22.5q-26 208 -43 633q-3 138 -12 293q-10 189 -14 217q-4 26 -5 28q-2 6 -2 13l-4 8q-6 9 -14 12q-33 17 -53 -22 q-5 -10 -6 -11l-2 -4q0 -2 -2 -2q-76 -85 -175 -247q-8 -13 -12.5 -18.5t-7.5 -9.5t-6.5 -1.5t-6 5t-9 11t-11.5 15.5q-48 58 -96 157q-22 40 -51 82q-24 28 -25 29q-2 4 -8 10q-29 26 -56.5 10.5t-17.5 -53.5q1 -2 2 -5.5t2 -4.5z" />
<glyph unicode="N" horiz-adv-x="620" d="M193 987l-33 60q-30 59 -33 65q-35 78 -41 121q-1 12 -11 19t-22 5q-8 0 -16 -8q-6 -7 -8.5 -13.5t-3 -12t-0.5 -6.5v-11q20 -216 14 -573q0 -11 -0.5 -42.5t-1.5 -92.5t-2 -119q-6 -211 -6 -324q0 -12 8 -20t20 -8t20.5 8t8.5 20q0 113 6 324q6 236 6 555q0 36 4.5 50.5 t12.5 7.5t14.5 -17.5t15.5 -28.5l-6 12l291 -565q11 -22 14 -49q10 -204 23 -326q0 -12 9.5 -20t21.5 -6q12 0 20 9.5t6 21.5q-14 131 -20 313q-11 245 -15 420q0 18 2 70t3 77q9 199 -13 332q-1 12 -11.5 18t-23.5 4q-12 -1 -18 -11t-4 -23q20 -109 10 -316q-6 -139 0 -284 q1 -24 1 -41.5t-0.5 -28.5t-2 -16t-3.5 -6.5t-5 2t-5.5 8.5t-6.5 13.5t-7.5 17t-8.5 19.5t-9 19z" />
<glyph unicode="O" horiz-adv-x="587" d="M492 856v10q-6 146 -41 236q-27 70 -77 108.5t-102.5 41.5t-102.5 -15t-81 -53q-133 -151 -102 -654q4 -74 8.5 -127.5t13.5 -114t21.5 -103t33 -83.5t47 -65.5t64 -39.5t84.5 -15q39 0 82.5 16.5t69.5 42.5q35 38 51 160q15 111 25 295.5t6 359.5zM432 891v-8 q9 -175 -6 -430q-9 -141 -25 -244q-12 -72 -16 -86q-9 -30 -20 -41q-13 -18 -46 -30.5t-61 -12.5q-41 0 -72.5 15.5t-53.5 48t-37 72t-25 100.5t-16 119.5t-11 140.5q-27 478 90 612q44 47 125 47q155 -2 174 -303z" />
<glyph unicode="P" horiz-adv-x="430" d="M4 1272q-12 0 -20 -8q-11 -11 -7 -25q1 -12 10.5 -26.5t10.5 -26.5q10 -191 4 -572q-6 -389 23 -608q1 -12 10.5 -19t21.5 -5t19 11t6 21q-29 232 -23 600q0 20 31 35q77 43 119 74q72 51 110 145q34 104 -4 201q-37 97 -122.5 153t-188.5 50zM113 729q-22 -12 -37 -3.5 t-15 34.5q5 218 -2 403q-2 22 10 32t33 3q96 -33 144.5 -122t15.5 -187q-17 -51 -52.5 -88t-96.5 -72z" />
<glyph unicode="Q" horiz-adv-x="563" d="M397 55l21 -20q12 -13 28 -8.5t20 19t-7 30.5l-53 59q-22 22 -17 53q20 93 24.5 224.5t-1.5 335.5v88l4 36q0 150 -25.5 218t-95.5 124q-50 41 -103.5 47t-101 -29t-76.5 -108q-98 -231 -14 -923q12 -114 59 -191q35 -53 82 -71q34 -10 69.5 -4.5t72.5 34.5t59 76 q15 32 22.5 33.5t32.5 -23.5zM344 281q-4 -44 -16.5 -47t-38.5 34q-10 15 -28 38.5t-25 33.5q-11 16 -28.5 13.5t-24 -16t2.5 -30.5q45 -63 109 -139q23 -26 12 -55q-30 -81 -76 -107q-42 -21 -69 -12.5t-51 47.5q-42 67 -54 168q-80 674 11 895q34 82 85.5 96.5 t104.5 -31.5q86 -68 96 -157q8 -34 3.5 -135t-3.5 -129q3 -337 -10 -467z" />
<glyph unicode="R" horiz-adv-x="577" d="M137 647l-6 -2q-33 -11 -33 -49q-12 -513 -12 -569q0 -12 -8.5 -20.5t-20.5 -8.5t-20 8.5t-8 20.5q0 142 6 391q1 77 4.5 200t4.5 179t-0.5 151t-6.5 201q-1 30 -14 37.5t-33 -2.5q-1 0 -3 -1t-3 -1q-17 -8 -30 2.5t-12.5 26.5t17.5 24q81 35 170.5 28.5t165.5 -49.5 q87 -44 128 -121t23 -173q-21 -122 -141 -195q-9 -6 -37 -20q-32 -17 -8 -52q61 -85 76 -252q3 -24 6 -86q5 -97 16 -159q11 -48 23 -70q8 -12 12 -16q1 -1 2 -3.5t2 -3.5q15 3 27 15l6 6q12 15 28.5 11.5t21.5 -18t-5 -30.5q-34 -45 -76.5 -44t-70.5 58q-29 55 -39 158 q-3 38 -6 96q-2 50 -7 82q-12 177 -83 242q-20 20 -56 8zM147 715q111 42 168.5 89t73.5 128q13 73 -19.5 133t-101.5 98q-60 35 -131 41q-21 1 -32 -9.5t-9 -31.5q7 -212 2 -415q0 -23 13.5 -32.5t35.5 -0.5z" />
<glyph unicode="S" horiz-adv-x="604" d="M66 139l12 -30q34 -61 98 -82q63 -21 130.5 -8.5t121.5 55.5q77 61 82 194q0 83 -31 144q-37 67 -82 112q-50 50 -104 94q-1 1 -17 13q-62 51 -89.5 77t-61.5 68q-64 75 -49 180q18 111 83 172.5t142 55.5q77 -5 120 -76t25 -190q-2 -12 5.5 -22t19.5 -11q12 -2 22 5 t11 19q23 143 -35 234.5t-164 99.5q-102 8 -184.5 -68.5t-102.5 -209.5q-8 -47 2 -99q11 -49 28 -82t54 -73q35 -39 57 -59t74 -60q17 -17 23 -21l51 -43q28 -24 49 -45q49 -51 70 -98q25 -54 25 -119q0 -24 -11 -73q-11 -42 -50 -74.5t-93 -42.5q-54 -12 -98.5 4t-67.5 57 q-3 5 -8 19l-6 18q-3 9 -6 21l-5 20q-4 20 -4 43v25q-2 10 -2 20v47q0 12 -8 20.5t-20 8.5t-20.5 -8.5t-8.5 -20.5v-86q0 -27 2 -33q1 -4 2 -14.5t2 -15.5q2 -29 17 -62z" />
<glyph unicode="T" horiz-adv-x="555" d="M279 1171h153q12 0 20.5 8.5t8.5 20.5t-8.5 20.5t-20.5 8.5q-389 0 -424 -2q-12 0 -20 -9.5t-6 -21.5q0 -12 9 -20t21 -7q37 2 123 2q44 0 41 -41q-7 -247 -4 -735q2 -168 2 -346q0 -12 8.5 -20.5t20.5 -8.5t20 8.5t8 20.5v346q-3 460 5 738q3 38 43 38z" />
<glyph unicode="U" horiz-adv-x="540" d="M92 1214q1 12 -6.5 21.5t-19.5 11.5q-12 0 -21.5 -8t-9.5 -20q-47 -533 35 -908q17 -84 51 -172q58 -134 135 -137q84 -8 133 129q27 79 35 172q17 160 20 311q4 222 -16 592q0 12 -9.5 20.5t-21.5 8.5q-12 -2 -19.5 -11.5t-6.5 -21.5q9 -197 12 -305q12 -305 -16 -586 q-12 -95 -33 -161q-16 -49 -37 -70q-15 -21 -37 -21q-41 3 -84 103q-28 66 -49 162q-81 378 -35 890z" />
<glyph unicode="V" horiz-adv-x="655" d="M223 483l58 -239q20 -62 34 -23q6 16 11 47q2 8 4 18l4.5 22.5t3.5 19.5q21 92 63 331q32 200 50 291q1 4 5 23t9.5 43.5t11.5 50.5q20 80 25 113q1 12 11 19t22 5q12 -1 19 -11t5 -22q-5 -42 -24 -118q-15 -62 -27 -115q-12 -58 -49 -289q-39 -224 -64 -334 q-7 -30 -24.5 -116.5t-30.5 -140.5t-21 -58q-12 -7 -28 2l-8 8q-2 2 -2 6l-5 4q0 3 -4 15l-12 47l-35 143q-58 243 -59 246q-1 9 -19 78l-36 147l-37 154q-35 153 -49 223q-23 116 -17 137q1 12 12 18.5t23 4.5q12 -1 18.5 -12t4.5 -23q-2 -3 2 -35q0 -3 14 -78 q18 -99 49 -223l37 -153l37 -146q15 -58 18 -80z" />
<glyph unicode="W" horiz-adv-x="923" d="M729 1061l41 182q1 11 12.5 18t24.5 5q10 -1 16 -12.5t4 -22.5l-41 -184q-18 -92 -69 -383l-33 -205l-29 -187q-8 -42 -30 -157q-12 -50 -21 -82q-2 -10 -8 -29q0 -1 -1 -3t-1 -3t-1 -2.5t-2.5 -4t-2.5 -5.5q-11 -11 -25 -11q-7 0 -18 7l-4 4q-4 4 -4 6v2l-2 2l-3 6 l-10 25l-28 82q-42 117 -60 190l-20 94q-24 109 -27 111q-2 1 -4 -4t-18 -107l-17 -102q0 -7 -6 -62q-15 -114 -25 -157q-11 -44 -12 -47q-1 -1 -2 -4.5t-2 -4.5q-14 -24 -37 -24q-14 0 -22 8q-1 1 -2 4t-2 4q-4 4 -7 10q-1 2 -4.5 12t-5.5 17l-24 82q-14 46 -29 100l-16 54 q-2 10 -6.5 25.5t-6.5 21.5q-6 21 -12 45l-16 63q-7 34 -15 70l-12 65q-3 24 -12 74l-11 64q-1 4 -3.5 23.5t-6 45t-6.5 41.5q-1 9 -3 24.5t-3 24.5q-8 33 -27 138q-28 156 -28 229q0 12 8 20.5t20 8.5t20.5 -8.5t8.5 -20.5q0 -67 29 -215q27 -141 30 -168q1 -3 2.5 -11 t4 -21.5t4.5 -26.5l8 -62l8 -57q9 -67 20 -119q4 -25 13 -61l12 -56q6 -36 14 -59l17 -57q0 -4 37 -131q5 -13 12.5 -25t12.5 -18l5 -5q9 57 13 93q4 32 4 36q3 28 8 50l51 321q3 29 -2 53q-65 300 -86 516q-2 11 6.5 21.5t20.5 11.5q11 0 20.5 -8t9.5 -20q14 -132 35 -250 q3 -17 9 -46q11 -63 16 -64q3 -1 7 18q4 14 14 71l3 19l47 260q1 12 11.5 18t23.5 4q12 -1 18.5 -12t4.5 -23q-63 -339 -90 -514q-3 -29 2 -51l76 -338q13 -62 57 -182l-17 47q15 -44 29 -50q5 -2 6 3q22 99 30 145.5t30 192.5l32 209l33 180q12 72 37 205z" />
<glyph unicode="X" horiz-adv-x="526" d="M319 831l29 111q39 161 78 229q11 16 1.5 30t-25 14t-25.5 -15q-47 -76 -86 -246q-23 -89 -29 -106l-31 -107q-19 -64 -27.5 -63t-23.5 65l-18 74q-9 38 -58 191q-39 116 -55 184q-1 12 -11.5 18t-23.5 4q-12 -1 -18 -11t-4 -23q16 -76 55 -191q38 -111 57 -184l60 -242 q6 -27 -2 -53q-86 -278 -168 -485q-8 -17 3 -29.5t27 -11t23 19.5q71 169 125 344q17 56 23 56t28 -56q17 -44 59 -166.5t68 -177.5q8 -17 24 -17.5t26.5 12.5t2.5 30q-90 193 -165 481q-6 28 2 53z" />
<glyph unicode="Y" horiz-adv-x="632" d="M135 803l41 -109q1 -2 9 -19.5t12 -31.5t2 -25q-17 -141 -4 -399q6 -138 6 -186q0 -12 8 -20.5t20 -8.5t20.5 8.5t8.5 20.5q0 8 -4 192q-7 151 -4 242q0 105 9.5 155.5t45.5 135.5q40 98 117 264.5t110 216.5q11 16 2.5 31t-23.5 15.5t-28 -13.5q-31 -44 -149 -301 l-84 -191q-1 -2 -2.5 -5.5t-6.5 -9.5t-10.5 -7t-13.5 7t-16 28l-21 51l-53 139q-58 177 -74 250q-1 12 -11.5 18t-23.5 4q-12 -1 -18 -11t-4 -23q22 -109 84 -275z" />
<glyph unicode="Z" horiz-adv-x="614" d="M459 1260h-13q-3 0 -6 -3q-8 -1 -23 -2t-22 -2q-3 -1 -9.5 -2t-10.5 -2q-181 -24 -346 -4q-12 2 -22 -5t-11 -19q-2 -12 5 -22t19 -11q172 -24 363 4q3 0 8 1t8 1q7 1 15 2l12 1.5t8 0.5q1 0 4 1t4 1q0 -9 -4 -33q-10 -49 -32 -116q-55 -156 -78 -199q-15 -28 -68 -160 l-106 -274l-101 -262q-23 -60 -30 -88q0 -2 -3 -5q-8 -20 -8 -26v-6v-6q-2 -7 2 -15q4 -11 19 -18q16 -6 49 -6q6 -2 24 -2q51 0 140 6l98 6q53 3 94 6q25 2 51 2q12 0 20.5 8.5t8.5 20.5t-8.5 20t-20.5 8q-26 0 -51 -2q-47 -3 -96 -6q-130 -10 -236 -10q-28 -2 -28 6 q6 20 31 86l98 262l108 273q32 81 66 157q34 64 70.5 171t44.5 157q11 51 0 78q-5 14 -21 22q-2 2 -8 2q-3 3 -8 3z" />
<glyph unicode="[" horiz-adv-x="491" d="M129 23l-18 6q-8 4 -9 4q-9 28 0 100q15 114 15 121q3 146 -2 362q-6 234 -6 320q0 4 -1 12.5t-2 22.5l-2 28q-10 106 0 146q4 23 11.5 27t40.5 4q138 0 202 -19q13 -2 23.5 4t13.5 17q7 26 -20 36q-37 9 -108 15t-113 6q-50 -2 -73.5 -16t-33.5 -60q-12 -52 -2 -166 q6 -47 6 -57q0 -86 6 -320q4 -289 2 -362q0 -1 -1.5 -12.5t-6 -40t-8.5 -60.5q-9 -89 6 -129q11 -29 50 -41.5t106 -17.5h160q12 0 20 8.5t8 20.5t-8 20t-20 8q-144 0 -156 2q-57 3 -80 11z" />
<glyph unicode="\" horiz-adv-x="563" d="M53 1214q-1 12 -11 19.5t-22 5.5q-12 -1 -19 -11t-5 -22q10 -79 57 -223q8 -27 18.5 -62t10.5 -36q85 -303 159 -502t173 -371q8 -16 25.5 -15t25 14t-1.5 30q-99 173 -172 370.5t-152 489.5q-10 40 -30 100q-49 155 -56 213z" />
<glyph unicode="]" horiz-adv-x="428" d="M84 -31h-29q-12 -1 -21 7t-9 20q-2 12 6 21.5t20 9.5q4 2 31 2q38 0 104 4q9 1 68 8q22 8 22 27q0 39 -2 86q-1 20 -2 55.5t-2.5 94.5t-3.5 108q-15 413 -12 440q0 16 6 74q15 182 2 219q0 2 -2 2q-9 3 -24 6q-30 6 -82 6q-68 0 -156 -6q-12 -2 -21.5 6.5t-9.5 20.5 q-1 12 7 21t20 9q91 9 160 9q56 0 94 -9q56 -11 67 -39q20 -48 11 -163q-1 -24 -8 -90.5t-7 -69.5q-1 -38 8 -299.5t15 -394.5q2 -41 2 -86v-33q-1 -3 -2 -8t-2 -7q-2 -4 -4.5 -8t-5 -6.5t-7.5 -5t-7.5 -4t-9 -3.5t-8.5 -3t-10 -3t-10 -3q-67 -13 -133 -13q-18 -2 -53 -2z " />
<glyph unicode="^" horiz-adv-x="524" d="M264 1094l4 -31q36 -204 103 -387q11 -27 37.5 -18t19.5 38q-59 154 -98 351q-1 7 -3 22.5t-3 26.5q-3 51 -13 90q-3 22 -12 31t-20 12q-4 3 -9 1t-7.5 -1t-6.5 -3t-6 -5.5t-5 -7.5t-5 -9.5t-5 -12t-5 -14t-6 -16t-7 -18.5q-88 -223 -242 -469q-11 -16 -2.5 -31t24 -15.5 t28.5 13.5q110 175 196 358z" />
<glyph unicode="_" horiz-adv-x="905" d="M-8 16q-11 -1 -18 -12t-5 -22q1 -11 12.5 -18t22.5 -5q64 15 215 12q49 -2 100 -2q26 0 230 4q102 2 231 2q12 0 20.5 8.5t8.5 20.5t-8.5 20.5t-20.5 8.5q-129 0 -231 -2q-204 -4 -230 -4q-5 0 -17.5 0.5t-35.5 1.5t-43 2q-149 6 -231 -15z" />
<glyph unicode="`" horiz-adv-x="360" d="M217 1104l-45 43q-40 40 -96 67q-17 8 -30 -2.5t-12.5 -26.5t17.5 -24q48 -25 82 -59l43 -39l39 -39q23 -19 42 3t-1 42z" />
<glyph unicode="a" horiz-adv-x="534" d="M-14 12q-2 -12 5 -21.5t19 -10.5q12 -2 22 5t11 19q11 62 25 264q6 91 15 204t11 140q3 40 43 37q119 -4 176 -10q38 0 41 -39q27 -302 27 -596q0 -12 8.5 -20.5t20.5 -8.5t20 8.5t8 20.5q0 477 -67 959q0 1 -0.5 5.5t-1.5 15t-2 22.5q-10 94 -27 143q-13 44 -34 71 t-53 36.5t-73 -13.5q-52 -29 -90 -209q-25 -116 -36.5 -218t-35.5 -417q-6 -81 -10 -127q-13 -189 -22 -260zM145 709q-23 0 -31.5 8t-7.5 35q5 89 41 270q15 78 33 121q6 19 15 28q12 24 36 27q17 2 30.5 -14.5t23.5 -53.5q11 -38 22 -129q32 -235 33 -260q1 -22 -3.5 -31 t-14.5 -10t-25 0q-78 6 -152 9z" />
<glyph unicode="b" horiz-adv-x="612" d="M35 1262q-12 -1 -18.5 -12t-4.5 -23v-19q-5 -82 -4 -109.5t10 -105.5q7 -52 11 -102q1 -31 4 -115.5t4 -134.5q4 -328 4 -625q0 -12 8.5 -20t20.5 -8q16 -2 59 2q100 21 177.5 62.5t123.5 96t69 118.5t20 132.5t-30 137.5q-29 78 -77 129q-68 73 -156 84q-22 2 -26 8.5 t8 25.5q28 41 57 107q26 66 20 135.5t-43 126.5q-37 63 -100 92.5t-137 16.5zM70 1200v4q14 4 41 0q69 -12 112 -82q29 -44 34 -101t-15 -106q-40 -91 -99 -159q-8 -10 -14.5 -15.5t-13 -8.5t-11 0t-8 14t-4.5 30l-6 119q-5 73 -10 106q-9 77 -10 98.5t4 100.5zM111 45 l-7 -2q-6 -3 -6 49q0 368 -2 477q0 29 17 52q76 93 168 63q47 -13 88.5 -59t64.5 -109q22 -59 25 -117.5t-17 -113.5t-61 -101.5t-110 -83t-160 -55.5z" />
<glyph unicode="c" horiz-adv-x="571" d="M418 983q0 -12 8 -20.5t20 -8.5t20.5 8.5t8.5 20.5q0 158 -58.5 236t-150.5 51q-83 -24 -146.5 -122t-76.5 -230q-65 -593 12 -775q35 -84 92.5 -127t120.5 -32q63 8 108.5 64.5t57.5 144.5q2 12 -5 21.5t-19 10.5q-12 2 -22 -5t-11 -19q-10 -70 -42 -111.5t-73 -46.5 q-42 -6 -83.5 25t-69.5 96q-70 173 -9 745q15 121 68 205q53 80 111 98t92 -28q47 -59 47 -201z" />
<glyph unicode="d" horiz-adv-x="509" d="M74 1245h-2q-12 0 -20.5 -7.5t-8.5 -18.5v-5q0 -45 -4 -319q-6 -205 -6 -270q-3 -354 18 -594q0 -11 10 -21q6 -6 15 -6q7 -1 45 4q6 0 16 10q93 107 162 247.5t98 285.5q70 345 -116 569q-53 65 -99 94.5t-108 30.5zM158 139q-17 -27 -37 -24t-21 41q-11 235 -8 469 q0 4 4 262q4 200 4 246q0 36 13.5 40.5t33.5 -10.5q41 -23 89 -80q75 -91 103 -211t11 -245.5t-66 -250.5t-126 -237z" />
<glyph unicode="e" horiz-adv-x="530" d="M109 1229h6q6 2 30 2q44 0 95 -2q68 -2 143 -2q3 0 10 -0.5t10.5 0t8.5 1t9 3t7 6.5q8 5 8 20q-2 12 -11.5 20t-21.5 7q-3 0 -21.5 0.5t-57.5 1.5t-82 2q-51 2 -99 2q-47 0 -65 -10q-28 -18 -39 -92q-8 -71 6 -266q2 -19 4 -47.5t2.5 -34.5t1 -24t0 -32.5t-1.5 -42.5 q0 -11 -3.5 -70.5t-4.5 -99.5q-12 -277 -2 -438q3 -55 12 -90q11 -50 37 -59q52 -22 150 -19q135 10 139 10q12 0 20.5 8.5t8.5 20.5t-8.5 20.5t-20.5 8.5q-37 0 -68 -2q-11 -1 -42.5 -3.5t-46.5 -3.5t-37 -0.5t-38 3.5q-30 5 -30 39q0 -20 -4 -19q0 1 -1 4.5t-1 5.5 q-9 39 -11 80q-11 162 4 473q1 28 10 34.5t33 6.5q52 0 72 2q12 0 20.5 9.5t8.5 21.5q-2 12 -11.5 20t-21.5 7q-16 -2 -63 -2q-24 0 -33 8t-8 37q1 55 1.5 61t-3 43.5t-5.5 67.5q-14 192 -6 256q0 3 1 7.5t1 6.5q1 8 2.5 15t2.5 10t1 4t3 4z" />
<glyph unicode="f" d="M96 1262q-13 0 -18 -5q-14 -10 -19 -32q-2 -2 -2 -11q0 -13 0.5 -37t1.5 -69t2 -82q4 -154 2 -182q-8 -109 -20 -416q-9 -248 8 -408q0 -12 9.5 -20t21.5 -6q12 0 20.5 9.5t6.5 21.5q-19 206 2 610q1 15 3 23.5t9 12t10.5 4t18.5 1.5q77 5 84 6q12 0 20 9.5t8 21.5 q-2 12 -11.5 19.5t-21.5 6.5q-32 0 -59 -2h-12q-22 -3 -32 4.5t-9 34.5q1 12 1 33.5t1 30.5q6 111 -4 319q-1 20 10 31.5t31 9.5q31 -2 110 -2q92 0 170 -4q11 -2 21.5 6.5t11.5 20.5q0 11 -8.5 20.5t-20.5 9.5q-59 6 -176 6q-78 0 -170 5z" />
<glyph unicode="g" horiz-adv-x="524" d="M258 418h33q55 4 67 -15q15 -21 10.5 -107.5t-28.5 -156.5q-30 -81 -66.5 -99t-91.5 30q-50 46 -84 213q-33 161 -37.5 360.5t21.5 353.5q12 62 30.5 108t40 71.5t45.5 35t48 0.5t47 -34q27 -27 35.5 -64.5t-4.5 -73.5q-8 -18 3 -31t27 -11.5t23 18.5q20 56 9 110t-50 93 q-39 44 -90.5 50.5t-112.5 -28.5q-74 -53 -108 -233q-28 -157 -22.5 -364.5t38.5 -373.5q37 -177 109.5 -251t150.5 -31q56 30 89 118t38 191q4 96 -18.5 135t-81.5 45h-39l-31 -2q-12 0 -20.5 -8.5t-8.5 -20.5t8.5 -20t20.5 -8z" />
<glyph unicode="h" horiz-adv-x="585" d="M158 657h211q17 0 23.5 -1.5t12 -10.5t5.5 -29q0 -71 -4 -157q-6 -321 26 -439q1 -11 12.5 -17.5t24.5 -4.5q10 1 16 12.5t4 22.5q-30 120 -24 426q0 77 6 233q4 208 4 217q0 37 2 70q2 31 2 80q0 84 -20 151q-11 27 -38 18t-20 -38q21 -58 21 -131q-4 -74 -4 -150 q0 -83 -4 -153q-1 -25 -11 -33t-32 -8h-215q-23 0 -32 7t-9 34q0 30 4 194q5 149 2 252q0 12 -9.5 20.5t-21.5 8.5q-12 -2 -20 -11.5t-7 -21.5q2 -49 -2 -246q-5 -208 -4 -244.5t11 -314.5q8 -216 8 -373q0 -12 8 -20t20 -8t20.5 8t8.5 20q0 208 -8 437q-3 102 -6 159 q-1 27 7.5 34t31.5 7z" />
<glyph unicode="i" horiz-adv-x="233" d="M131 1229q0 12 -9.5 20t-21.5 8q-12 -2 -19.5 -11t-6.5 -21q9 -273 -8 -678q-5 -80 4 -277q10 -225 10 -272q0 -12 8.5 -20.5t20.5 -8.5t20 8.5t8 20.5q0 39 -10 274q-8 145 -4 271q18 445 8 686z" />
<glyph unicode="j" horiz-adv-x="614" d="M236 1204h-109q-12 0 -20.5 8.5t-8.5 20.5t8.5 20.5t20.5 8.5q234 0 360 6q12 1 21.5 -7t11.5 -20q0 -12 -8 -21.5t-20 -9.5q-18 -1 -56.5 -2t-58.5 -2q-43 -3 -37 -45q23 -173 19.5 -501t-31.5 -461q-27 -125 -95 -187q-43 -40 -96 -26.5t-96 80.5q-34 49 -45 116 q-13 60 -19 119q-6 43 -6 51q-2 12 5.5 23t19.5 12q13 0 22 -6q11 -9 15 -45q0 -7 4 -31l6 -59q4 -44 27 -105q14 -32 20 -43q33 -51 62 -57q24 -3 43 16q54 48 75 154q31 149 31 494q0 87 -4 219q0 -18 -3 7q-14 117 -20 234q0 39 -38 39z" />
<glyph unicode="k" horiz-adv-x="540" d="M319 256l-20 51q-13 35 -18 45q-74 192 -136 281q-18 27 -4 55q43 79 72 143q121 247 205 349q12 15 5 30.5t-22 17.5t-28 -11q-92 -113 -203 -340q-5 -12 -15 -32l-14 -28q-19 -40 -34 -32q-15 11 -15 71q0 153 8 371q1 12 -6.5 21.5t-19.5 11.5q-12 0 -21.5 -8.5 t-9.5 -20.5q-10 -198 -10 -377q0 -117 4 -453t4 -378q0 -12 8.5 -20.5t20.5 -8.5t20 8.5t8 20.5v184q-2 63 -2 215q0 16 -1 43.5t-1 40.5q0 36 9 45.5t20 -0.5t22 -31q41 -80 82 -188q9 -27 17 -47l18 -49l21 -48q13 -37 20 -49l21 -41q14 -32 22 -45q18 -36 45 -76 q12 -16 29 -13t23 16.5t-3 29.5q-12 15 -22 35l-21 37q-15 24 -22 41l-19 41q-15 37 -20 49z" />
<glyph unicode="l" horiz-adv-x="462" d="M12 293v-152q4 -46 7.5 -70t14.5 -48.5t29 -32.5q50 -23 144 -17q100 6 125 -2q11 -2 22.5 5t12.5 18q2 11 -5 22.5t-18 12.5q-30 7 -141 4q-39 -2 -86 2q-29 6 -33 20q-4 8 -4 13q-5 21 -8 77q-2 12 -2 148q0 164 -2 293t-2 348q0 153 6 291q1 12 -7 21t-20 11 q-12 0 -21.5 -8t-9.5 -20q-8 -123 -8 -293q0 -92 4 -350q2 -129 2 -293z" />
<glyph unicode="m" horiz-adv-x="694" d="M16 1194v-27q0 -18 1.5 -43.5t3.5 -66t4 -74.5q1 -16 1.5 -37t1 -33t1.5 -18q6 -141 0 -440q-6 -309 2 -447q0 -12 9 -20t21 -6q12 0 20 9t7 21q-5 130 -2 441q3 333 0 446q0 12 -8 184v5t1.5 9.5t4 9.5t7.5 1t11 -12q3 -4 25 -43l57 -111l47 -92q25 -41 48 -107l18 -47 q1 -2 1.5 -5.5t1 -5.5t1.5 -3l2 -6l4 -4l6 -6q12 -9 24 -6t19 12l4 4l2 6q0 1 1 3t2 5.5t2 5.5q1 4 3 11t5.5 16.5t5.5 17.5l45 144q8 25 22.5 69t20.5 64q15 47 39 82q4 7 4 4q0 -4 1 -13t1 -14q4 -118 4 -170v-147q-3 -119 0 -162q0 -75 2 -143q0 -123 2 -164 q4 -152 19 -299q0 -12 9 -20t21 -7q12 0 20.5 9.5t6.5 21.5q-8 96 -10 156l-6 143q-7 96 -7 305v307q0 191 -10 273q-3 24 -6 37q-1 3 -2 7.5t-2 6.5q-8 18 -25.5 22t-35.5 -14q-9 -9 -11 -20q0 -1 -0.5 -3t-1.5 -5.5t-2 -6.5l-2 -4q-39 -76 -108 -297l-17 -55 q-10 -34 -17 -42t-14 0t-22 40q-2 3 -21.5 45.5t-39.5 81.5q-80 157 -134 221q-1 1 -3.5 5t-6.5 9.5t-6 8.5q-26 29 -53 14q-14 -7 -17 -19v-6q-2 -2 -2 -12z" />
<glyph unicode="n" horiz-adv-x="548" d="M133 1100l-33 110q-10 33 -32 41q-18 4 -29 -2q-12 -8 -14 -34.5t4 -124.5q0 -46 -6 -138q-1 -24 -2 -54.5t-2 -50.5t-1 -34q0 -77 -6 -246q-8 -151 -8 -309q0 -148 14 -246q1 -12 11 -19t22 -5t19 11t6 21q-12 147 -12.5 252.5t6.5 276.5q6 185 6 264q0 32 6 137l8 92 q9 -23 14 -47q9 -34 82 -344q50 -213 93 -344l53 -162l22 -75q2 -5 6 -12.5t5 -10.5l4 -10q0 -2 2 -4q1 -1 2 -3t2 -3q11 -7 18 -7q17 -3 31 15q4 8 6 14q3 12 6 33q4 40 4 86v162q0 18 -4 280q-13 407 17 613q1 12 -6 21t-19 11t-22 -5t-11 -19q-30 -219 -18 -623 q6 -200 6 -278v-90q0 -24 -21 20q-16 35 -24 64l-2 4q-12 35 -27.5 90t-31 117l-31.5 126t-31 126t-26 108t-19 81t-8 36q-10 37 -29 88z" />
<glyph unicode="o" horiz-adv-x="528" d="M426 864q-4 203 -31 281q-26 77 -75.5 114t-120.5 21q-43 -10 -86.5 -45.5t-67.5 -77.5q-47 -92 -63 -229t-5 -273.5t29.5 -247t40.5 -188.5q37 -125 84 -184q34 -38 74 -46.5t86 19.5q68 44 102 174q54 205 33 682zM369 961q9 -393 2 -515q-17 -329 -113 -389 q-25 -14 -43.5 -10t-38.5 27q-35 40 -72 162q-22 78 -40 184.5t-29 236.5t4 258.5t59 212.5q18 33 50.5 61t62.5 34q90 20 129 -99q23 -64 29 -163z" />
<glyph unicode="p" horiz-adv-x="458" d="M147 655l50 29q12 7 41 29q56 39 77 75q41 62 47 136q11 135 -96 247q-51 51 -120.5 71.5t-139.5 2.5q-12 -3 -18 -12q-14 -28 8 -41q0 -2 2 -2q28 -76 25 -246q-2 -19 -6 -125t-3 -145q1 -27 19 -285q14 -203 14 -340q0 -12 8.5 -20.5t20.5 -8.5t20 8.5t8 20.5 q0 133 -14 336l-14 215q-1 7 0 12t4.5 8t6 4l10 4l12.5 5q8 3 38 22zM76 682q-4 -4 -4 51q0 9 1 32t1 36q6 126 6 143q6 122 -10 203q-5 23 4 35.5t30 9.5q51 -9 96 -42t70 -79q21 -39 30 -80t1 -86.5t-35 -83.5q-23 -34 -63 -61q-38 -26 -80 -51q-14 -7 -23 -13 q-20 -10 -24 -14z" />
<glyph unicode="q" horiz-adv-x="638" d="M485 39l7 -8q12 -15 28.5 -11.5t21.5 18t-5 30.5l-43 55q-21 24 -13 55q35 137 47 373t-8 399v4q-14 81 -50.5 162t-82.5 127q-46 48 -96 54.5t-99 -33.5t-88 -125q-35 -75 -50 -213t-10.5 -279t22.5 -260q6 -47 42.5 -139t77.5 -158q31 -47 63.5 -75.5t66 -36t66.5 14.5 t60 75l4 5q11 4 39 -34zM467 913v-2q14 -152 5.5 -336t-34.5 -317q-1 -5 -2.5 -15.5l-2 -14t-3 -8.5t-6 -5t-10 3t-15.5 11q-17 15 -30 25q-16 12 -31.5 4.5t-17 -22t11.5 -27.5q22 -15 53 -49q23 -23 14 -45q-2 -3 -5 -9.5t-5 -9.5q-16 -33 -33 -47.5t-36 -9.5t-39.5 25.5 t-44.5 58.5q-38 59 -72 144t-41 128q-27 161 -19.5 388.5t54.5 330.5q50 108 102 123q40 9 84 -35q47 -47 75 -112.5t48 -176.5z" />
<glyph unicode="r" horiz-adv-x="563" d="M195 653l-5 -2q-3 -1 -3 -4.5t1 -6.5l2 -3q32 -53 61.5 -114.5t50.5 -112t71 -174.5q39 -104 76 -170q9 -17 -2 -31t-26 -13.5t-26 15.5q-34 63 -78 176q-137 356 -184 403q-5 5 -6 7q-8 -56 -8 -64q-1 -18 -2 -53t-2 -53q0 -1 -4 -99q-7 -117 -7 -207q0 -29 5 -106 q2 -12 -6.5 -21.5t-20.5 -9.5q-12 -2 -21.5 6.5t-9.5 20.5q-6 47 -6 108q0 113 6 213q3 76 6 99q17 405 -8 729q0 4 -5 22t-3 29q1 2 2 5t2 5q4 12 16 15q119 29 211.5 0.5t147.5 -103.5q55 -68 48 -166.5t-75 -183.5q-80 -105 -198 -156zM137 700q7 0 15 2t12 4l4 1 q24 10 27 12q90 45 149 123t64 153q3 77 -37 129q-33 50 -92.5 75.5t-133.5 19.5q-36 -3 -36 -45q15 -182 12 -431q0 -43 16 -43z" />
<glyph unicode="s" horiz-adv-x="583" d="M401 954q-2 -12 4.5 -22.5t18.5 -11.5q13 -2 23.5 4t11.5 18q31 142 -24 227.5t-163 87.5q-100 0 -181.5 -72.5t-94.5 -185.5q-15 -124 51 -217q33 -47 59 -74.5t84 -80.5q91 -81 152 -154q74 -92 86 -211q11 -116 -36.5 -179.5t-123.5 -57.5q-83 6 -140.5 88t-57.5 217 q0 12 -8.5 20t-20.5 8t-20.5 -8t-8.5 -20q0 -156 71.5 -255t178.5 -110q108 -8 174 76.5t49 228.5q-12 130 -98 238q-10 12 -18 22t-17 19.5t-14.5 16t-15 16t-14 14.5t-16.5 16.5t-17 16t-20.5 19.5t-23.5 22q-58 53 -82.5 79t-52.5 66q-55 77 -43 176q12 93 76 150t143 57 q78 -2 116 -65t13 -179z" />
<glyph unicode="t" horiz-adv-x="575" d="M170 1176l2 -11q11 -56 8 -184q-2 -43 -2 -88q0 -75 -6 -256q-17 -413 12 -586q1 -12 11 -19t22 -5t19 11t6 21q-26 169 -13 574q7 212 7 260q0 5 0.5 16t1.5 31t2 37q5 104 -9 178l-4 29q144 -6 228 -2q12 0 20 9t8 21q-2 12 -11 20t-21 7q-35 -2 -222 2q-154 6 -227 -2 q-12 0 -20.5 -9.5t-6.5 -21.5q0 -12 9.5 -20t21.5 -6q73 4 123 2q41 0 41 -8z" />
<glyph unicode="u" horiz-adv-x="491" d="M70 1221q1 12 -7 21t-20 11q-12 0 -21.5 -8t-9.5 -20q-16 -181 -2 -486q14 -322 8 -477q-9 -130 13 -194q15 -55 55 -82q44 -31 115.5 -20.5t109.5 57.5q60 78 76 206q7 70 4 172q-2 39 -2 76q0 47 6 258q3 217 -2 256q0 40 -8 111q-8 63 -8 108q0 12 -8.5 20.5 t-20.5 8.5t-20.5 -8.5t-8.5 -20.5q0 -30 7 -112q4 -32 7 -71t3 -40q3 -46 0 -254q-1 -58 -2 -118.5t-1.5 -92.5t-0.5 -45q0 -43 2 -80v-86q0 -80 -21 -151q-20 -64 -47.5 -97t-75.5 -40q-80 -11 -104 61q-16 56 -10 174q9 153 -6 485q-15 318 0 478z" />
<glyph unicode="v" horiz-adv-x="552" d="M43 854l-16 117q-23 169 -43 250q-2 12 4 22.5t18 13.5q10 3 20 -3t15 -17q30 -125 45 -258q13 -109 14 -117t12.5 -70.5t35 -195t49.5 -279.5q5 -28 18 -94q2 -7 3.5 -12.5t4 -12t4 -11.5t3 -10.5t2.5 -8.5l2 -6t2 -4q7 40 40 342q11 98 48 354q28 191 75 352 q5 12 15 18t22 3q11 -3 17 -13.5t4 -23.5q-52 -164 -76 -346l-25 -164q-6 -42 -20 -184q-11 -94 -21 -170q-5 -44 -9.5 -84.5t-7 -63.5t-3.5 -28q-1 -8 -3 -21t-3.5 -22t-3.5 -15q-9 -40 -13 -49q-1 -1 -2 -3t-2 -3q-2 -6 -10 -14q-12 -12 -31 -9q-7 0 -18 11v2q-1 1 -2 4 t-2 4l-4 8l-6 25l-21 73q-32 143 -35 164q-93 528 -96 549z" />
<glyph unicode="w" horiz-adv-x="831" d="M160 418l-35 307q-6 56 -12.5 112t-10 86.5t-4.5 41.5q-3 32 -12 86q-18 111 -16 174q1 12 -7 21t-20 11q-12 0 -21.5 -8t-9.5 -20q-6 -52 17 -191q9 -57 12 -82l25 -239q57 -483 71 -553q4 -18 9 -42t8 -40t6 -27q2 -7 4.5 -17t3.5 -13l4 -11q1 -1 2 -4t2 -4l8 -8 q17 -10 31 -2q6 3 12 12q0 4 2 6t2 9q7 19 7 22q9 37 16 74l41 223q27 158 41 225q25 116 49 0q40 -189 147 -452q13 -36 33 -72q7 -12 15 -20q13 -10 28 -7q6 2 11.5 6.5t7.5 8t5.5 10t4.5 8.5q3 17 6 35q1 13 2 44.5t2 47.5q0 34 -4 160q-21 474 92 864q4 31 -20 37 q-27 7 -37 -20q-113 -399 -92 -885q2 -51 2 -154q0 -31 -22 16l-23 54q-85 231 -131 467q-1 9 -6.5 34t-6.5 31q-4 22 -6 29q-4 16 -8 20t-20 8.5t-27 0.5q-23 -13 -27 -56q-12 -98 -73 -430l-15 -69q-9 -43 -17 -57.5t-14 -2.5t-9.5 26.5t-6.5 35.5q-4 31 -16 133z" />
<glyph unicode="x" horiz-adv-x="638" d="M211 590l-88 -234q-21 -49 -72 -153q-43 -88 -67 -164q-4 -29 20 -35q27 -7 37 19q11 41 63 155q75 163 119 273q13 32 23 39.5t16.5 -3.5t13.5 -36l11 -37l20 -60q74 -241 144 -350q11 -16 28 -13.5t23.5 16t-2.5 30.5q-69 102 -135 334q-12 37 -28.5 90t-21.5 69 l-22 60q-12 26 0 55q152 409 246 563q11 16 1.5 30t-25.5 14t-26 -15q-88 -142 -210 -465q-19 -50 -26 -49.5t-30 51.5q-28 61 -52.5 120t-40.5 102t-30 83.5t-21 63.5t-13 44t-7 23q-11 27 -37.5 18t-19.5 -38q54 -148 119 -316l90 -231q12 -27 0 -53z" />
<glyph unicode="y" horiz-adv-x="593" d="M307 676l78 227q18 42 33 88q43 128 76 178q11 16 2.5 31t-24 15.5t-28.5 -13.5q-41 -63 -84 -194q-20 -63 -28 -84q-6 -18 -20.5 -56.5t-20.5 -58.5q-5 -15 -9.5 -22.5t-10.5 -10.5t-14 4.5t-19 26.5q-13 22 -38.5 76.5t-37.5 79.5q-72 146 -121 258q-7 18 -23 19.5 t-27 -11t-3 -29.5q32 -84 121 -264q83 -171 122 -260q8 -20 0 -43q-7 -23 -180 -598q-4 -29 21 -35q28 -7 37 18l63 215l70 236q24 82 65 207z" />
<glyph unicode="z" horiz-adv-x="591" d="M469 1229h-68q-84 0 -137 2q-206 0 -227 8q-11 2 -22.5 -4t-12.5 -16q-2 -13 5 -24.5t18 -12.5q46 -11 239 -11h137q33 0 33 -8q0 -6 -2 -10q-8 -40 -72 -190q-26 -56 -26 -62q-34 -81 -170 -463l-101 -280l-32 -92l-2 -5q-19 -38 -9 -61q4 -9 13 -14t17 -6.5t26.5 -3.5 t27.5 -3q59 -2 163.5 2t166.5 13q12 2 19 11t6 21t-11 19.5t-22 5.5q-63 -10 -169.5 -13.5t-147.5 1.5l-10 2q-14 9 -1 45l21 59l100 281q146 404 158 436q4 9 11 24.5t11 24.5l15 35l43 100q26 73 32 97q15 61 -4 82q-4 4 -12 8q-2 2 -4 2z" />
<glyph unicode="{" horiz-adv-x="569" d="M197 432l-37 -45q-98 -137 -31 -260q41 -74 92 -102.5t154 -42.5q12 -2 22 5t11 19q2 12 -5.5 22t-19.5 11q-90 14 -130 36t-71 81q-39 71 -10 135q12 26 70 104q22 28 32 45q39 55 28.5 101t-69.5 53l-18 2q-15 7 22 31l3 2q37 22 30 67q-2 16 -20 41q-14 16 -50 62.5 t-40 56.5q-70 128 35 217q47 38 115 61t134 23q12 0 20.5 8.5t8.5 20.5t-8.5 20t-20.5 8q-76 0 -153 -24q-82 -26 -140.5 -76.5t-72.5 -118.5q-14 -66 8.5 -121t83.5 -129l31 -43q6 -6 10 -14l2 -2q-3 -6 -18 -18q-29 -22 -146 -72q-14 -6 -26 -12q-10 -4 -11 -4 q-1 -1 -4 -3.5t-4 -3.5q-11 -10 -8.5 -28t20.5 -25q8 -4 19 -4q25 0 71 10q82 13 119 11q3 -2 7 -6t9 -14t1 -19q-12 -24 -45 -66z" />
<glyph unicode="|" horiz-adv-x="270" d="M131 1176q-1 10 -11.5 17t-21.5 5q-12 -1 -19 -12t-5 -23q7 -36 10 -141q4 -122 4 -123q29 -432 29 -862q0 -12 8 -20.5t20 -8.5t20.5 8.5t8.5 20.5q0 444 -29 866q0 201 -14 273z" />
<glyph unicode="}" horiz-adv-x="462" d="M135 715l-6 -13q-2 -3 0.5 -8t12 -10t22.5 -6h20q31 0 56 2q70 6 75 8q36 3 50 -16q5 -13 2 -24.5t-11 -18.5l-16 -11l-25 -10q-86 -34 -125 -55q-15 -10 -22 -16t-6 -7q3 -2 10 -8t17.5 -14t21.5 -16l55 -43q33 -33 39 -43q19 -32 19.5 -69.5t-16 -76t-42.5 -77 t-62 -76.5t-72.5 -70.5t-76.5 -63.5q-25 -17 -42.5 7t5.5 43q78 56 139 119t92 128t7 107q-16 20 -82 67q-11 8 -21 16t-18.5 15.5t-11.5 9.5q-31 31 -31 47q-2 28 47 60q19 9 25 14q18 8 20 12q-91 3 -118 50q-12 22 4 51q0 1 1 2.5t2.5 3.5t2.5 4q2 4 8.5 15t9.5 16 q27 48 51 86q111 188 101 252q-9 40 -68 49q-114 15 -178 -17q-17 -8 -30 2.5t-12.5 27t17.5 24.5q57 28 129 29.5t130 -26t69 -77.5q10 -53 -18 -123.5t-90 -171.5q-58 -93 -60 -100zM170 541l10 6q-2 -2 -10 -6z" />
<glyph unicode="~" horiz-adv-x="747" d="M-31 276q0 -12 8.5 -20t20.5 -8t20.5 8t8.5 20q0 23 16 66q18 41 45 72.5t53 40.5q27 9 46.5 -2.5t27.5 -36.5q18 -43 31 -56q46 -54 102.5 -68t109.5 7.5t101.5 64.5t87.5 103q11 16 2.5 31t-23.5 15.5t-28 -13.5q-47 -69 -100 -109t-107.5 -43t-99.5 49q-9 14 -21 41 q-17 39 -41 56q-54 32 -100.5 18.5t-87.5 -61.5q-32 -36 -52 -86t-20 -89z" />
<glyph unicode="&#xa1;" horiz-adv-x="186" d="M16 891l-24 -33q-11 -16 -7 -27t17 -18q26 -10 47 2q5 3 12 16l15 33q4 8 4 21q0 17 -13.5 25.5t-27.5 0.5q-8 -4 -14 -10zM76 631q-1 11 -12.5 17.5t-22.5 4.5q-11 -1 -18 -12.5t-5 -22.5q10 -50 13 -98q2 -85 -8 -205q-7 -81 -9 -100q-8 -107 -8 -534q0 -12 8.5 -20.5 t20.5 -8.5t20 8.5t8 20.5q0 413 9 530q0 4 3 36t7 60q0 4 8 115q5 139 -14 209z" />
<glyph unicode="&#xa2;" horiz-adv-x="546" d="M295 291l55 182q2 8 8 28q17 63 24 65q6 1 9 -19q2 -8 2 -31q0 -43 2 -49q0 -12 9.5 -20.5t21.5 -6.5q12 0 20.5 9.5t6.5 21.5v45q0 66 -29 113q-19 28 -12 55l30 102q4 31 -20 37q-27 7 -37 -20l-23 -76q-8 -33 -49 -27q-33 3 -63 -2q-60 -12 -114 -49t-83 -86 q-64 -101 -67 -235q-6 -113 29.5 -197.5t97.5 -128.5q30 -21 22 -53q-16 -57 -35 -144q-2 -12 4.5 -22.5t18.5 -11.5q13 -2 23.5 4t11.5 18q27 117 32 135q8 33 48 33q90 0 202 74q16 11 14 28t-15.5 23.5t-30.5 -2.5q-79 -55 -146 -61q-32 -3 -38 10t3 35q50 171 68 223z M324 592l-86 -285q-9 -30 -31 -106t-33 -109q-7 -20 -13 -29.5t-13.5 -8.5t-12.5 5t-16 15q-25 34 -35 53q-45 81 -40 199t58 209q20 36 68 67q63 42 127 39q32 -1 35 -9.5t-8 -39.5z" />
<glyph unicode="&#xa3;" horiz-adv-x="831" d="M211 612l-70 78q-26 26 -28 29q-48 48 -66 94q-19 48 1.5 136t64.5 145q40 50 80.5 70t75.5 11.5t65 -40.5q48 -48 68 -132t1 -169q-2 -12 4.5 -23t18.5 -12q13 -2 23.5 4t11.5 18q20 94 -2 197q-25 101 -87.5 162.5t-140.5 54.5q-86 -7 -152 -87.5t-91 -199.5 q-19 -88 2 -149.5t82 -122.5q37 -37 49 -51q13 -13 17.5 -18.5t7 -14t-8.5 -13.5t-35 -8q-75 -10 -151 -32q-26 -10 -19 -37q6 -25 35 -21q65 20 191 37q40 3 45 -18q6 -9 6 -23q31 -159 -82 -313l-39 -53q-10 -14 -29 -33q-18 -19 -30 -33q-21 -25 -21 -45t15 -29t34 2 q13 10 25 31l41 49q118 82 199 29q2 -1 20.5 -11.5t36.5 -19.5q91 -51 170 -59h12h43q2 1 8 2t9 2l32 6q2 1 7.5 2t12.5 3t13 5q7 2 17.5 4.5t13.5 3.5q10 2 18 15q5 10 1.5 22.5t-13.5 18.5q-5 2 -11 2t-9.5 -0.5t-15.5 -4t-19 -5.5l-31 -9q-2 -1 -13.5 -3.5t-17.5 -4.5 h-37q-23 -2 -41 2q-45 9 -120 49l-62 33q-58 25 -104 25q-23 -2 -29 6.5t4 30.5q78 147 49 292q-1 2 -1.5 5t0 10.5t3 13.5t11 11t22.5 6q35 1 121 14q12 1 19 11t5 22q-1 12 -10.5 19t-21.5 5q-2 0 -52 -5.5t-98 -10.5q-34 -3 -53 22z" />
<glyph unicode="&#xa4;" horiz-adv-x="616" d="M463 702l47 35q22 16 6 41q-25 31 -84 -28q-7 -7 -10 -9q-8 -8 -39 17q-69 51 -154 45q-26 -2 -73 -21q-33 -16 -58 6l-49 50q-15 13 -30.5 7t-18.5 -20.5t8 -27.5l43 -41q29 -29 0 -58l21 21q-42 -45 -62 -98q-23 -54 -13.5 -116t52.5 -102q7 -5 -16 -38q-7 -12 -29 -43 q-11 -16 -2.5 -31t23.5 -15.5t28 13.5q20 31 33 47q19 27 55 18q7 -2 22 -5.5t19 -4.5q68 -14 125 4q38 12 49 -4q4 -7 13 -16q1 -2 14 -15l27 -26q20 -20 40.5 0.5t0.5 40.5l-27 26q-4 4 -11.5 14t-11.5 15q-5 27 9 47q33 51 42 116t-10 126q-3 3 21 30zM377 676l6 -12 q1 -1 2 -5t2 -6q16 -60 2 -121q-14 -73 -63.5 -110t-130.5 -21q-156 31 -142 156q8 67 63 123.5t120 62.5q22 2 59 -4q16 -2 43 -20t39 -43z" />
<glyph unicode="&#xa5;" horiz-adv-x="606" d="M266 758l-8 8q-67 105 -135 238t-86 202q-5 12 -15 18t-22 3q-24 -6 -20 -37q19 -63 70 -170t108 -203q23 -31 20.5 -40t-49.5 -9q-92 0 -129 -2q-12 0 -20.5 -9.5t-6.5 -21.5q0 -12 9.5 -20t21.5 -6q77 3 191 0h9h11t10 -1t10.5 -3.5t8 -6.5t7.5 -10.5t5 -15.5 q-8 -55 -10 -80q-3 -40 -62 -37q-93 3 -172 -4q-12 0 -20 -9.5t-6 -21.5q0 -12 9 -20t21 -6q64 5 181 2q41 0 41 -41q0 -137 12 -435q0 -12 9.5 -20t21.5 -6q12 0 20 9.5t6 21.5q-12 295 -12 426q3 41 43 38q30 0 72 -1t55 -1q12 0 20.5 8.5t8.5 20.5t-8.5 20.5t-20.5 8.5 q-19 0 -121 4q-45 3 -39 43q2 29 10 78q2 21 10 28.5t35 6.5h95q12 0 20 8t8 20t-8 20.5t-20 8.5h-72q-19 1 -25.5 2.5t-11.5 8t-2 20.5q1 4 4 13t4 13q24 69 78 178q66 134 82 185q4 12 -1.5 23t-16.5 16q-11 4 -22.5 -2t-16.5 -17q-24 -69 -78 -178q-67 -136 -82 -184 q-4 -11 -7.5 -25t-6 -24.5t-5 -19.5t-5 -12.5t-5.5 -0.5z" />
<glyph unicode="&#xa6;" horiz-adv-x="229" d="M133 1176q1 12 -7 21t-20 11q-12 0 -21 -8t-9 -20q-17 -372 -17 -404q0 -12 8.5 -20t20.5 -8t20.5 8t8.5 20q0 53 16 400zM109 565q0 12 -9.5 20.5t-21.5 8.5q-12 -2 -20 -11.5t-7 -21.5q4 -114 -4 -254q-10 -225 -10 -262q0 -12 8.5 -20.5t20.5 -8.5t20 8.5t8 20.5 q0 43 10 258q10 195 5 262z" />
<glyph unicode="&#xa7;" horiz-adv-x="579" d="M104 825l-34 15q-36 19 -45 37q-5 12 -1.5 47.5t11.5 62.5q31 100 95.5 146t135.5 30q69 -16 106.5 -85.5t20.5 -170.5q-2 -12 5.5 -22t19.5 -11q12 -2 22 5.5t11 19.5q20 121 -29.5 210t-142.5 110q-94 24 -179.5 -34.5t-122.5 -180.5q-9 -27 -12 -72q-6 -57 10 -88.5 t68 -57.5l70 -30q9 -4 1 -12q-7 -7 -32 -27q-72 -60 -86 -125q-6 -38 -8 -67t9.5 -55.5t26 -46.5t41 -40t54.5 -36t67 -34q18 -8 42 -17.5t26 -10.5q23 -11 54.5 -31.5t43.5 -36.5q33 -52 31 -102q-5 -42 -54.5 -74t-117.5 -33q-76 0 -130 40t-67 116q-1 10 -11 17t-21 5 q-12 -1 -19.5 -11.5t-5.5 -22.5q18 -102 92 -152q70 -50 161 -50t152 44q72 44 79 126t-72 161q-13 12 -15.5 14.5t-5.5 10t2 14t17 18.5q84 84 106 143q29 77 -12 131.5t-146 108.5q-41 24 -79 41q-31 14 -95 47q-17 9 -37 16zM248 350l-37 19q-96 42 -131 80 q-31 35 -34 81.5t34.5 97.5t114.5 85l94 -43q88 -45 117.5 -82.5t11.5 -85.5q-28 -67 -137 -164q-3 -3 -33 12z" />
<glyph unicode="&#xa8;" horiz-adv-x="456" d="M98 1124q1 5 6.5 22.5t6.5 29.5q0 7 -1 11t-6 8l-7.5 6t-12.5 7q-11 2 -17 2.5t-10.5 0t-5.5 -1t-5.5 -4t-6.5 -5.5q-21 -17 -41 -53q-7 -22 2 -40t29 -24q29 -8 47.5 4.5t21.5 36.5zM279 1133l22 -23q13 -8 30.5 -3t18.5 21q2 9 5 20.5t5 20.5q4 23 -6 33t-32 4 q-9 -3 -17 -5.5t-12 -4t-6.5 -2.5t-3.5 -1t-2 -1q-15 -5 -16 -19.5t5 -26t9 -13.5z" />
<glyph unicode="&#xa9;" horiz-adv-x="737" d="M610 1012q-45 77 -166 143.5t-204 48.5q-91 -20 -152.5 -107t-87.5 -233q-46 -260 37 -542q20 -74 80 -158q60 -89 134.5 -138.5t145.5 -31.5q161 35 219 403q29 176 28 348.5t-34 266.5zM547 995q19 -19 22 -47q28 -162 4 -413.5t-86 -380.5q-81 -165 -215 -72 q-56 40 -106.5 114t-71.5 142q-80 269 -37 514q24 132 75 206.5t120 88.5q133 25 295 -152zM412 799q0 -12 9 -20t21 -7q12 0 20.5 9.5t6.5 21.5q-3 78 -61 145q-33 43 -77 49.5t-89 -30.5q-62 -56 -97 -211q-13 -60 -12.5 -132t14 -140.5t48 -121t84.5 -67.5 q47 -14 70.5 -4.5t43.5 55.5q14 35 27 92q2 19 8 37q4 31 -20 37q-27 7 -37 -20q-1 -3 -5.5 -22t-7.5 -36q-8 -41 -18 -63q-11 -24 -13 -25q-3 -1 -32 6q-73 22 -94 162q-20 122 5.5 243t76.5 165q39 39 79 -11q47 -53 50 -112z" />
<glyph unicode="&#xaa;" horiz-adv-x="569" d="M-16 1016q-2 -13 4 -23.5t18 -11.5q12 -2 23 4.5t12 18.5q11 55 31 88q17 29 62 54.5t71 20.5q21 -3 33 -24q10 -20 18 -51q-1 -9 1 -13.5t-3 -10.5t-6 -8.5t-9 -7.5t-11.5 -7t-13.5 -7t-15 -8q-61 -36 -109.5 -107t-62.5 -141q-24 -110 51.5 -134.5t226.5 59.5q4 2 8 6 q17 -24 41 -33q43 -18 103 10q17 8 17.5 24t-12.5 26.5t-30 2.5q-37 -16 -53 -10.5t-27 35.5q-15 40 -24 197q-9 154 -39 206q-55 99 -189 25q-54 -31 -79 -71t-37 -109zM285 760l-9 -4q-127 -74 -176 -56q-28 13 -16 72q10 57 50 115t87 88q12 8 23 10.5t17.5 0.5t6.5 -7 v-18q5 -84 17 -164q5 -34 0 -37z" />
<glyph unicode="&#xab;" horiz-adv-x="632" d="M526 766q15 13 10.5 29.5t-19 21t-28.5 -5.5q-43 -39 -139 -102q-39 -25 -57.5 -39t-32 -34t-10.5 -41t18 -52q13 -30 97 -148q19 -23 42.5 -5.5t6.5 42.5q-81 108 -95 137q-13 29 -4 41q6 6 68 49q95 64 143 107zM121 635l84 67q40 34 67 52q16 8 15.5 25.5t-13.5 25 t-30 -1.5q-28 -15 -78 -58q-25 -21 -52 -40t-32 -21q-32 -13 -35 -39q-8 -47 59 -141q36 -52 89 -117q20 -20 42 -1t3 42q-47 51 -84 109q-26 37 -39 65q-8 19 4 33z" />
<glyph unicode="&#xac;" horiz-adv-x="778" d="M528 702l-194 -16q-80 -6 -191.5 -15.5t-130.5 -11.5q-12 0 -20 -9t-6 -21q0 -12 9 -20t21 -7q26 2 135 11.5t187 15.5q52 3 116 8t78 6q9 0 22 1t17 1l8 1q8 0 15 0.5t14.5 -0.5t9.5 -3q5 -5 5 -6q6 -22 0 -76l-7 -47q-4 -40 -4 -41q-2 -12 6.5 -22.5t20.5 -10.5 q11 -2 21.5 6.5t11.5 20.5q0 3 4 43q4 34 6 45q14 150 -47 147h-107z" />
<glyph unicode="&#xad;" horiz-adv-x="667" d="M31 571q-12 -2 -19 -11t-6 -21t11 -19.5t22 -5.5q112 16 344 10q144 -4 160 -4q12 0 20 8.5t8 20.5t-8 20.5t-20 8.5q-8 0 -156 4q-232 9 -356 -11z" />
<glyph unicode="&#xae;" horiz-adv-x="747" d="M586 1032l-15 37q-10 29 -52.5 70.5t-88.5 58.5q-48 17 -89.5 18.5t-77 -13.5t-65 -38.5t-58 -63t-52 -82t-49.5 -99.5q-91 -196 -50.5 -443.5t189.5 -402.5q44 -47 109 -74q55 -24 99.5 -25t83.5 35t71 113q74 181 104 493q11 112 -9.5 233t-49.5 183zM453 1120 q33 -14 65 -57q93 -211 70 -445q-13 -127 -40.5 -258.5t-62.5 -214.5q-41 -95 -77 -106q-34 -12 -92.5 13t-96.5 63q-88 91 -136.5 229.5t-46.5 286t56 264.5q24 52 45 90.5t45 72t48.5 54t52.5 32t59.5 11t67.5 -13.5q32 -14 43 -21zM377 571l-27 45l-2.5 5l-5.5 11t-4 11 t2 6q2 1 5 2t5 2q58 28 98 75.5t33 98.5q-7 70 -52.5 100.5t-109.5 18.5q-50 -7 -99.5 -39t-74.5 -71q-16 -25 9 -41q10 -3 10 -35q4 -75 2 -148q-3 -113 14 -192q1 -12 12 -18.5t23 -4.5q12 1 18.5 12t4.5 23q-16 69 -13 180q0 15 15 9q22 -5 28 -7q4 0 6 -2h2 q22 -13 48 -69q31 -52 51.5 -73.5t66.5 -43.5q17 -8 30 2.5t12.5 26.5t-17.5 24q-36 18 -51 34t-39 58zM219 805q-1 27 19 43q44 33 92 41q41 6 61 -8q28 -18 30.5 -54t-26.5 -69q-55 -58 -127 -68q-41 -8 -43 -10q0 72 -6 125z" />
<glyph unicode="&#xaf;" horiz-adv-x="450" d="M-2 1204q-12 0 -20.5 -8t-8.5 -20t8.5 -20.5t20.5 -8.5q182 0 326 -6q12 -1 21 6.5t11 19.5q0 12 -8 21.5t-20 9.5q-150 6 -330 6z" />
<glyph unicode="&#xb0;" horiz-adv-x="491" d="M373 1042q-5 9 -12 26t-9 22q-17 43 -51.5 80t-77.5 59q-43 29 -103 18.5t-91 -63.5q-13 -22 -15 -31q-7 -22 -12.5 -60.5t3 -104.5t40.5 -111q53 -74 133.5 -93.5t136.5 23.5q59 35 75.5 96.5t-17.5 138.5zM63 1016v63q0 37 7 56q12 28 20 36q41 34 104 5.5t95 -89.5 q8 -17 15.5 -36.5t18 -59.5t1.5 -76.5t-39 -58.5q-38 -25 -91.5 -9t-99.5 62q-31 31 -31 107z" />
<glyph unicode="&#xb1;" horiz-adv-x="485" d="M98 639q28 3 35 -4.5t10 -34.5q2 -18 29 -127q9 -25 37 -18q24 6 20 34q-15 48 -24 103q-6 28 0 36.5t39 8.5q35 0 70 -1l36 -1q12 0 20.5 8.5t8.5 20.5t-8.5 20t-20.5 8q-31 0 -49 2q-10 0 -35 1t-37 1q-27 0 -34 7t-9 32q-4 82 -4 133q0 12 -8 20.5t-20 8.5t-20.5 -8.5 t-8.5 -20.5q0 -24 2 -66.5t2 -62.5q0 -28 -5 -34.5t-36 -6.5q-47 0 -117 -12q-12 -1 -19 -11t-5 -22q1 -12 11 -19t22 -5q19 2 60 5t58 5zM-18 4q-12 2 -21.5 -6.5t-9.5 -20.5q-2 -12 6 -21t20 -9q82 -8 193 -4q40 3 100 6q16 1 37 1.5t34 1t21 1.5q12 0 20.5 9.5t8.5 21.5 q-2 12 -11.5 19.5t-21.5 6.5q-13 0 -127 -6q-94 -4 -102 -4h-27q-4 1 -120 4z" />
<glyph unicode="&#xb2;" horiz-adv-x="450" d="M80 799l63 92q50 78 73 130.5t13 92.5q-13 68 -53 93t-90 1q-37 -17 -70.5 -56t-46.5 -81q-4 -10 2.5 -21t18.5 -16q10 -4 21 2.5t16 18.5q11 31 34.5 59.5t49.5 40.5q22 9 32 2q20 -10 29 -55q11 -45 -78 -178l-63 -93q-20 -28 -23 -34q-12 -29 -2 -45q5 -11 17 -18 t22.5 -10t30.5 -7q46 -4 92 -4l90 4q16 1 32.5 2t25 1.5t10.5 0.5q12 0 20 8.5t8 20.5t-8 20t-20 8q-29 0 -66 -2q-78 -4 -94 -4q-44 0 -60 2q-7 1 -14.5 2t-11 1.5t-6.5 0.5h-8q1 2 3.5 6t5 7.5t5.5 7.5z" />
<glyph unicode="&#xb3;" horiz-adv-x="385" d="M78 893l20 8q56 6 80 -6q84 -44 35 -100q-23 -32 -68 -55.5t-90 -28.5q-12 0 -20 -9.5t-6 -21.5q0 -12 9 -20t21 -7q59 4 114.5 33.5t88.5 71.5q36 51 18 109t-77 81q-2 0 -5 1t-9 4.5t-8 8.5t1.5 14.5t14.5 20.5q33 33 39 73t-7 79q-18 62 -57 85t-90 5 q-42 -17 -74.5 -54t-44.5 -81q-4 -29 21 -35q27 -7 36 18q7 31 31 58.5t51 38.5q51 17 70 -51q24 -87 -104 -166q-13 0 -25 -6q-31 -15 -31 -37q0 -14 11 -25q21 -21 55 -6z" />
<glyph unicode="&#xb4;" horiz-adv-x="342" d="M78 995l160 160q20 20 -0.5 40.5t-40.5 0.5l-160 -160q-20 -20 0.5 -40.5t40.5 -0.5z" />
<glyph unicode="&#xb5;" horiz-adv-x="638" d="M412 215v4q0 5 10 27q39 116 61 209q44 177 58 215q8 17 -3 29.5t-27.5 10.5t-23.5 -20q-14 -36 -61 -221q-38 -153 -76 -244q-34 -75 -72 -114t-89 -46.5t-113 27.5q-32 17 -23 53l8 33q91 314 150 469q7 29 -19.5 38.5t-37.5 -17.5q-60 -169 -148 -473 q-96 -333 -149 -471q-7 -29 19.5 -38.5t37.5 17.5q35 99 98 305q4 14 6 18.5t7.5 10t15 3.5t25.5 -9q160 -76 268 53q6 9 9 12.5t7 7.5t6 1.5t4.5 -9.5t4.5 -20q3 -29 18 -64q7 -18 23 -19.5t27 11t3 29.5q-16 54 -16 86q-4 46 -8 96z" />
<glyph unicode="&#xb6;" horiz-adv-x="876" d="M383 -66v506q0 254 12 488q4 60 2 137q-1 14 -1 28t0.5 29t0.5 21q0 37 39 43q7 1 22 2t23 2q39 3 45 -37q1 -12 2 -36t2 -36q0 -66 -10 -223q-6 -71 -6 -113q-6 -126 -6 -395q0 -267 -6 -405q-2 -12 6 -21.5t20 -9.5q12 -2 21.5 6.5t9.5 20.5q5 106 8 407q0 225 4 393 q2 25 9 109q3 70 6 117q4 94 -2 184q-2 20 8.5 31t30.5 10q50 -2 125 -10q12 -2 21.5 5t10.5 19q2 12 -5 22t-19 11q-258 37 -471 -22q-94 -35 -156 -95q-70 -70 -106 -162.5t-9 -179.5q29 -89 109.5 -133.5t157.5 -30.5q45 9 45 -30v-652q0 -12 8 -20t20 -8t20.5 8t8.5 20z " />
<glyph unicode="&#xb7;" horiz-adv-x="256" d="M66 641l-11 -8q-36 -25 -32 -74q2 -28 28 -39.5t64 4.5q18 7 26 15q18 14 13 45.5t-29 56.5q-15 15 -31 12q-18 -2 -26 -10z" />
<glyph unicode="&#xb8;" horiz-adv-x="440" d="M207 -340l26 10q65 35 95 84q24 35 15 71t-52 60q-42 27 -156 13q-2 0 -4 -1t-7.5 -1t-7.5 1.5t0 6.5t11 14q3 4 7 9.5t7 9t6 6.5q2 3 9 10q12 15 5 30.5t-22 17.5t-28 -11l-11 -10q-8 -8 -20 -23l-23 -27q-5 -6 -12.5 -14t-12 -13.5t-7.5 -8.5l-9 -9t-8 -9.5t-2 -8.5 q0 -21 9.5 -31t21.5 -10l35 4q20 3 42.5 6t26.5 4q57 6 97 2q30 -3 43 -22q12 -18 -2 -35q-20 -33 -74 -61q-17 -8 -19 -9l-22 -10q-18 -7 -20 -23t10.5 -27t29.5 -3q2 1 7 2t8 2z" />
<glyph unicode="&#xb9;" horiz-adv-x="415" d="M117 1196l-29 -39q-23 -29 -47 -70q-11 -18 1 -32t30 -11q6 1 11 5t7.5 7.5t7 11.5t6.5 11q11 17 21 29l12 16q3 -45 -10 -168q-15 -134 -6 -204q0 -2 -0.5 -5t-10 -7.5t-28.5 -4.5q-31 0 -45 2q-12 2 -21.5 -6t-9.5 -20q-2 -12 6.5 -21.5t20.5 -9.5q62 -4 258 -4 q12 0 20 8.5t8 20.5t-8 20t-20 8h-72q-41 0 -41 8v15q-6 73 8 194q12 139 9 205v27q-3 22 -13 32q-15 13 -32 9q-3 0 -11 -4q-1 -1 -2 -2.5t-2 -2.5l-6 -6z" />
<glyph unicode="&#xba;" horiz-adv-x="538" d="M381 1137q-26 37 -40 47q-7 5 -17 10q-93 45 -195 -10q-79 -40 -115.5 -122t-38.5 -165q-2 -69 36 -130.5t104 -90.5q111 -45 197 9.5t118 170.5q22 70 7 146t-56 135zM268 1137q72 -20 101 -96.5t4 -168.5q-26 -94 -89 -135.5t-145 -7.5q-73 30 -97 115t13 166 q31 83 78.5 109.5t134.5 17.5z" />
<glyph unicode="&#xbb;" horiz-adv-x="749" d="M375 795l-66 12q-28 7 -30 8q-12 3 -23 -4q-10 -6 -12 -18.5t4 -22.5q2 -4 4 -6t4 -3.5t6.5 -2.5t7.5 -1.5l12 -2l15 -2.5q8 -2 29 -7t36 -8q28 -7 70 -14q20 -5 98 -25l19 -6l16 -6v-6q-1 -6 -14 -35q-34 -64 -160 -207q-59 -65 -61 -69q-12 -15 -5 -30.5t22 -17.5 t28 11q1 1 7.5 8.5t21.5 24.5t32 36q127 144 168 217q31 68 10 105q-3 4 -30 20q-3 1 -15.5 5t-21.5 6q-23 7 -103 26q-24 4 -69 15zM98 739q-12 2 -23 -5t-12 -17q-2 -12 5.5 -23t17.5 -12q117 -23 154 -49q19 -14 6 -37q-10 -20 -72 -82q-89 -89 -111 -117 q-12 -15 -5 -30.5t22 -17.5t29 11q24 27 108 111q65 65 82 98q31 71 -23 109q-46 37 -178 61z" />
<glyph unicode="&#xbc;" horiz-adv-x="722" d="M389 809l-391 -764q-8 -16 2.5 -29t25.5 -12.5t25 16.5l391 760q7 14 25 52.5t29 60.5q68 151 125 223q12 16 4.5 31.5t-22.5 17t-28 -11.5q-58 -74 -133 -238q-21 -44 -53 -106zM225 844v10q0 6 -18 223q0 12 -9.5 21.5t-21.5 9.5q-33 0 -45 -14l-65 -82 q-12 -15 -5 -30.5t22 -17.5t28 11q42 57 47 -25q3 -57 6 -80q0 -1 1 -12.5t5 -26.5q-21 -3 -45 -8t-31 -6q-12 0 -19 -10.5t-5 -22.5q0 -12 10 -19t22 -5q87 12 97 14q34 5 94 10q12 0 20.5 9.5t8.5 21.5q-2 12 -11.5 20t-21.5 7h-21q-43 -3 -43 2zM455 475q-29 -29 -84 -75 t-68 -60q-12 -12 -22 -27q-8 -12 -9 -14q0 -1 -1 -4t-1 -4q-6 -23 19 -37q3 -2 6 -3t6.5 -1.5t5.5 -1.5q10 -2 35 -2q33 -3 90 0q38 0 35 -43q-4 -86 -4 -107q0 -12 8.5 -20t20.5 -8t20 8t8 20q0 42 6 115q3 38 33 41q21 0 27 2q12 0 20 10t8 23q-2 10 -12 17.5t-20 6.5h-4 q-9 0 -13 0.5t-12 3.5t-11.5 12.5t-2.5 24.5q2 29 2 80q0 2 1 14.5t1 24.5q1 31 -5.5 44t-20.5 7.5t-28 -16.5t-34 -31zM412 362l18 15q11 10 16 13.5t13 7.5t11.5 0.5t6.5 -14t2 -30.5v-10q-3 -39 -26 -39l-23 -2h-8q-54 0 -54 14q0 6 11 17q6 4 17 14t16 14z" />
<glyph unicode="&#xbd;" horiz-adv-x="804" d="M346 700l-59 -122q-4 -8 -12.5 -25.5t-24.5 -52t-29 -62.5q-11 -24 -28 -62t-22 -49t-15.5 -32.5t-19 -35t-21 -33.5t-31.5 -50q-65 -95 -86 -139q-8 -17 2.5 -30.5t25.5 -13.5t25 15q23 44 82 135q20 30 33 51.5t21.5 36t19.5 37t16.5 34.5t22.5 49.5t28 62.5l66 139 q75 164 129 254l68 115q63 113 165 237q12 15 5 30.5t-22 17.5t-28 -11q-108 -131 -172 -242l-67 -118q-16 -26 -72 -136zM246 893v-33q-3 21 -6 117q-2 50 -11 119q0 6 -4 14q-15 19 -43 23q-10 0 -20 -7l-39 -26q-16 -11 -13.5 -28t16 -23.5t30.5 2.5q5 3 9.5 0.5t8 -11.5 t4.5 -22q0 -7 1 -22t1 -23q7 -111 8 -117q0 -2 -20 -2q-3 0 -10.5 1t-10.5 1q-12 1 -21 -7t-9 -20q-2 -12 6 -21t20 -9q58 -4 164 -4q12 0 20.5 8t8.5 20t-8.5 20.5t-20.5 8.5h-28q-33 0 -33 41zM354 154l-24 -13q-13 -8 -17.5 -22.5t4.5 -28.5q14 -18 62 -22q18 -2 76 -2 q123 6 129 6q12 0 20 8t8 20t-8 20.5t-20 8.5q-23 0 -54 -2t-75 -2q-13 0 -15.5 6.5t6.5 15.5q7 7 23 27q24 30 44 64t35.5 74t14.5 74t-18 63q-35 41 -74 32q-30 -4 -57.5 -33.5t-69.5 -99.5q-8 -17 2 -31t25.5 -13.5t25.5 15.5q36 67 56 87q17 17 26.5 18.5t16.5 -12.5 q19 -22 -9 -95q-54 -124 -133 -163z" />
<glyph unicode="&#xbe;" horiz-adv-x="757" d="M477 825l-151 -260q-116 -193 -186.5 -325.5t-114.5 -251.5q-5 -17 -21 -19.5t-28 9.5t-5 30q75 205 305 590q93 155 148 256q39 69 65 109q51 81 77 131.5t38 101.5q12 27 37 21q10 -3 16.5 -14t4.5 -23q-23 -96 -123 -252q-39 -62 -62 -103zM172 901h-20 q-24 4 -31.5 27.5t10.5 36.5q5 5 19 12q6 0 10 4q32 35 35 74q0 39 -29 35q-15 -2 -27 -18.5t-12 -43.5q0 -12 -8.5 -20.5t-20.5 -8.5t-20 8.5t-8 20.5q0 49 24.5 82t63.5 39t67 -21t27 -73q0 -35 -23 -76q-14 -27 2 -57q30 -66 9 -119q-18 -45 -56 -67t-80 -9 q-43 14 -71 68q-8 16 2 28.5t26.5 12t24.5 -16.5q18 -34 40 -38.5t37.5 9.5t22.5 33q8 22 -2 56q-6 21 -6 24h-4zM481 166v-12q-6 -49 -6 -80q0 -12 -8.5 -20.5t-20.5 -8.5t-20 8.5t-8 20.5q0 16 4 86q3 33 -41 30q-87 -7 -121 13q-20 12 -23.5 29t6 34.5t27.5 34.5 q15 13 45 40.5t44 40t35 30t36 27.5t29 16q22 9 27 -26q1 -10 1 -64q0 -8 2.5 -26.5t2.5 -27.5q0 -50 6 -47q14 2 26 2q12 1 21.5 -6.5t11.5 -19.5q0 -16 -8 -21q-6 -8 -37 -14q-28 -6 -31 -39zM432 293v4q0 69 -51 22q-6 -6 -19.5 -18t-26 -23t-24.5 -22l-4 -4l74 -2h6h4 q4 0 12 0.5t10.5 1t7 2.5t6 6.5t3.5 12.5t2 20z" />
<glyph unicode="&#xbf;" horiz-adv-x="485" d="M303 940l-10 4q-1 0 -6 2t-8 3t-9 2.5t-11 1.5t-12 -0.5t-13 -3t-12.5 -7t-12.5 -10.5l-10 -17q-18 -30 -4.5 -50t45.5 -25q39 -2 86 39q24 17 14 39q-2 5 -4.5 8.5t-7 6t-7 3.5t-9.5 2t-9 2zM287 627q0 12 -9.5 20t-21.5 8q-12 -2 -20 -11t-7 -21q6 -67 9.5 -166.5 t1.5 -143.5q0 -29 -2 -39q0 -6 -2 -10q-6 -9 -37 -12q-74 -10 -86 -16q-120 -46 -105 -295q1 -69 37 -134t92 -100q54 -40 125 -23.5t123 89.5q11 15 3 29.5t-23 15.5t-29 -13q-75 -106 -168 -47q-41 26 -69 78t-33 109q-9 205 67 235q18 7 74 13q61 9 80 40q12 21 12 78 q4 128 -12 316z" />
<glyph unicode="&#xc0;" horiz-adv-x="555" d="M328 1405l-64 51q-52 44 -65 53q-15 11 -30 3t-16 -22.5t13 -27.5q6 -5 26 -21.5t35 -29.5l64 -51q16 -12 31.5 -4.5t17 22t-11.5 27.5zM66 35l32 307q6 58 18 167.5t15 149.5q0 4 33 13q43 14 143 28q43 6 43 -36q1 -18 3.5 -80t4.5 -107q9 -296 43 -463q1 -12 11.5 -18 t23.5 -4q12 1 18.5 12t4.5 23q-32 143 -41 452q-8 309 -29 463q-14 100 -31 170q-32 140 -90 160q-54 22 -91.5 -8t-57.5 -95q-24 -77 -27 -174q-9 -275 -53 -655q-27 -261 -31 -301q-2 -12 6.5 -21.5t20.5 -9.5q12 -2 21.5 6.5t9.5 20.5zM182 737q-46 -10 -43 37 q10 177 11 221q3 85 24 156q15 44 35 61q13 15 32.5 7t32.5 -37q14 -29 27 -84q28 -99 45 -293q3 -39 -47 -45q-52 -7 -117 -23z" />
<glyph unicode="&#xc1;" horiz-adv-x="632" d="M193 1372q-8 -8 -9 -17.5t3.5 -16.5t12 -12t16.5 -4t17 9q95 89 144 123q16 11 13.5 28t-16 23.5t-30.5 -2.5q-55 -39 -151 -131zM408 641v27q15 -277 30.5 -421.5t42.5 -207.5q7 -17 23.5 -18.5t27.5 11.5t3 31q-23 57 -38 199t-30 408q-12 226 -23 348q-17 172 -43 201 q-26 31 -58.5 34.5t-61.5 -14t-58 -51.5q-59 -67 -82.5 -130t-36.5 -149q-12 -68 -22 -252q-3 -81 -6 -116q-12 -126 -29 -260q-27 -219 -29 -242q-2 -12 6.5 -21.5t20.5 -9.5q12 -2 21.5 6.5t9.5 20.5l13 104t17 137q21 170 27 261q1 10 2 33.5t2 35.5q3 34 39 43 q11 2 49 10q115 23 174 23q9 0 9 -41zM219 717l-37 -6q-19 -4 -29 6.5t-8 32.5q11 162 43 266q21 65 80 133q28 33 56 43q19 6 29.5 -7t17.5 -55q8 -34 14 -116q4 -38 16 -232q3 -43 -41 -43h39q-78 0 -180 -22z" />
<glyph unicode="&#xc2;" horiz-adv-x="643" d="M115 1352q-4 -12 2 -23t18 -16q10 -4 21 1.5t16 16.5q25 78 39 105l27 30l6 -6q20 -20 59 -84q8 -16 25.5 -15t25 14t-1.5 30q-42 75 -75.5 106t-69.5 13q-14 -7 -25 -18.5t-23.5 -39t-19.5 -46t-24 -68.5zM399 627v-31q0 -258 17.5 -380.5t79.5 -201.5 q11 -15 27.5 -11.5t22 17.5t-4.5 31q-51 68 -67.5 189.5t-14.5 353.5q2 273 -9 386.5t-61 188.5q-49 73 -103 81t-96 -48q-53 -68 -76.5 -174t-35.5 -287q-6 -91 -8 -122.5t-4.5 -69.5t-6 -66t-5.5 -46.5t-11 -79t-14 -99.5q-21 -159 -23 -225q-2 -12 6.5 -21.5t20.5 -9.5 q12 -1 21 7t9 20q3 78 25 221l29 223q2 18 5.5 56.5t4.5 52.5q3 38 37 43q54 9 192 26q43 6 43 -8v-16zM137 727v10q13 183 33.5 277t67.5 151q22 32 45 27.5t57 -55.5q36 -55 47.5 -147t13.5 -234q0 -41 -41 -41h37q-132 -14 -219 -27q-44 -6 -41 39z" />
<glyph unicode="&#xc3;" horiz-adv-x="645" d="M86 1266q-8 -17 -24 -17.5t-26.5 12t-2.5 29.5q21 49 43.5 76.5t49 36t52.5 4.5t62 -18q27 -11 43 -14.5t33.5 2.5t33.5 26t35 57q8 16 24.5 16.5t26.5 -12t2 -28.5q-33 -65 -67.5 -94t-71.5 -27.5t-82 18.5q-36 15 -54 16.5t-37 -17t-40 -66.5zM537 35q16 -11 13.5 -28 t-16 -23.5t-30.5 2.5q-105 66 -152 479q-1 17 -6.5 72t-7.5 88q-3 40 -47 34q-52 -11 -137 -14q-40 0 -43 -39q-10 -100 -13 -135q-26 -346 -49 -473q-1 -10 -11.5 -17.5t-21.5 -5.5q-12 1 -19 12t-5 23q23 154 49 465q24 313 63 469q26 113 60 195q26 69 61 96q26 19 55 13 t52 -36q29 -44 35 -114q6 -31 6 -107q0 -1 8 -121q12 -249 29 -399q43 -379 127 -436zM293 727q38 0 35 37q0 15 -13 223q0 1 -4 51q0 104 -28 138q-8 14 -15 14q-4 0 -6 -2q-20 -14 -45 -72q-50 -123 -90 -368q-6 -46 37 -43q1 0 64 11t65 11z" />
<glyph unicode="&#xc4;" d="M350 1419q-12 0 -20 8.5t-8 20.5t8 20.5t20 8.5t21 -9q8 -8 8 -20t-8.5 -20.5t-20.5 -8.5zM205 1409q-12 0 -20.5 8.5t-8.5 20.5t8.5 20t20.5 8t20 -8t8 -20t-8 -20.5t-20 -8.5zM467 29q8 -18 -3 -31t-27 -12t-23 18q-69 162 -60 461q0 5 4 123q3 43 0 43h-235 q-38 -3 -41 -41q-3 -56 -6 -119q-14 -355 -29 -465q0 -12 -10.5 -19t-22.5 -5q-12 0 -19 10t-5 22q11 84 26 459q12 282 54 465q8 33 16 61t19 60t23.5 58t27.5 50.5t32.5 40.5t37.5 26t43.5 9.5t49.5 -12.5q64 -24 82 -148q10 -44 13 -88q0 -23 2 -37t2 -30q6 -111 6 -148 q0 -11 -0.5 -31.5t-1.5 -58t-2 -67.5q-6 -120 -6 -160q-9 -289 53 -434zM133 688h189q40 0 43 41q3 126 -5 195q-2 6 -2 30q-1 6 -2 18.5t-2 16.5q-10 110 -30 154q-13 28 -29 35q-51 23 -95.5 -53t-72.5 -199q-21 -87 -33 -195q-3 -43 39 -43z" />
<glyph unicode="&#xc5;" horiz-adv-x="610" d="M178 1540q-5 -7 -13.5 -16.5t-10.5 -12.5q-4 -8 -4 -16v-10q4 -31 4 -33q0 -4 4 -8q20 -53 60.5 -75.5t76.5 -4.5q38 14 54.5 65t-5.5 93q-25 42 -69 53t-80 -19q-3 -2 -17 -16zM223 1442q-15 24 -6 51q11 32 45 25q20 -7 30.5 -26t0.5 -44q-14 -45 -43 -27q-16 6 -27 21 zM66 565l-23 -192q-6 -47 -8 -101q-10 -126 -37 -211q-8 -17 3 -29.5t27 -10.5t23 20q32 80 43 229q3 80 6 95q24 202 29 243q3 34 37 43q23 8 65 17q15 2 105 12h8q43 3 43 -35v-41q-2 -41 -2 -96q0 -298 74 -469q7 -17 23 -18.5t27 11.5t3 31q-68 157 -68 445q0 60 2 115 v127q-5 134 -18 231q-24 156 -39 199q-27 73 -87 91q-5 2 -11 3q-39 9 -67.5 -3.5t-46 -35t-30 -67.5t-18 -81.5t-12.5 -95.5l-23 -196zM147 756l27 227q15 121 29 160q17 55 44 70t54 -10.5t43 -82.5q9 -29 24 -128.5t19 -205.5q0 -42 -41 -45q-45 -7 -158 -24 q-22 -5 -33 5.5t-8 33.5z" />
<glyph unicode="&#xc6;" horiz-adv-x="876" d="M618 1255l-108 7q-155 3 -203 -19q-42 -22 -86 -162q-24 -86 -43 -174q-13 -62 -82 -323q-57 -208 -82 -328q-6 -27 -20 -127q-6 -56 -21 -123q-2 -12 4.5 -23t18.5 -12q12 -2 23 4.5t12 18.5q13 63 20 127q12 83 21 123l14 65q9 34 45 37h162q41 0 41 -41q1 -26 2 -76 t2 -71q0 -17 -2 -31q-1 -11 -2 -21l-1.5 -15t-0.5 -7q-3 -61 8 -86q12 -32 84 -43q75 -10 242 0q21 1 41.5 2t31 1.5t13.5 0.5q12 0 20 8.5t8 20.5t-8 20t-20 8q-3 0 -13.5 -0.5t-31 -1.5t-41.5 -2l-123 -4q-71 0 -111 6q-24 3 -35 9q-2 0 -4 2q-7 22 2 98v35q0 27 -4 219 l-4 182q-3 40 39 43h207q12 0 20.5 8.5t8.5 20.5t-8.5 20t-20.5 8h-207q-41 0 -41 41q-5 228 2 463q3 39 6 39h6q41 3 109 0q196 -8 201 -8q12 0 20 8.5t8 20.5t-8 20t-20 8q-6 0 -18 0.5t-33.5 1.5t-39.5 2zM291 403h-135q-22 0 -31.5 13t-3.5 33l33 118q54 196 82 328 q20 98 43 168q12 43 32 90q17 -29 17 -70q-5 -224 4 -637q0 -43 -41 -43z" />
<glyph unicode="&#xc7;" horiz-adv-x="585" d="M219 -59l2 4q17 33 -14 55q-20 15 -25 20q-51 48 -95 129t-64 154q-42 154 -15 447q1 14 4.5 48.5t4.5 44t4 36t5 37t5.5 32.5t7.5 37.5t9.5 37t12.5 44.5q29 98 72 154t107 69q67 12 120 -25t70 -110q4 -20 4 -33q0 -27 -2 -41t-2 -26t-8.5 -20.5t-20.5 -8.5t-20 8.5 t-8 20.5q0 22 2 49q3 39 -2 39q-8 36 -32 59.5t-52 29.5t-59 -7t-52 -43q-35 -46 -61 -127.5t-35 -151.5q-3 -21 -16 -158q-22 -292 14 -426q18 -66 58 -140.5t83 -115.5q35 -31 64 -37.5t59.5 17t58.5 82.5q14 31 19 78q0 29 4 45q4 33 6 47q1 12 11.5 18t23.5 4 q12 -1 18 -11t4 -23q-2 -12 -6 -41q0 -25 -4 -45q-6 -60 -22 -97q-57 -118 -135 -133q-4 -2 -11 -2q-12 0 -26 -28l-6 -13q-16 -37 30 -43q41 -3 66 -28q30 -30 12 -86q-8 -18 -27 -37l-16 -13l-10 -8q-16 -12 -84 -51q-17 -8 -31 2t-13.5 25.5t15.5 25.5q69 38 76 43 q33 26 33 33q8 19 2 26.5t-31 8.5q-2 1 -55 4q-49 0 -58 29q-2 10 2 26q1 1 2.5 4t2.5 4q3 9 14 31q1 3 10 21z" />
<glyph unicode="&#xc8;" horiz-adv-x="479" d="M256 1417l-41 29q-53 46 -65 63q-20 20 -42.5 1t-3.5 -42q26 -28 76 -67l41 -33q8 -6 17 -12.5t13.5 -10t6.5 -4.5q16 -12 31.5 -4.5t17 22t-11.5 27.5zM86 121v-15q-3 51 2 207q8 156 8 293q0 39 39 45q48 8 98 25q17 5 19.5 21t-9.5 27.5t-30 4.5q-26 -8 -72 -18 q-45 -6 -45 39q-4 176 -10 258q0 3 -4 43q-12 73 -12 98q0 14 2 20q2 0 4 2q26 9 28 9q42 7 91 10q92 8 157 4q12 -1 21.5 7t11.5 20q0 12 -8.5 21t-20.5 9q-50 6 -136 0.5t-128 -14.5q-31 -9 -39 -12q-24 -8 -33.5 -24.5t-9.5 -51.5q0 -9 4 -55q2 -27 15 -90 q16 -312 2 -687q-1 -19 -2 -63.5t-2 -67.5v-110q2 -4 2 -10q5 -15 6 -17q20 -26 67 -29q54 -8 228 11q12 0 20 10t8 22q-2 11 -12 18.5t-20 6.5q-29 -3 -57 -5t-51.5 -3t-31.5 -2q-50 -3 -77 0q-23 18 -23 43z" />
<glyph unicode="&#xc9;" horiz-adv-x="546" d="M291 1364q-23 -19 -42 3t1 42q58 51 127 102q16 12 31.5 4.5t17 -22t-11.5 -27.5q-82 -62 -123 -102zM59 1239h-12q9 0 24.5 1t24.5 1h17q18 -1 57.5 -2t60.5 -2q168 -4 199 -14q12 -5 18 -15t3 -22q-3 -11 -13.5 -17t-23.5 -4q-9 3 -64 6q-128 11 -227 11q-37 0 -37 -19 v-96q0 -41 2 -66v-63v-29q0 -5 -0.5 -26t-1.5 -65t-2 -91q-1 -23 9.5 -34t31.5 -9q6 2 16 2q2 0 6.5 0.5l13.5 1.5t17 2q20 2 49 2q12 1 21.5 -6.5t11.5 -19.5q0 -12 -8.5 -21.5t-20.5 -9.5q-69 -6 -86 -6q-12 0 -32 -4q-32 -3 -35 -41q-8 -254 -8 -412q0 -71 2 -94 q1 -4 2 -14t2 -13v-2q2 -2 4 -2q12 -3 33 -6q60 -7 209 -4q43 2 71 2q12 0 20.5 -8.5t8.5 -20.5t-8.5 -20t-20.5 -8q-28 0 -71 -2q-64 -3 -111 -3q-39 0 -107 5q-60 11 -77 30q-13 23 -13 62q-4 46 -4 96q0 228 10 473q1 42 4.5 104t4.5 74q2 45 2 88v31q-2 14 -2 61 q0 48 -2 66v139v4l8 17l16 10q2 2 8 2z" />
<glyph unicode="&#xca;" horiz-adv-x="532" d="M354 1348l-57 49q-30 30 -41 40.5t-28 23.5t-29 16q-16 7 -35 -15q-28 -31 -66 -121q-7 -17 -23 -18t-27 12t-3 31q43 100 81.5 140.5t86.5 27.5q35 -9 84 -55q10 -10 41 -37l53 -53q15 -12 10.5 -28t-19 -20t-28.5 7zM12 1165v11q2 2 2 4q0 4 2 6q0 10 19 20q9 6 18 6 q3 1 11 3t16 3.5t16 2.5q54 7 159 13.5t155 2.5q12 0 20 -9.5t8 -21.5q-2 -12 -11 -19.5t-21 -6.5q-48 1 -153.5 -5t-148.5 -12q-19 -3 -32 -6v-10q0 -3 -1 -14t-1 -21v-68q0 -159 4 -282v-41q6 3 14 0q70 -12 139 -6q12 1 21.5 -7t11.5 -20q0 -12 -8.5 -21.5t-20.5 -9.5 q-59 -8 -133 2q-24 -9 -24 -43q1 -93 2 -173t1.5 -116.5t0.5 -37.5v-25v-47q-4 -62 -4 -104q1 -10 8 -19.5t14 -13.5l6 -4q255 -10 289 -10q12 0 20.5 -8.5t8.5 -20.5t-8.5 -20.5t-20.5 -8.5q-155 0 -295 8q-7 1 -20.5 2t-18.5 2q-12 4 -14 5l-8 4q-17 10 -19 26v11 q-2 6 -2 26q0 47 4 125v25l2 47v90q-1 26 -2 90t-2 96q-2 76 -2 197q-1 48 -2 146t-2 136q0 72 2 95v26z" />
<glyph unicode="&#xcb;" d="M299 1405q-12 0 -20.5 8.5t-8.5 20.5t8.5 20t20.5 8t20 -8q9 -9 9 -20q0 -12 -8.5 -20.5t-20.5 -8.5zM123 1403q-12 0 -20.5 8.5t-8.5 20.5t8.5 20t20.5 8t20 -8q9 -9 9 -20q0 -12 -8.5 -20.5t-20.5 -8.5zM440 1251q12 1 21.5 -6.5t11.5 -19.5q0 -12 -8.5 -21.5 t-20.5 -9.5q-12 -3 -84 0q-194 0 -251 -8q-4 -1 -14 -2t-13 -2l-12 -37q1 -6 3.5 -32t4.5 -46q14 -123 14 -147q0 -6 -0.5 -26t-1.5 -59.5t-2 -80.5q0 -45 43 -39q29 2 94 2q12 0 20.5 -8.5t8.5 -20.5t-8.5 -20.5t-20.5 -8.5q-57 0 -100 -6q-37 -3 -37 -43q-5 -346 -4 -415 q3 -59 6 -93q4 -31 6 -39q2 0 4 -2q19 -6 31 -8q55 -9 211 -6q45 2 72 2q12 0 20 -8.5t8 -20.5t-8 -20t-20 -8q-27 0 -72 -2q-156 -7 -221 6q-61 10 -78 41q-16 37 -16 158q-7 147 4 534q1 46 2 91.5t1.5 69t0.5 30.5l-2 15q-2 15 -6.5 50.5t-8.5 75.5q-14 116 -2 145 q11 28 84 39q63 8 258 8q47 -2 82 -2z" />
<glyph unicode="&#xcc;" horiz-adv-x="411" d="M66 1524q-16 11 -31 2.5t-15.5 -23.5t13.5 -28q1 0 55 -43q43 -36 59 -48q15 -11 30 -3t16 23.5t-13 29.5q-8 5 -55 43q-57 45 -59 47zM12 1255q-12 0 -20 -9t-6 -21q0 -12 9 -20t21 -7q14 2 45 2q22 0 31 -4.5t10 -14.5t0 -24q-22 -492 21 -1042q1 -14 1.5 -23.5t-9 -14 t-31.5 -3.5q-12 1 -24.5 1t-25.5 -0.5t-18 -0.5q-12 0 -20 -8.5t-8 -20.5t8 -20.5t20 -8.5q77 0 138 -2q118 -4 135 -4q12 0 20 8.5t8 20.5t-8 20.5t-20 8.5h-64q-25 1 -33 11t-8 32q-45 517 -22 1048q2 28 9 34q9 7 34 7q53 0 80 -2q12 -1 21 7t11 20q0 12 -8 21t-20 9 q-145 6 -277 0z" />
<glyph unicode="&#xcd;" horiz-adv-x="432" d="M203 1368q-23 -19 -42 3t1 42q1 1 7.5 6.5t20.5 17t29 25.5q22 17 51 51q20 20 42 1.5t3 -41.5q-34 -34 -57 -54q-35 -31 -55 -51zM96 1188h-4q-12 -2 -22 5t-11 19q-2 12 5.5 22t19.5 11q114 15 205 6q12 0 20 -9t8 -21q-2 -12 -11 -20t-21 -7q-55 4 -71.5 2t-16.5 -20 q0 -3 -7 -332q-6 -289 1.5 -468.5t33.5 -324.5v-8q0 -7 41 -10q7 -1 22 -2t21 -2q12 0 20.5 -9.5t8.5 -21.5q-2 -12 -11.5 -20t-21.5 -7q-34 3 -115 6q-74 3 -118 9q-12 0 -19.5 10t-5.5 22q0 12 10.5 19.5t22.5 5.5q47 -4 86 -6q-5 40 -6 47q-23 142 -29 319.5t2 442.5 l6 303q1 35 -3 38q-9 2 -40 1z" />
<glyph unicode="&#xce;" horiz-adv-x="548" d="M221 1403l-12 12q-2 -2 -6 -10q-3 -4 -8 -15t-16 -34t-21 -43q-8 -17 -24.5 -17.5t-27 12t-2.5 29.5l48 99q24 43 55 43q22 0 57 -35l64 -64q20 -20 1 -42t-42 -3zM248 59l2 -6q0 -4 39 -4q7 0 24 -1t27 -1q78 -4 84 -4q12 0 20.5 -8.5t8.5 -20.5t-8.5 -20t-20.5 -8 q-49 0 -86 2t-88 2q-98 0 -160 -21q-10 -4 -21 2.5t-16 18.5q-4 10 2.5 21t18.5 16q57 17 116 20q-1 4 -2 14t-2 15q-12 103 -6 305q2 70 2 141q0 181 -2 324q-4 238 -4 284q0 16 -1.5 22.5t-10.5 12.5t-29 6q-61 0 -86 -2q-12 -2 -21.5 6.5t-9.5 20.5q-2 12 6.5 21.5 t20.5 9.5q64 3 172 0q159 -6 170 -6q12 0 20.5 -8.5t8.5 -20.5t-8.5 -20.5t-20.5 -8.5q-62 0 -111 2q-13 0 -21 -1t-12.5 -2t-7 -6.5t-3 -6.5t0 -11t0.5 -12q0 -31 1 -72.5t2 -102t2 -105.5q2 -143 2 -324q0 -75 -2 -145q-6 -214 10 -318z" />
<glyph unicode="&#xcf;" horiz-adv-x="555" d="M285 1448q-8 8 -21 8q-12 0 -20 -8.5t-8 -20.5t8 -20t20 -8t20.5 8t8.5 20q0 13 -8 21zM90 1440q-8 8 -20 8t-20.5 -8.5t-8.5 -20.5t8.5 -20t20.5 -8t20 8t8 20q0 13 -8 21zM248 1188h59q12 0 20.5 8.5t8.5 20.5t-8.5 20t-20.5 8q-36 0 -69 2h-80q-86 0 -152 -14 q-12 -1 -18 -11.5t-4 -23.5q1 -12 11 -18t23 -4q29 6 88 10q37 2 40 -16q1 -4 1 -23q1 -66 19 -268q5 -138 2 -281q-15 -302 20 -532q2 -15 2 -24.5t-8.5 -15t-29.5 -6.5q-37 -2 -97 -10q-12 -1 -19 -11t-5 -22q1 -12 10.5 -19t21.5 -5q208 27 361 -2q13 -2 23.5 4t11.5 18 q2 12 -4.5 23t-18.5 12q-91 17 -141 17q-11 0 -18.5 1.5t-11.5 2.5t-6.5 6.5t-3 7t-1 11.5t-0.5 12q-7 62 -17 142.5t-12.5 110.5t-2.5 98t5 177q4 151 -4 289q0 14 -10 137q-6 76 -6 127q0 4 -1 14t0 12.5t4.5 7.5t12.5 6t25 1z" />
<glyph unicode="&#xd0;" horiz-adv-x="700" d="M111 1141v-121q0 -114 2 -180v-115q0 -22 -7.5 -31t-33.5 -10q-66 -7 -99 -14q-12 -1 -18 -11.5t-4 -23.5q1 -12 12 -18.5t23 -4.5q45 10 86 15q14 1 23 1.5t14 -8.5t6 -32v-84q0 -66 -2 -119q-2 -55 -2 -131q0 -128 16 -250q3 -12 12 -18q15 -11 33 -2q9 5 19 20.5 t18 22.5q152 116 273.5 303.5t121.5 335.5q0 107 -31.5 218t-89.5 195q-70 104 -167.5 145t-215.5 5q-12 -3 -16 -15q-9 -18 0 -30q3 -5 15 -17.5t12 -25.5zM172 504v84q0 4 -0.5 12t0 11t2 8t6 6.5t12.5 3.5t21 2q20 1 46 1.5t42.5 1t26.5 1.5q12 0 20 9.5t8 21.5 q-2 12 -11 19.5t-21 6.5l-109 -4q-15 0 -19.5 0.5t-12 4t-9.5 12.5t-2 26q0 288 -4 414q0 41 39 41q133 0 227 -139q53 -76 83 -180.5t30 -200.5q0 -121 -96.5 -276.5t-225.5 -272.5q-20 -17 -35.5 -10.5t-17.5 32.5q-3 96 0 232v133z" />
<glyph unicode="&#xd1;" horiz-adv-x="636" d="M57 1235q-24 6 -20 35q19 61 45 86.5t54.5 24t74.5 -20.5q47 -27 85 -19.5t83 64.5q11 15 27.5 11.5t22 -17.5t-4.5 -31q-39 -51 -80.5 -70.5t-76 -16t-81.5 23.5q-42 23 -58 15.5t-34 -67.5q-9 -25 -37 -18zM57 1184l-8 14q4 -7 11.5 -15.5t12.5 -12.5l5 -5 q66 -93 205 -334q26 -45 64 -110.5t48 -83.5q28 -43 38 -47q9 -3 13 15q4 16 3 48q-2 57 -25 303q-14 146 -14 236q0 12 8 20.5t20 8.5t20.5 -8.5t8.5 -20.5q0 -97 14 -229q19 -186 23.5 -251.5t5.5 -205.5q0 -290 31 -475q2 -11 -5.5 -21.5t-17.5 -11.5q-12 -2 -23 5.5 t-12 19.5q-23 139 -32 397q0 10 -4.5 21.5t-9.5 17.5l-5 6q-31 47 -201 338l-92 155q-45 75 -49 27v-18q10 -214 -6 -648q-8 -183 -8 -258q0 -12 -8.5 -20t-20.5 -8t-20.5 8t-8.5 20q0 18 7 258q18 456 8 644q-9 150 -29 194q-12 26 13.5 39t39.5 -12z" />
<glyph unicode="&#xd2;" horiz-adv-x="600" d="M330 1456l-62 43q-62 41 -65 43q-26 15 -41 -12q-15 -26 12 -41q25 -14 62 -39q14 -9 36 -24t29 -19q16 -11 30 -1.5t14 25t-15 25.5zM483 954q-8 106 -28 168q-26 77 -76 122.5t-121 45.5q-45 0 -62.5 -5t-45.5 -30q-79 -67 -117.5 -252t-30.5 -415q8 -235 67 -408 t160 -221q32 -17 62 -8.5t55 29t46.5 54t36 66.5t24.5 66q38 141 45 385t-15 403zM418 1034l12 -88l12 -149q9 -159 -4 -333.5t-43 -281.5q-21 -76 -63 -132t-78 -38q-80 36 -132.5 197t-60.5 381q-8 215 27 390t98 230q20 17 29.5 20t42.5 3q98 0 141 -129q14 -42 19 -70z " />
<glyph unicode="&#xd3;" horiz-adv-x="600" d="M170 1423q-20 -20 0.5 -40.5t40.5 -0.5q60 60 123 107q15 11 11.5 27.5t-17.5 22t-31 -4.5q-63 -47 -127 -111zM494 967q-9 66 -12.5 88.5t-12 51.5t-23.5 60q-26 54 -64 85t-87 34.5t-105 -29.5q-175 -101 -194 -505q-6 -115 1.5 -223.5t31.5 -213t74.5 -182.5 t123.5 -110q26 -12 54 -17.5t57.5 0t48.5 23.5q78 72 105 428q17 255 10 403q-3 54 -8 107zM446 827q-3 -218 -14 -364q-22 -329 -86 -393q-13 -10 -40 -8t-54 14q-79 36 -127.5 148t-64 245t-7.5 279q26 375 166 460q112 60 176 -67q25 -48 38 -158t13 -156z" />
<glyph unicode="&#xd4;" horiz-adv-x="665" d="M440 1409l-55 49q-4 4 -17 16t-17 15.5t-15 12.5t-16 11.5t-14 7.5t-16.5 7t-15.5 2q-32 0 -54 -28.5t-71 -120.5q-7 -13 -10 -19q-12 -26 14 -40t40 11q52 103 61 115l7.5 5t16 7.5t15.5 -0.5q2 -2 7.5 -6.5t8.5 -7.5q19 -19 37 -33l57 -49q15 -12 30.5 -5t17.5 22 t-11 28zM31 936l-13 -66q-12 -62 -12 -137q-4 -50 -4 -137q-9 -211 41 -350q24 -63 67 -122t93 -95q61 -45 130 -38t124 72q37 43 62 167.5t32.5 256t11.5 253t-2 157.5q0 90 -29 193q-19 73 -55.5 117.5t-78 57.5t-87 7.5t-85.5 -28t-70 -54.5q-57 -68 -80 -121 q-3 -8 -13.5 -32t-13.5 -33t-8.5 -28.5t-9.5 -39.5zM512 745q0 -526 -100 -645q-79 -91 -174 -22q-43 29 -81 81t-57 107q-47 130 -41 326q0 9 3 69.5t4 69.5q0 3 0.5 11t1.5 23.5t2 29.5q3 52 6 67q1 4 2.5 12.5t4.5 23.5t5 26q5 38 16 63q3 6 11.5 24.5t13.5 30.5 q15 43 72 107q56 62 127 65q53 2 90.5 -34t57.5 -103t29 -149t7 -183z" />
<glyph unicode="&#xd5;" horiz-adv-x="708" d="M113 1337q-8 -16 2 -28.5t26.5 -12t24.5 16.5q33 65 64.5 79.5t72.5 -3.5q31 -12 50 -17t41.5 -7t38 4.5t33 22t34.5 42.5q11 16 2.5 30.5t-23.5 15t-28 -13.5q-25 -39 -49 -41.5t-80 19.5q-42 13 -77 11.5t-68.5 -30t-63.5 -88.5zM594 1001q-8 70 -37 127 q-50 93 -117.5 125t-142.5 2q-60 -23 -114 -83.5t-87 -137.5q-82 -198 -67 -520q4 -86 22 -162.5t51 -142.5t87.5 -111t125.5 -61q107 -21 158 12q98 67 125 357q14 137 14 385q0 45 -18 210zM555 831v-98q-3 -355 -51 -524q-26 -87 -61.5 -110.5t-114.5 -4.5 q-111 25 -172.5 142.5t-69.5 281.5q-15 299 64 492q29 69 74.5 120.5t94.5 71.5q109 41 185 -102q18 -36 26 -72q9 -42 17 -106t8 -91z" />
<glyph unicode="&#xd6;" horiz-adv-x="677" d="M399 1470q-9 9 -20 9q-12 0 -20.5 -8.5t-8.5 -20.5t8.5 -20.5t20.5 -8.5t20.5 8.5t8.5 20.5q0 11 -9 20zM266 1462q-8 8 -20 8t-20.5 -8t-8.5 -20t8.5 -20.5t20.5 -8.5t20 8.5t8 20.5t-8 20zM461 1180q-50 64 -107.5 88.5t-117.5 0.5t-107 -100q-59 -96 -94 -261 t-35 -341q2 -199 53.5 -348t153.5 -213q40 -25 88 -38t84 -3q137 43 184 402q15 116 20 245.5t-3 192.5q-16 238 -119 375zM524 729q6 -173 -16 -338.5t-59 -255.5q-37 -97 -87 -112q-20 -6 -55.5 4t-66.5 28q-89 54 -135 189t-46 323q-1 167 32 326t87 244q27 44 55 65 t57.5 18t58.5 -21t65 -54q29 -29 51.5 -93t35 -141.5t17 -114t6.5 -67.5z" />
<glyph unicode="&#xd7;" horiz-adv-x="555" d="M190 614l-108 -143q-12 -16 -4.5 -31.5t22 -17t27.5 11.5l96 127q17 22 24 26t13.5 0t22.5 -26q57 -78 127 -143q23 -19 42 3t-1 42q-50 47 -158 178q-4 7 16 35l86 110q17 25 -6.5 42.5t-42.5 -5.5l-70 -94q-5 -7 -8.5 -11.5t-7 -8t-5.5 -5t-5 -1.5h-4.5t-5.5 3t-5.5 5 t-7 7.5l-8.5 8.5q-57 57 -98 90q-16 12 -31.5 4.5t-17 -22t11.5 -27.5q25 -19 104 -98q23 -29 2 -60z" />
<glyph unicode="&#xd8;" horiz-adv-x="661" d="M535 973l-13 51q-23 73 -52.5 113t-84.5 88q-58 49 -123 44.5t-119 -69.5q-113 -137 -137 -502q-11 -157 4 -298t51 -222q35 -78 87 -131t112 -70q68 -17 127.5 21.5t101.5 130.5q34 71 52.5 240t16 341t-22.5 263zM397 795l-69 -99q-40 -59 -61.5 -85.5t-88.5 -102.5 q-57 -67 -61 -72q-32 -43 -41 -41t-10 56q-4 155 0 243q11 157 43 283.5t79 185.5q41 47 80 47q36 1 77.5 -31t72.5 -85q27 -46 35 -77t16 -112q1 -7 -3.5 -17t-14.5 -24t-17.5 -23.5t-21 -26t-15.5 -19.5zM453 768q19 25 37 24t18 -42q0 -168 -17 -341.5t-55 -254.5 q-64 -144 -162 -119q-43 9 -86 55q-67 70 -94 172q-8 27 6 53q39 61 138 172q67 76 137 175q53 75 78 106z" />
<glyph unicode="&#xd9;" horiz-adv-x="552" d="M199 1464q-12 13 -28 8.5t-20 -19t7 -30.5q1 -2 45 -51q16 -21 53 -53q13 -12 28.5 -5.5t18.5 21.5t-10 29q-11 9 -45 47l-24 26t-17.5 19t-7.5 8zM100 1202q4 10 -1.5 21t-16.5 16q-12 4 -23 -2t-16 -18q-35 -122 -22 -475.5t53 -495.5q11 -37 42 -88t66 -88 q119 -119 205 -27q41 46 57 217q13 143 13 348q0 144 -6 361q-2 58 -3.5 119t-2.5 88.5t-1 35.5q0 12 -8 20.5t-20 8.5t-20.5 -8.5t-8.5 -20.5q0 -28 6 -243q6 -217 6 -361q0 -222 -14 -342q-6 -76 -18 -123q-8 -42 -25 -59q-44 -46 -117 27q-30 30 -58 76t-36 75 q-38 134 -51.5 480.5t20.5 457.5z" />
<glyph unicode="&#xda;" horiz-adv-x="544" d="M172 1362q-11 -15 -3 -30t23 -16t29 13q40 58 146 144q15 12 11.5 28.5t-18 21.5t-30.5 -5q-107 -85 -158 -156zM98 1204q8 17 -2.5 30t-26.5 12.5t-24 -17.5q-17 -37 -27 -189q-9 -117 -1.5 -419.5t34.5 -393.5q25 -85 70 -153q47 -68 104 -82t105.5 26.5t72.5 124.5 q13 48 27.5 149t15.5 179q2 128 -4 285q-10 176 -6 325q2 84 2 162q0 12 -8 20.5t-20 8.5t-20.5 -8.5t-8.5 -20.5q0 -11 -0.5 -31.5t-1.5 -59t-2 -71.5q-3 -162 -2.5 -172.5t8.5 -156.5q2 -30 3.5 -64t2.5 -55.5t2 -34.5q0 -147 -14 -270q-21 -147 -41.5 -205.5t-67.5 -71.5 q-48 -13 -90 43.5t-69 149.5q-26 83 -33 380.5t2 411.5q3 78 8 111q6 41 12 57z" />
<glyph unicode="&#xdb;" horiz-adv-x="557" d="M348 1376l-55 66q-33 33 -60 43q-45 14 -73 -25q-20 -33 -29 -104q-2 -12 5.5 -22t19.5 -11t21 6t11 19q9 58 21 79q3 3 4 3q11 -3 37 -29q13 -12 53 -62q12 -15 28.5 -11.5t21.5 18t-5 30.5zM92 1225q1 11 -6.5 21t-17.5 11q-13 0 -23 -8t-10 -20q-3 -40 0 -103 q6 -74 6 -94v-147q-2 -186 4 -322q8 -167 47 -321q10 -37 20.5 -69.5t26.5 -67t34 -58t42 -43t50.5 -22t60.5 5.5q38 15 61 59q26 49 41 174q6 48 6 64q14 140 17 182q6 123 6 418q6 69 6 166t-10 161q-1 12 -11 19.5t-22 5.5q-12 -1 -19.5 -11t-5.5 -22q8 -65 8 -153 q0 -47 -2 -86t-2 -80q-2 -27 -2 -180q-3 -248 -18 -388q-4 -36 -4 -38q0 -3 -1 -8.5t-1 -8.5q-1 -6 -2 -18.5t-2 -16.5q-9 -103 -35 -153q-13 -26 -29 -29q-47 -17 -87 45t-68 168q-38 147 -46 309q-8 130 -6 316v149q0 6 -0.5 19t-1.5 38t-2 44q-4 70 -2 92z" />
<glyph unicode="&#xdc;" horiz-adv-x="540" d="M311 1448q-8 8 -20 8t-20.5 -8.5t-8.5 -20.5t8.5 -20t20.5 -8t20 8t8 20q0 13 -8 21zM186 1440q-8 8 -20 8t-20.5 -8.5t-8.5 -20.5t8.5 -20t20.5 -8t20.5 8t8.5 20t-9 21zM92 1214q1 12 -6.5 21.5t-19.5 11.5q-12 0 -21.5 -8t-9.5 -20q-47 -533 35 -908q17 -84 51 -172 q58 -134 135 -137q84 -8 133 129q27 79 35 172q17 160 20 311q4 222 -16 592q0 12 -9.5 20.5t-21.5 8.5q-12 -2 -19.5 -11.5t-6.5 -21.5q9 -197 12 -305q12 -305 -16 -586q-12 -95 -33 -161q-16 -49 -37 -70q-15 -21 -37 -21q-41 3 -84 103q-28 66 -49 162q-81 378 -35 890z " />
<glyph unicode="&#xdd;" horiz-adv-x="600" d="M350 1360l15 24q26 44 36 56q11 16 2.5 31t-23.5 15.5t-28 -13.5l-16 -27l-6 -10q-22 -31 -23 -33t-4 -7t-4 -7q-23 -49 -29 -72q-2 -11 5 -22.5t18 -12.5q14 0 20 4q7 4 11 9t8 18t4 14q10 25 14 33zM401 702l39 129q28 95 35 138q29 149 29 225q0 12 -8.5 20.5 t-20.5 8.5t-20.5 -8.5t-8.5 -20.5q0 -139 -81 -420q-6 -20 -8 -26t-9 -14t-16.5 0t-24.5 30q-37 58 -102 184q-99 182 -156 262q-11 16 -28 14t-23.5 -15.5t2.5 -30.5q51 -70 152 -258q93 -175 155 -263q1 -2 2.5 -6.5t4.5 -17t-1 -21.5q-72 -203 -137 -376q-3 -8 -31 -74 q-48 -106 -59 -182q-2 -12 5.5 -22t19.5 -11q12 -2 21.5 5t10.5 19q2 12 4 22.5t6.5 23.5t6.5 20t9 24t9 21.5t11.5 26.5t11.5 26l32 80q0 4 35 100l45 123l43 123q29 80 45 141z" />
<glyph unicode="&#xde;" horiz-adv-x="673" d="M147 365q0 40 12 39q1 0 3 -1q10 -3 20 0q38 13 86 25q85 22 101 27q128 40 180 104q23 29 27 56.5t-5 66.5q-11 56 -38 93.5t-61.5 55.5t-84 23t-97 0.5t-108.5 -16.5q-42 -6 -45 36q-8 165 -28 316q-1 12 -11 19t-22 5t-19 -11t-6 -21q29 -223 35 -570q6 -402 23 -575 q0 -12 9 -20t21 -7q12 0 20.5 9.5t6.5 21.5q-13 148 -19 324zM154 457q-2 -2 -4 4l-3 31v45q-2 39 -2 77q-2 43 -2 119q-3 36 37 45q92 17 161 19.5t114 -28t59 -99.5q6 -31 4 -43.5t-14 -30.5q-37 -48 -152 -84q-32 -11 -96 -27q-62 -14 -94 -24z" />
<glyph unicode="&#xdf;" horiz-adv-x="745" d="M299 711l-25 -9q-6 -2 -14 -10t-8.5 -20.5t6.5 -20.5q28 -31 82 -16q23 5 27 6q26 6 49 -2q59 -27 88 -66q74 -83 86 -206q13 -129 -55.5 -204t-231.5 -112q-12 -1 -18 -11.5t-4 -23.5q1 -12 11 -18t23 -4q184 42 267.5 133t66.5 246q-13 114 -64 192t-120 115 q-39 20 -4 47q65 54 106 141q23 58 23 111q0 61 -21 113q-21 56 -65.5 95.5t-104.5 49.5q-74 14 -145 -17t-121.5 -91t-83 -137t-37.5 -154q-2 -49 -2 -95q0 -15 15 -188q22 -371 22 -561q0 -12 8.5 -20.5t20.5 -8.5t20 8.5t8 20.5q0 194 -22 565q0 21 -6 94q-6 71 -6 92v89 q11 142 106 253.5t211 92.5q58 -11 98 -59.5t46 -108t-17 -119.5q-19 -48 -64 -94t-92 -70q-24 -10 -59 -18z" />
<glyph unicode="&#xe0;" horiz-adv-x="593" d="M229 1493q-12 16 -29 13t-23 -16.5t3 -29.5q43 -58 119 -104q16 -11 30 -1.5t14 25t-15 25.5q-63 40 -99 88zM334 598v-47q-5 -252 19.5 -387.5t99.5 -183.5q16 -11 30.5 -2.5t15 23.5t-13.5 28q-57 35 -76.5 158t-17.5 364q2 382 -3 453q-8 111 -45 186q-1 3 -3 6 q-21 38 -45.5 55.5t-48 13t-46 -23.5t-42.5 -51q-24 -40 -46.5 -98.5t-29.5 -92.5q-41 -228 -51 -675q-5 -161 -13 -308q-1 -12 7 -21t20 -9q12 -2 21.5 6t9.5 20q7 92 14 326q3 197 8 276q3 40 45 37q75 -10 172 -10q19 -12 19 -43zM111 715h-2q-3 0 0 43q12 121 30 229 q7 33 26.5 84.5t41.5 87.5q18 29 30.5 39t24 3.5t25.5 -34.5q32 -60 40.5 -161.5t8.5 -264.5q0 -45 -6 -45q-146 3 -219 19z" />
<glyph unicode="&#xe1;" d="M231 1411l-51 -41q-15 -12 -30.5 -5t-17.5 22t11 28q30 25 50 41l59 47q27 21 49 43q23 19 42 -3t-1 -42q-15 -15 -51 -43zM362 637v-27q0 23 -8 31.5t-35 5.5q-103 -11 -192 -2q-25 3 -34 -6.5t-9 -32.5q0 -207 -4 -293q0 -25 -6 -92q-11 -131 8 -198q4 -29 -21 -35 q-27 -7 -36 18q-22 87 -11 221q6 76 9 90q2 35 2 355q0 216 18 360q12 100 76 176q41 47 88.5 53t103.5 -38q65 -62 88 -198.5t23 -381.5q0 -332 6 -435t39 -179q8 -18 -3 -31t-27 -12t-23 18q-36 85 -44 199t-8 434zM311 707q34 3 42.5 13t8.5 32q-3 171 -23 277t-69 149 q-55 52 -106 -9q-55 -65 -64 -145q-16 -152 -16 -274q0 -27 7.5 -34.5t29.5 -10.5q89 -6 190 2z" />
<glyph unicode="&#xe2;" horiz-adv-x="555" d="M358 1434l-57 59q-39 31 -59 35q-35 7 -63.5 -18t-59.5 -83q-8 -16 2 -28.5t26.5 -12t24.5 16.5q19 43 41 61q15 8 31 0q11 -5 18 -11.5t14 -17t11 -14.5t12.5 -13.5t13.5 -14.5q20 -20 42 -1t3 42zM23 20q1 -12 11 -18t23 -4q12 1 18.5 12t4.5 23q-8 57 -8 90q0 32 8 92 q6 67 6 98q8 210 10 291q3 41 45 41q70 -2 158 -2q41 0 41 -41q0 -237 11.5 -364.5t51.5 -210.5q8 -17 24.5 -17.5t27 12t2.5 29.5q-37 81 -47.5 204.5t-10.5 412.5q0 261 -14 379t-66 165q-37 35 -71.5 39t-61.5 -17.5t-47 -62.5q-55 -99 -84 -356q-15 -138 -20 -338 q-3 -106 -15 -254q-7 -80 -6 -103t9 -100zM147 702q-44 0 -41 43q13 135 36.5 243.5t47.5 156.5q21 39 40 45t49 -19q35 -33 47 -132.5t14 -293.5q0 -40 -14 -40q-47 -3 -179 -3z" />
<glyph unicode="&#xe3;" horiz-adv-x="563" d="M39 1358q-8 -17 2.5 -30t26.5 -12.5t24 17.5q25 58 47.5 65.5t57.5 -20.5q30 -19 52 -26.5t44 -4t40 26.5t34 66q7 29 -20 38t-38 -18q-18 -51 -31.5 -54.5t-50.5 24.5q-29 19 -53.5 25.5t-48.5 1.5t-45.5 -30t-40.5 -69zM-4 29q-2 -12 6.5 -21.5t20.5 -9.5q12 -1 21 7 t9 20q12 132 21 467v104q3 36 30 47q59 28 207 31q41 0 41 -43q1 -35 1.5 -78.5t1 -71t1.5 -45.5q2 -82 16.5 -212.5t37.5 -221.5q1 -11 12 -17.5t24 -4.5q10 1 16.5 12t4.5 22q-55 230 -55 633q-3 206 -11 297q-3 58 -13 108.5t-28.5 99.5t-51.5 78.5t-77 31.5 q-47 3 -81.5 -21.5t-55.5 -71.5t-32 -95t-19 -111q-23 -196 -29 -469q-6 -342 -18 -465zM125 711q-22 -9 -34 -4.5t-9 38.5q24 293 55 371q23 59 56.5 79t66 -4t53.5 -85q8 -24 14 -50.5t9.5 -64.5t5 -60t4.5 -78.5t4 -78.5q1 -12 -2.5 -20t-7 -12.5t-15 -6.5t-18.5 -2.5 t-26 -1.5q-97 -6 -156 -20z" />
<glyph unicode="&#xe4;" horiz-adv-x="552" d="M324 1452q-8 8 -21 8q-12 0 -20.5 -8t-8.5 -20t8.5 -20.5t20.5 -8.5t20.5 8.5t8.5 20.5t-8 20zM199 1440q-8 8 -21 8q-12 0 -20 -8.5t-8 -20.5t8 -20t20 -8t20.5 8t8.5 20q0 13 -8 21zM84 635l2 10q77 9 213 12q41 0 41 -26v-29v-67q-2 -20 -2 -58q-3 -322 65 -432 q8 -16 26 -15t25.5 14t-1.5 30q-61 106 -58 401q6 147 6 250q0 143 -12 209q-1 4 -8 70q-6 55 -12 88q-27 121 -95 145q-37 14 -69.5 1t-58 -40t-45 -66.5t-32 -78.5t-18.5 -76q-28 -148 -31 -434q-3 -130 -6 -197q-2 -23 -2 -100q-3 -131 -26 -207q-4 -10 2 -21t18 -16 q10 -4 21 2.5t16 18.5q13 41 20 100q9 79 9 219q2 12 8 260q2 23 4 33zM127 709q-23 -2 -32.5 5.5t-8.5 35.5q5 107 23 219q13 84 57 156t88 55q23 -7 38.5 -42.5t20.5 -64.5t11 -76q6 -66 8 -71q10 -68 10 -170q0 -28 -12 -34.5t-45 -6.5q-144 -5 -158 -6z" />
<glyph unicode="&#xe5;" horiz-adv-x="614" d="M205 1456v-4q0 -6 4 -22q2 -13 14 -33q27 -40 82 -37q50 2 83.5 40t23.5 93q-7 47 -40 74t-75 22q-37 -6 -60.5 -34.5t-29.5 -75.5q-2 -8 -2 -23zM264 1454v2q0 14 6 41q9 30 33 33q18 2 32.5 -10t18.5 -35q4 -28 -11.5 -47t-41.5 -21q-33 0 -37 37zM377 659v-18 q-8 -164 -10 -229q-5 -116 21 -224.5t79 -173.5q12 -15 28.5 -11.5t21.5 18t-5 30.5q-46 58 -68 156q-6 27 -10 52.5t-6 56t-2.5 51t0.5 60.5t2 59.5t4 72.5t4 78q6 97 8 147.5t3 118t-3.5 104t-13.5 78.5t-25 70.5t-40 52.5q-59 57 -112 50t-97 -66q-30 -41 -49.5 -89.5 t-29.5 -108.5t-14 -98.5t-8 -107.5q-19 -256 -26 -456q-5 -59 -17 -162q-10 -113 -10 -166q0 -12 8.5 -20.5t20.5 -8.5t20 8.5t8 20.5q0 53 13 160q14 149 24 330q3 74 6 120q3 38 41 41q15 0 90 1t134 1q8 0 10 2zM152 715q-14 -1 -23 -0.5t-13 10t-3 31.5q7 153 25 245 t65 156q31 38 57 41.5t64 -31.5q47 -49 59.5 -157t-0.5 -252q0 -32 -2.5 -37.5t-13.5 -5.5h-215z" />
<glyph unicode="&#xe6;" horiz-adv-x="862" d="M682 168q7 18 23 19.5t27 -11t3 -29.5q-37 -91 -91.5 -137.5t-143.5 -52.5q-93 -9 -135 45q0 3 -5 8q-1 3 -38 -18q-52 -31 -109 -34.5t-102 24.5t-58 84q-20 79 17.5 177.5t105.5 149.5q83 65 162 10q2 0 2 -2q5 129 -17.5 187.5t-86.5 58.5q-79 0 -150 -76 q-13 -15 -27 -43q-33 -59 -61 -45q-27 15 -12 41q5 9 13 23.5t11.5 19.5t7.5 12.5t9 12.5t8 9.5t12 12.5t14 13t21 20q64 58 154 58q70 0 112 -48q24 -26 49 -4q43 37 105 60t128.5 17.5t104.5 -50.5q55 -74 16 -181t-137 -163q-81 -47 -174 -29q-47 10 -47 -35 q-8 -84 -4 -145t25 -88q20 -30 87 -24t109 42q43 40 72 111zM403 565q-10 -18 -8 -43q7 -59 4 -127q0 -17 33 -26q87 -22 159 20.5t103 122.5q33 90 -10 135t-156 10q-98 -28 -125 -92zM330 74q2 2 4 2q0 12 -2 35q-2 20 -2 67q0 41 8 164q-6 2 -13.5 5t-12 4.5t-5.5 2.5h-2 q-42 29 -94.5 -10t-83.5 -121q-33 -82 -18 -141.5t75 -65.5q82 -6 146 58z" />
<glyph unicode="&#xe7;" d="M295 -43l-14 -23q-11 -32 28 -45q46 -11 70 -30q25 -20 31.5 -50.5t-13.5 -60.5t-65 -43q-20 -7 -92 -10q-12 -2 -21.5 6t-9.5 20q-2 12 6.5 21.5t20.5 9.5q89 6 106 21q6 5 6 15.5t-3 17.5l-3 8q-20 15 -98 28q-4 1 -8.5 1.5t-7.5 1t-5 1.5q-1 0 -3 1t-3 1q-15 0 -22 19 q-4 15 -2 22l4 9q1 2 2 5t2 5q3 9 14 31q8 12 12 20q18 34 -16 55q-6 3 -17 11.5t-16 11.5q-77 61 -116.5 138t-63.5 208q-39 200 -10 471q8 69 50.5 172t96.5 172q49 63 100 84.5t102 -8t91 -113.5q25 -53 32 -84t1 -76q0 -12 -10 -20t-21 -6q-12 0 -20.5 10t-6.5 21 q4 37 -1.5 60.5t-26.5 70.5q-47 96 -96 96q-42 0 -95 -67t-92 -165q-35 -88 -46 -170t-11 -206q-2 -117 20.5 -236t65.5 -201q28 -55 94 -106q38 -32 72 -39h8q23 0 33 6q9 7 22 23q26 40 64 190q1 12 12.5 18.5t24.5 4.5q10 -1 16 -12.5t4 -22.5q-41 -167 -74 -211 q-24 -38 -57 -49q-34 -14 -45 -33z" />
<glyph unicode="&#xe8;" horiz-adv-x="546" d="M225 1466l-43 33q-36 28 -41 33q-25 17 -42.5 -6.5t5.5 -42.5q5 -3 43 -29q26 -23 46 -35q40 -32 96 -53q17 -8 30 3t10.5 27t-20.5 23q-59 25 -84 47zM223 725h-88q-22 0 -32 8t-11 31q-10 140 -10 213v51q-3 109 4 152q6 20 18 22l27 2q169 0 275 -16q12 -2 21.5 5 t10.5 19q2 12 -5 22t-19 11q-46 7 -142 13t-143 6q-53 0 -74 -13q-24 -13 -28 -61q-8 -51 -4 -162q2 -33 2 -51q0 -115 18 -332q20 -231 20 -328q0 -16 -6 -145v-86q3 -46 13 -63q22 -28 75 -31q54 -4 103 -4q22 0 104 4q41 2 70 2q12 0 20.5 8.5t8.5 20.5t-8.5 20t-20.5 8 q-29 0 -70 -2t-104 -2q-50 0 -96 4q-5 1 -12 1.5t-11.5 1t-7.5 1.5q0 2 -2 2v2q-2 6 -2 29v82q0 51 2 86t2 61q0 138 -19 332q-1 7 1 11t9.5 6t12 2h18.5h80q12 0 20.5 8t8.5 20t-8.5 20.5t-20.5 8.5z" />
<glyph unicode="&#xe9;" horiz-adv-x="552" d="M209 1466l-29 -24q-29 -21 -30 -21q-23 -19 -6 -42.5t42 -6.5q15 15 60 45q1 1 24 19q24 17 62 32q17 7 18 23.5t-12 27.5t-31 3q-30 -12 -69 -37q-7 -5 -17 -11.5t-12 -7.5zM90 1190l19 4q3 0 9 1t9 1q54 4 109 4h112q70 -3 82 0q11 0 21 10q8 8 8 21q-1 12 -11 20.5 t-22 8.5q-12 -3 -80 0q-88 0 -225 -5q-60 -10 -75 -22q-3 -3 -5 -6q-11 -19 -14 -64q-2 -20 -2 -84q0 -49 2 -82q2 -35 2 -59q0 -95 8 -371q3 -242 -2 -368q0 -17 -2 -35q-4 -36 -4 -47q-4 -71 8 -92q21 -48 166 -48q31 0 65 3q53 4 74 6q35 0 45 12q8 5 8 20 q-2 12 -11.5 20t-21.5 7q-16 0 -34 -2q-117 -6 -125 -6q-54 0 -84 6q-9 0 -17 4q-6 2 -10 2l-2 2q-4 27 -4 45v19q6 75 6 80q8 133 2 372v43q0 27 8.5 34t32.5 7q37 0 55 2q12 0 20.5 9.5t8.5 21.5q-2 12 -11.5 20t-21.5 7q-18 -2 -57 -2q-15 0 -22 2t-12 11.5t-5 29.5 q0 40 -2 101.5t-2 84.5v59q-2 33 -2 84q0 60 2 78q0 21 2 27z" />
<glyph unicode="&#xea;" horiz-adv-x="540" d="M180 1442l-76 -103q-11 -15 -27.5 -11.5t-22 17.5t4.5 31l74 101q31 43 60 43q17 0 29 -10.5t26 -32.5q50 -77 61 -88q17 -25 -6.5 -42.5t-42.5 5.5q-17 30 -35 53l-6 8q-8 11 -17.5 18.5t-15.5 8.5zM43 61l-2 31q0 58 4 144q0 39 2 53v28q0 103 2 181v209q0 106 -2 153 q0 9 -1 24.5t-1 24.5q0 2 -1 7t-1 8q-3 23 -6 59q-12 90 -12 143q0 47 8 69.5t33 33.5q14 5 43 12q85 12 309 2q12 0 20 -9.5t8 -21.5q-2 -12 -11 -19.5t-21 -6.5q-180 4 -189 4q-74 -3 -106 -8q-3 0 -8.5 -1t-8.5 -1q-12 -1 -15 -10t-3 -31v-11q0 -47 12 -141q8 -63 8 -98 q5 -107 5 -139q0 -41 2 -41h157q12 0 20.5 -8.5t8.5 -20.5t-8.5 -20.5t-20.5 -8.5h-118q-41 0 -41 -41q0 -42 -3 -116q-2 -76 -2 -177v-30q0 -45 -4 -111v-82q0 -20 2 -26l4 -2q13 -4 29 -7q25 -7 92 -10q70 -4 168 -4q12 0 20.5 -8.5t8.5 -20.5t-8.5 -20t-20.5 -8 q-193 0 -270 12q-66 12 -74 33t-8 28z" />
<glyph unicode="&#xeb;" horiz-adv-x="540" d="M317 1448q-8 8 -20 8t-20.5 -8.5t-8.5 -20.5t8.5 -20t20.5 -8t20.5 8t8.5 20t-9 21zM154 1440q-8 8 -21 8q-12 0 -20.5 -8.5t-8.5 -20.5t8.5 -20t20.5 -8t20.5 8t8.5 20q0 13 -8 21zM104 444v43q0 1 -1 17t-2 47t-1 65q0 28 8.5 36t30.5 10q10 2 37 5.5t45 6.5 q12 1 19.5 11t5.5 22q-1 12 -11 19t-22 5q-15 -2 -39 -5.5t-33 -4.5q-24 -3 -33.5 4t-9.5 35q0 37 -1.5 111.5t-1.5 132t3 100.5q4 36 4 47q2 7 3 14.5t2 11.5t2 7q0 6 2 8q6 2 43 2q44 2 134.5 -5t117.5 -18q29 -7 38 20t-18 38q-34 13 -172 22q-141 10 -176 -8 q-18 -11 -29 -55q-5 -23 -8 -82q-11 -158 2 -465q1 -40 2 -77t1.5 -55t0.5 -22v-43q-2 -23 -2 -90q-1 -17 -2 -50t-2 -48v-141q0 -4 -1 -12t-1 -11q0 -9 1 -24.5t1 -24.5v10q0 -6 2 -8l6 -14q19 -22 76 -25q159 -6 278 8q12 0 19.5 10t7.5 23q-1 12 -12 19.5t-23 5.5 q-120 -12 -266 -6q-31 16 -31 43v6q0 87 4 239q2 37 2 90z" />
<glyph unicode="&#xec;" horiz-adv-x="530" d="M188 1436l-30 24q-16 12 -31.5 4.5t-17 -22t11.5 -27.5l31 -24q20 -15 26 -19q2 -1 5 -2t5 -2l35 -20q17 -8 30.5 2.5t13.5 25.5t-15 25l-37 18q-3 2 -8 4.5t-6 3.5t-13 9zM344 68l-72 -5q-14 0 -22 0.5t-13.5 0.5t-7 3t-2.5 3.5t-0.5 6t0.5 7.5q0 109 6 334 q1 57 2 129.5t2 121.5t1 81q0 14 -2 59.5t-3 73.5q-6 110 11 258l4 37q102 -2 160 -2q12 0 20 8t8 20t-8 20.5t-20 8.5q-123 0 -193 4q-126 0 -197 -8q-12 0 -20 -9.5t-6 -21.5q0 -12 9.5 -20.5t21.5 -6.5q61 7 122 7q37 0 40 -5q1 -1 1 -26q0 -3 -4.5 -52t-6.5 -98t1 -118 q4 -126 4 -129q0 -38 -4 -332q-6 -225 -6 -334q1 -3 0.5 -7t-10.5 -11.5t-31 -8.5q-35 -2 -96 -2q-12 0 -20.5 -8t-8.5 -20t8.5 -20.5t20.5 -8.5q66 0 315 12q12 0 20.5 9.5t8.5 21.5q-2 12 -11.5 20t-21.5 7z" />
<glyph unicode="&#xed;" horiz-adv-x="434" d="M176 1403l82 76q20 20 1 42t-42 3l-82 -76q-20 -20 -1 -42t42 -3zM96 1284h-69q-12 0 -20.5 -8.5t-8.5 -20.5t8.5 -20t20.5 -8h49q43 -3 43 -41q0 -53 -4 -357q-6 -264 -6 -395q0 -121 6 -352q3 -43 -41 -43q-10 1 -31.5 2t-32.5 2q-12 1 -21 -7t-9 -20q-2 -12 6 -21 t20 -9q157 -14 309 8q12 1 19.5 11t5.5 22q-1 12 -11 19t-22 5q-57 -8 -90 -10q-40 -3 -43 41q-6 231 -6 352q0 43 4 395q4 304 4 355q0 41 41 41q62 3 96 8q12 1 19.5 11t5.5 22q-1 12 -11 19t-22 5q-65 -10 -135 -6h-74z" />
<glyph unicode="&#xee;" horiz-adv-x="559" d="M174 1483l-90 -101q-13 -15 -7 -30.5t20.5 -18.5t27.5 8l92 101l8 8l23 -27q44 -47 102 -90q15 -11 30 -3t16 23t-13 29q-55 39 -90 80l-23 27q-18 18 -26 22q-33 12 -70 -28zM303 1188h127q12 0 20.5 8.5t8.5 20.5t-8.5 20t-20.5 8q-362 0 -391 -2q-12 0 -20.5 -9.5 t-6.5 -21.5q0 -12 9.5 -20t21.5 -6q35 2 119 2q42 0 39 -43q-2 -16 -2 -53q-3 -100 8 -207q5 -87 2 -391q-1 -94 -2 -187.5t-1.5 -141.5t-0.5 -63q-1 -3 -3.5 -7t-13.5 -10.5t-26 -4.5h-103q-12 1 -21 -7t-9 -20q-2 -12 6 -21t20 -9q181 -9 381 0q12 0 20.5 9t8.5 21 q-2 12 -11.5 20t-21.5 5h-127q-50 -2 -47 10q4 8 4 14q0 15 0.5 63t1.5 141.5t2 187.5q3 304 -2 391q0 8 -4 98t-4 115q0 35 2 53q3 37 45 37z" />
<glyph unicode="&#xef;" horiz-adv-x="520" d="M297 1440q-8 8 -21 8q-12 0 -20 -8.5t-8 -20.5t8 -20t20 -8t20.5 8t8.5 20q0 13 -8 21zM96 1423q-9 9 -20 9q-12 0 -20.5 -8.5t-8.5 -20.5t8.5 -20.5t20.5 -8.5t20 8.5t8 20.5t-8 20zM143 78h-112q-12 0 -20.5 -8.5t-8.5 -20.5t8.5 -20.5t20.5 -8.5q239 0 321 7 q12 0 20.5 9t8.5 21q-2 12 -11.5 20t-21.5 7q-9 -1 -29 -2t-30 -2q-11 0 -19 0.5t-14 1.5t-8.5 2.5t-1.5 3.5v10q-9 95 -6 238q0 58 2 113v129q0 35 -4 309q-1 42 -2 98.5t-2 95.5t-1 68q0 38 41 41q45 0 123 4q12 0 20.5 9.5t8.5 21.5q-2 12 -11.5 19.5t-21.5 6.5 q-138 -6 -364 -6q-12 0 -20.5 -8t-8.5 -20t8.5 -20.5t20.5 -8.5h106q41 0 41 -41q0 -40 4 -262q4 -270 4 -307q0 -72 -2 -127t-2 -113q-3 -127 8 -244q-14 -16 -45 -16z" />
<glyph unicode="&#xf0;" horiz-adv-x="624" d="M412 688l8 -47q-227 37 -342 -90q-62 -68 -76 -173.5t18 -210t97 -177.5q54 -60 116 -80.5t114 -4.5t94 59t61 104q57 180 0 493q-27 140 -72 246t-141 233l-4 4q-25 36 6 60q3 2 21.5 16t29.5 21q16 11 13.5 28t-16 23.5t-30.5 -2.5q-30 -21 -61 -45q-26 -23 -58 2 q-82 75 -159 90q-12 2 -23 -4.5t-12 -18.5q-2 -13 4 -23t18 -11q60 -12 127 -70q30 -27 2 -59q-37 -44 -61 -82q-11 -16 -1.5 -31t25 -15.5t25.5 13.5q15 26 49 70q13 15 29.5 15t28.5 -17q99 -128 153 -267q3 -7 17 -49zM424 584q4 -1 6 -2t4 -3l2.5 -2.5t2 -4t2 -5.5 t1.5 -8t2 -10q22 -130 25 -238q5 -143 -25 -232.5t-94 -109.5q-101 -36 -189 58.5t-102 244.5q-18 155 66.5 245t261.5 71q7 -1 15.5 -1.5t13 -1t8.5 -1.5z" />
<glyph unicode="&#xf1;" horiz-adv-x="530" d="M53 1329q-19 -23 -42.5 -5.5t-6.5 42.5q37 49 70.5 66t62 11.5t74.5 -28.5q38 -20 65 -14q47 9 107 84q12 15 28.5 11.5t21.5 -18t-5 -30.5q-47 -60 -90 -85.5t-78 -23.5t-78 23q-42 28 -67.5 23.5t-61.5 -56.5zM356 537l-4 122q-7 144 -4 234q0 140 10 235q2 48 13 113 q2 12 11 19t21 6t19.5 -11t5.5 -22q-18 -133 -18 -232q-1 -19 -2 -55.5t-2 -52.5q-3 -88 4 -234q0 -2 4 -120q6 -122 8 -236q0 -98 2 -127q0 -4 2 -6v-10q0 -11 2 -17q2 -20 2 -53q0 -30 -3 -50t-16 -35.5t-36 -10.5q-15 4 -19 10l-4 4q0 4 -2 6q-1 1 -1.5 2.5l-1 3 t-1.5 3.5t-3.5 10.5t-4.5 15.5l-25 82q-38 132 -45 178q-5 26 -139 477q-26 102 -35 102q-8 1 -8 -59q0 -229 -2 -411q-4 -368 -4 -414q0 -12 -8.5 -20.5t-20.5 -8.5t-20 8.5t-8 20.5q0 46 4 414q2 182 2 411v273q0 7 -2 43.5t-2.5 58t2.5 35.5l6 12q17 13 35 4q9 -3 12 -12 q4 -4 4 -14q0 -13 2 -23v-16q9 -71 18 -107q16 -64 78 -274q141 -470 144 -487q7 -33 18 -80q2 -7 7.5 -24.5t10.5 -32t5 -13.5q-7 200 -7 250q0 2 -4 115z" />
<glyph unicode="&#xf2;" horiz-adv-x="563" d="M215 1511q-13 12 -28.5 5.5t-18.5 -21.5t10 -29q73 -65 127 -94q17 -8 30.5 2.5t13.5 25.5t-15 25q-43 20 -119 86zM449 971q0 9 -7.5 62.5t-13.5 68.5q-40 102 -103.5 137.5t-134.5 3.5q-58 -25 -105 -89.5t-71 -145.5q-45 -155 -30 -385q5 -94 10 -154t15 -129.5 t25.5 -114t39 -88t57.5 -72t80 -47.5q49 -22 90 -17t72 46q38 49 60.5 127.5t29 183.5t6.5 178.5t-3 183.5q0 7 -0.5 10.5t-0.5 9v10.5q-2 48 -6 101.5t-7 85.5t-3 34zM408 637v-152q-9 -309 -80 -401q-18 -22 -37.5 -24t-54.5 12q-113 46 -160 235q-15 66 -25.5 181 t-7.5 262.5t29 240.5q18 66 59 123q39 55 82.5 75t79.5 1q48 -28 82 -109q9 -27 12 -75q1 -11 1.5 -25.5t1 -24.5t1.5 -16q14 -138 15 -160q2 -61 2 -143z" />
<glyph unicode="&#xf3;" horiz-adv-x="616" d="M395 1468q16 11 13.5 28.5t-16 24t-30.5 -2.5q-16 -9 -79 -56q-30 -22 -78 -51q-16 -8 -15.5 -25.5t13.5 -25t30 1.5q24 12 82 53q60 42 80 53zM520 862v6q0 77 -12.5 142.5t-39.5 121.5t-76 87.5t-116 31.5q-40 0 -58 -4.5t-46 -23.5q-98 -70 -149 -269t-39 -376 q2 -60 26 -171.5t58 -201.5q26 -64 56 -109.5t65.5 -72.5t78.5 -26t88 34q89 67 136 399q28 233 28 432zM463 868v-6q0 -190 -31 -426q-41 -307 -113 -356q-107 -82 -196 147q-32 82 -54.5 186t-27.5 169q-8 167 37.5 350.5t126.5 241.5q21 14 31.5 17t39.5 3 q94 0 140.5 -91t46.5 -235z" />
<glyph unicode="&#xf4;" horiz-adv-x="583" d="M111 1442l-35 -43q-19 -22 4 -41q6 -5 12 -7t12 -0.5t10.5 4t10.5 9.5t9.5 12t10.5 14.5t11 14.5q12 16 16 20q6 9 13 15t11.5 7.5t6.5 0.5l8 -4q15 -12 68 -62q23 -19 41.5 3t-1.5 42q-54 48 -73 64q-36 25 -60.5 19.5t-54.5 -42.5zM469 879l-2 10q0 1 -8 47.5t-18.5 98 t-18.5 67.5q-30 58 -75 96t-95 45q-56 11 -105 -18t-81 -92q-42 -82 -64 -268t-18.5 -374.5t28.5 -293.5q18 -68 64 -123q45 -58 102.5 -80t122.5 2q133 52 172 348q35 265 -4 535zM416 836q31 -267 -2 -496q-10 -69 -27 -126t-42.5 -101.5t-63 -62t-82.5 0.5q-44 18 -80 62 t-49 100q-25 97 -28 279.5t18 359.5t59 252q48 92 125 81.5t125 -108.5q7 -14 20 -53q3 -17 9.5 -64.5t11.5 -85t6 -38.5z" />
<glyph unicode="&#xf5;" horiz-adv-x="653" d="M55 1323q-8 -18 3 -31t27.5 -12t23.5 18q12 30 23.5 47t22 25t25 6.5t28 -7.5t36.5 -19q35 -20 61.5 -24.5t50 6.5t41.5 46t31 95q2 13 -4 23t-18 11q-13 2 -23.5 -4t-11.5 -18q-22 -94 -45 -103q-12 -3 -54 19q-37 21 -64.5 29t-55.5 3t-52 -32t-45 -78zM541 905 q-21 89 -42 139.5t-57 100.5q-39 58 -84.5 86t-99 21.5t-106.5 -54.5q-110 -104 -140 -401q-25 -252 10.5 -405t135.5 -288q63 -82 123.5 -104.5t111.5 18.5q77 62 121 265q35 156 42.5 356t-15.5 266zM498 782q3 -60 0 -135q-6 -201 -44.5 -368.5t-97.5 -212.5 q-29 -23 -55 -11q-40 14 -94 86q-85 109 -121 242q-20 78 -23.5 193.5t9 228t44.5 210t77 138.5q107 101 202 -41q36 -53 68.5 -169.5t34.5 -160.5z" />
<glyph unicode="&#xf6;" horiz-adv-x="669" d="M420 1470q-9 9 -21 9t-20 -8.5t-8 -20.5t8 -20.5t20 -8.5t20.5 8.5t8.5 20.5t-8 20zM231 1462q-8 8 -20 8t-20.5 -8t-8.5 -20t8.5 -20.5t20.5 -8.5t20.5 8.5t8.5 20.5q0 11 -9 20zM569 913l-6 39q-6 112 -69 209q-53 83 -129.5 103.5t-163.5 -35.5q-89 -64 -143 -238 t-60 -389q-5 -221 49 -387t160 -215q130 -59 221 63q62 86 104 281q28 140 38 315.5t-1 253.5zM510 913l6 -59q2 -40 -2 -131q-6 -215 -43 -383.5t-92 -241.5q-61 -85 -148 -45q-85 41 -132 192t-42 357q5 197 54 360.5t122 217.5q63 42 115.5 27t97.5 -79 q35 -56 47.5 -105.5t16.5 -109.5z" />
<glyph unicode="&#xf7;" horiz-adv-x="716" d="M279 905q-8 8 -21 8q-12 0 -20.5 -8t-8.5 -20t8.5 -20.5t20.5 -8.5t20.5 8.5t8.5 20.5t-8 20zM37 670q-12 0 -20.5 -8.5t-8.5 -20.5t8.5 -20.5t20.5 -8.5q91 0 278 9q164 8 277 8q12 0 20.5 8t8.5 20t-8.5 20.5t-20.5 8.5q-113 0 -277 -8q-167 -8 -278 -8zM301 489 q-9 9 -20 9q-12 0 -20.5 -8.5t-8.5 -20.5t8.5 -20.5t20.5 -8.5t20 8.5t8 20.5t-8 20z" />
<glyph unicode="&#xf8;" horiz-adv-x="606" d="M500 963l-11 77q-1 4 -2 12.5t-2 12.5q-34 150 -163 184q-72 19 -131.5 -17.5t-99.5 -115.5t-65 -185.5t-34 -234.5q-9 -166 9 -314.5t66 -256.5t119 -135q78 -31 154 33q126 102 156 337q10 98 10 193v98q-2 39 -2 80v51q2 38 2 107zM428 1053l2 -17q2 -39 1.5 -41.5 t-13.5 -15.5q-46 -55 -107 -174q-54 -106 -94 -170q-58 -82 -115 -203q-10 -20 -19 -28.5t-17 -1t-11 35.5q-16 163 4 341t74 294q34 70 81 100.5t89.5 21.5t77 -47t47.5 -95zM446 883v-330q0 -113 -10 -184q-27 -214 -133 -301q-51 -39 -96 -25q-84 35 -127 215 q-1 4 4.5 15t16 28t12.5 21q56 135 153 280q43 67 99 176q4 7 15 29.5t17 32.5q21 40 44 58q5 4 5 1v-16z" />
<glyph unicode="&#xf9;" horiz-adv-x="532" d="M246 1446l-68 31q-17 8 -29.5 -2.5t-12 -27t17.5 -24.5q22 -8 67 -30l66 -33q17 -8 29.5 2.5t12 26.5t-17.5 24zM115 289l-31 481q-12 342 25 455q4 10 -2 21t-17 16q-12 4 -23 -2.5t-16 -18.5q-24 -77 -29 -191.5t1.5 -244t28.5 -448.5q1 -16 1.5 -24.5t1.5 -22.5t2 -25 q3 -59 14.5 -108.5t34 -93.5t62 -68t92.5 -21q77 4 106 79q18 49 32 200q1 5 1 8q31 305 31 725q0 18 6 104q2 48 -2 109q0 11 -10 19.5t-21 8.5q-12 -1 -20 -11.5t-6 -21.5q3 -40 0 -102q-1 -23 -2 -48t-1.5 -38.5t-0.5 -19.5q0 -416 -31 -721q-15 -139 -30 -186t-56 -48 q-65 -1 -99.5 65t-41.5 173z" />
<glyph unicode="&#xfa;" horiz-adv-x="530" d="M162 1360q-20 -20 0.5 -40.5t40.5 -0.5q65 65 119 108q15 12 11.5 28.5t-18 22t-30.5 -4.5q-65 -55 -123 -113zM98 1219q0 12 -9 20t-21 8q-12 -2 -20 -11.5t-7 -21.5q6 -138 6 -438q0 -286 10 -463q2 -56 4.5 -89t8.5 -75t16 -67.5t25.5 -50.5t39.5 -39t56 -21 q126 -25 178 103q25 64 31 190q34 618 2 938q0 12 -10 20.5t-21 8.5q-12 -1 -20.5 -11.5t-6.5 -21.5q32 -336 -2 -930q-10 -128 -28 -174q-28 -80 -111 -65q-57 11 -76.5 74.5t-27.5 213.5q-9 156 -9 461q-3 333 -8 441z" />
<glyph unicode="&#xfb;" horiz-adv-x="493" d="M139 1374l-20 -28q-11 -16 -28 -14t-23.5 15.5t2.5 30.5l20 31l21 29q6 8 14 20q32 40 60.5 46.5t66.5 -21.5q31 -24 74 -78q12 -15 5 -30.5t-22 -17.5t-28 11q-29 33 -62 66q-29 13 -47 -11q-2 -4 -14 -22zM377 1196q27 -537 18 -997q-3 -121 -55 -191 q-33 -49 -83.5 -54t-113.5 40q-56 42 -82 217q-24 178 -18 612q0 314 -6 377q-2 12 5 23t19 12q13 0 23 -7.5t10 -19.5q10 -82 6 -387q-5 -408 21 -602q7 -64 26 -121q13 -43 43 -67t60 -19q24 3 43 31q42 56 45 156q9 428 -19 993q-1 12 7 21.5t20 11.5q12 0 21.5 -8.5 t9.5 -20.5z" />
<glyph unicode="&#xfc;" horiz-adv-x="512" d="M319 1423q-9 9 -20 9q-12 0 -20.5 -8.5t-8.5 -20.5t8.5 -20.5t20.5 -8.5t20.5 8.5t8.5 20.5q0 11 -9 20zM203 1417q-8 8 -21 8q-12 0 -20 -8t-8 -20t8 -20.5t20 -8.5t20.5 8.5t8.5 20.5t-8 20zM338 659l-14 -200q-15 -274 -27 -332q-9 -45 -23 -64q-12 -18 -28 -18 q-26 1 -54 37.5t-48.5 88t-32.5 105.5q-38 172 -23 465q3 45 12 152q15 246 15 324q0 12 -8.5 20t-20.5 8t-20.5 -8t-8.5 -20q0 -60 -16 -322q-4 -39 -10 -152q-18 -297 22 -479q10 -47 26.5 -91.5t40 -87.5t56.5 -69.5t70 -27.5q83 -3 108 127q13 46 28 286q2 35 3 54 q9 139 12 200l9 172q10 188 10 383q0 12 -8.5 20.5t-20.5 8.5t-20.5 -8.5t-8.5 -20.5q0 -121 -2 -180q-8 -234 -18 -371z" />
<glyph unicode="&#xfd;" horiz-adv-x="616" d="M293 1464l-90 -90q-20 -20 0.5 -40.5t40.5 -0.5q42 44 90 86q20 20 1 42t-42 3zM152 164l-17 -78q-4 -21 -14 -88q-2 -12 5 -22t19 -11q12 -2 22 5.5t11 19.5q10 68 41 194q39 154 115 371q13 37 33.5 94.5t26.5 75t18 60t21.5 85.5t23.5 115q36 182 61 248q8 17 -3 29.5 t-27 10.5t-23 -20q-32 -79 -68 -256q-34 -178 -59 -249q-3 -10 -25 12l-18 20q-76 104 -168 299q-44 90 -86 168q-10 15 -25.5 16t-25.5 -13t-2 -31q25 -44 88 -172q63 -130 111 -211.5t102 -141.5q21 -26 12 -55l-16 -47q-30 -85 -31 -88q-5 -12 -27 -79t-28 -89l-23 -80z " />
<glyph unicode="&#xfe;" horiz-adv-x="700" d="M117 1176q0 11 -10 18.5t-23 7.5q-12 -1 -19.5 -12t-5.5 -23q9 -170 9 -216.5t-9 -221.5q-9 -173 -9 -251.5t11 -332.5q15 -273 15 -356q0 -12 8 -20.5t20 -8.5t20.5 8.5t8.5 20.5q0 25 -6 146t-6 215q0 17 13 -1q2 -4 8 -12q14 -21 22 -31q40 -49 92 -73 q82 -41 163 -16.5t134 104.5q95 144 18 467q-21 89 -53.5 152t-71 95t-77.5 43.5t-80 4.5q-72 -12 -133 -92q-20 -32 -27 -21q-7 13 -6 76q4 253 -6 330zM115 506v4q0 1 1 4.5t1 5.5v6q6 59 32 126.5t62 113.5q89 103 199 22q59 -48 98 -195.5t39 -277.5 q-1 -94 -42.5 -158.5t-103.5 -84.5q-63 -20 -126 16t-109 125q-31 58 -41 122t-10 171z" />
<glyph unicode="&#xff;" horiz-adv-x="571" d="M319 1423q-9 9 -20 9q-12 0 -20.5 -8.5t-8.5 -20.5t8.5 -20.5t20.5 -8.5t20.5 8.5t8.5 20.5q0 11 -9 20zM195 1417q-8 8 -21 8q-12 0 -20.5 -8t-8.5 -20t8.5 -20.5t20.5 -8.5t20.5 8.5t8.5 20.5t-8 20zM254 729l-188 -725q-2 -11 4.5 -22.5t17.5 -12.5q11 -2 22.5 5 t12.5 18q128 508 227 862q11 37 68 188q44 114 57 199q2 12 -5 22t-19 11q-12 2 -22 -5.5t-11 -19.5q-12 -71 -56 -186q-55 -137 -69 -193q-16 -63 -51 2q-20 38 -86 164t-101 197q-8 17 -24 17.5t-26.5 -12.5t-2.5 -30q124 -258 250 -475z" />
<glyph unicode="&#x2000;" horiz-adv-x="794" />
<glyph unicode="&#x2001;" horiz-adv-x="1589" />
<glyph unicode="&#x2002;" horiz-adv-x="794" />
<glyph unicode="&#x2003;" horiz-adv-x="1589" />
<glyph unicode="&#x2004;" horiz-adv-x="529" />
<glyph unicode="&#x2005;" horiz-adv-x="397" />
<glyph unicode="&#x2006;" horiz-adv-x="264" />
<glyph unicode="&#x2007;" horiz-adv-x="264" />
<glyph unicode="&#x2008;" horiz-adv-x="198" />
<glyph unicode="&#x2009;" horiz-adv-x="317" />
<glyph unicode="&#x200a;" horiz-adv-x="88" />
<glyph unicode="&#x2010;" horiz-adv-x="667" d="M31 571q-12 -2 -19 -11t-6 -21t11 -19.5t22 -5.5q112 16 344 10q144 -4 160 -4q12 0 20 8.5t8 20.5t-8 20.5t-20 8.5q-8 0 -156 4q-232 9 -356 -11z" />
<glyph unicode="&#x2011;" horiz-adv-x="667" d="M31 571q-12 -2 -19 -11t-6 -21t11 -19.5t22 -5.5q112 16 344 10q144 -4 160 -4q12 0 20 8.5t8 20.5t-8 20.5t-20 8.5q-8 0 -156 4q-232 9 -356 -11z" />
<glyph unicode="&#x2012;" horiz-adv-x="667" d="M31 571q-12 -2 -19 -11t-6 -21t11 -19.5t22 -5.5q112 16 344 10q144 -4 160 -4q12 0 20 8.5t8 20.5t-8 20.5t-20 8.5q-8 0 -156 4q-232 9 -356 -11z" />
<glyph unicode="&#x2013;" horiz-adv-x="684" d="M-25 494q-12 0 -20 -9.5t-6 -21.5q0 -12 9.5 -20.5t21.5 -6.5q8 0 182 17q264 22 399 22q12 0 20.5 8.5t8.5 20.5t-8.5 20t-20.5 8q-169 0 -403 -22q-154 -14 -183 -16z" />
<glyph unicode="&#x2014;" horiz-adv-x="1419" d="M-8 500q-26 -10 -19 -37q6 -25 35 -21q127 33 644 49t638 -14q11 -2 22.5 5t12.5 18q2 11 -4.5 22.5t-17.5 12.5q-128 31 -651.5 16.5t-659.5 -51.5z" />
<glyph unicode="&#x2018;" horiz-adv-x="268" d="M162 1233q15 12 11.5 28.5t-18 21.5t-30.5 -5q-91 -76 -135 -272q-2 -13 4 -23.5t18 -11.5q13 -2 23.5 4t11.5 18q41 178 115 240z" />
<glyph unicode="&#x2019;" horiz-adv-x="229" d="M55 1288q-20 20 -40.5 -0.5t-0.5 -40.5q83 -83 56 -262q-2 -12 5 -22t19 -11q12 -2 22 5.5t11 19.5q34 208 -72 311z" />
<glyph unicode="&#x201a;" horiz-adv-x="278" d="M33 150q-17 8 -29.5 -3t-11 -27.5t19.5 -23.5q37 -18 62 -41q23 -20 38.5 -46.5t14 -58.5t-32.5 -52q-16 -11 -13.5 -28.5t16 -24t30.5 2.5q46 30 57 81t-14 91q-20 43 -57 78t-80 52z" />
<glyph unicode="&#x201c;" horiz-adv-x="491" d="M188 1157q12 15 5 30.5t-22 17.5t-28 -11q-48 -61 -69 -122t-27 -150q-2 -12 6.5 -21.5t20.5 -9.5q12 -1 21 7t9 20q6 80 24.5 132.5t59.5 106.5zM248 1032l-35 -90q-7 -29 19.5 -38t37.5 18q14 45 31 88q35 86 88 139q19 23 -3 42t-42 -1q-62 -70 -96 -158z" />
<glyph unicode="&#x201d;" horiz-adv-x="450" d="M256 1190q-12 15 -28.5 11.5t-21.5 -18t5 -30.5q40 -48 57.5 -102t28.5 -150q0 -12 10.5 -20.5t22.5 -6.5q10 0 18 10t6 21q-8 100 -28.5 164t-69.5 121zM104 1126q-13 15 -29.5 10.5t-21 -18.5t5.5 -28q14 -16 31 -46q14 -29 31 -98q1 -11 12.5 -17.5t24.5 -4.5 q10 1 16 12t4 22q-4 18 -9 40t-5 24q-21 60 -60 104z" />
<glyph unicode="&#x201e;" horiz-adv-x="399" d="M272 180q-7 18 -23 20t-27 -10.5t-3 -29.5q47 -126 10 -226q-7 -29 20 -38t38 18q40 122 -15 266zM82 158q-11 16 -28 13.5t-23.5 -16t2.5 -30.5q58 -94 24 -219q-4 -29 21 -35q28 -7 37 18q41 151 -33 269z" />
<glyph unicode="&#x2022;" horiz-adv-x="378" d="M248 606l-19 -8q11 6 33 23q30 35 19 79q-13 45 -53 58t-78 -8q-1 -1 -6.5 -4.5t-8.5 -4.5q-18 -8 -35 -18q-34 -29 -22 -76q4 -9 12 -24.5t10 -18.5l-6 14q19 -36 51 -44.5t60 8.5q20 12 43 24z" />
<glyph unicode="&#x2026;" horiz-adv-x="722" d="M311 100q-23 -2 -51 -12q-19 -9 -22.5 -32.5t10.5 -57.5q11 -27 36 -30t56 22q1 1 8 8.5t13.5 15.5t11.5 21t4 24q-3 21 -23.5 32.5t-42.5 8.5zM80 68q-19 22 -33 22q-7 0 -10.5 -1t-14 -7t-24.5 -12q-10 -5 -13 -13.5t0 -18.5t6.5 -17.5t9 -15.5t5.5 -9q1 -1 3 -4t3 -4 q12 -16 25 -15t22 13q40 53 21 82zM555 -14h12q14 2 31 2q12 0 20.5 8t8.5 20q0 9 -2 13q-1 2 -4 14.5t-9 22.5q-8 11 -20 13t-25 -9q-3 -2 -11 -9.5t-13 -13.5l-8 -8q-4 -4 -5 -6q-8 -15 -2 -27q10 -20 21 -20h6z" />
<glyph unicode="&#x202f;" horiz-adv-x="317" />
<glyph unicode="&#x2039;" horiz-adv-x="366" d="M-20 408l24 -15q84 -50 176 -82q29 -7 38.5 20t-17.5 38q-67 22 -166 73q-10 7 -2 15q1 2 4 5t4 5q35 35 78 80q115 115 145 151q12 16 4.5 31.5t-22 17t-27.5 -11.5q-12 -15 -141 -147q-45 -42 -80 -82q-15 -15 -27 -31q-4 -6 -8 -14q-16 -30 17 -53z" />
<glyph unicode="&#x203a;" horiz-adv-x="413" d="M82 741q-12 16 -29 13.5t-23 -16t3 -29.5q51 -69 147 -107q24 -8 31 -10q1 0 3 -1t3 -1q18 -6 27 -15.5t4 -15.5q-4 -8 -8 -12q-18 -29 -72 -90q-74 -85 -150 -152q-15 -12 -11.5 -28.5t18 -21.5t30.5 5q52 41 156 158q54 61 78 96q15 20 22 39q25 56 -51 84 q-23 5 -59 20q-76 29 -119 84z" />
<glyph unicode="&#x205f;" horiz-adv-x="397" />
<glyph unicode="&#x20ac;" horiz-adv-x="626" d="M55 647l2 15q0 2 0.5 8t0.5 8t1 6t2 5t3 4t5 4t7 2.5t9.5 2t12.5 0.5q85 3 320 3q12 0 20 8t8 20t-8 20.5t-20 8.5h-309q-32 -1 -38 5.5t-1 39.5q16 112 40 166.5t70 103.5q43 48 90.5 67.5t83.5 2.5q44 -18 70.5 -65.5t34.5 -108.5q1 -3 8 -41q2 -22 8 -53 q1 -12 12 -18.5t23 -4.5q12 1 18 11.5t4 23.5q-14 54 -14 92q-33 172 -139 219q-59 24 -123.5 -0.5t-118.5 -83.5q-54 -62 -83 -127t-46 -196q0 -2 -0.5 -9t-0.5 -8.5t-1.5 -6.5t-3 -6t-4.5 -4.5t-7 -4.5t-10 -2t-14 -2q-53 -6 -104 -15q-10 -1 -17.5 -11t-5.5 -21 q1 -12 12 -19.5t23 -5.5q44 7 80 12q44 3 41 -41q-2 -14 -2 -45q0 -40 -39 -43q-61 -9 -117 -24q-25 -9 -18 -37q6 -25 35 -21q52 14 96 21q24 4 33.5 -2t9.5 -37q0 -100 12.5 -156t44.5 -119q36 -70 85.5 -122t103.5 -68q67 -18 115 20.5t69 106.5q22 69 22 90 q2 11 -4 22.5t-16 12.5q-13 2 -24.5 -5t-12.5 -18q0 -1 -1 -5.5t-3.5 -15.5t-5.5 -22l-10 -43q-14 -43 -37 -63q-73 -64 -160 37q-39 41 -68.5 97.5t-37.5 100.5q-13 85 -13 160q0 30 7.5 36.5t31.5 8.5q63 4 238 4q63 -2 123 -2q12 0 20 8.5t8 20.5t-8 20.5t-20 8.5 q-58 0 -119 2q-117 2 -238 -5q-18 0 -25 1.5t-12.5 9t-5.5 24.5q0 6 1 18.5t1 18.5z" />
<glyph unicode="&#x2122;" horiz-adv-x="724" d="M41 1214h37q18 -307 12 -399q-2 -12 6.5 -21.5t20.5 -9.5q12 -1 21 7t9 20q12 144 -6 401q0 4 35 7h10q35 0 45 12q9 6 9 20q-2 12 -11.5 20t-21.5 7q-29 -2 -123 -2q-21 -1 -47.5 -1.5t-42 -1t-25.5 -1.5q-12 0 -20 -9.5t-6 -21.5q0 -12 9 -20t21 -7h68zM311 1128 l-32 -157q-16 -81 -13 -146q0 -12 9.5 -20t21.5 -6q12 0 20 9t7 21q0 79 12 129l16 76q3 15 8 43q8 42 11 43q1 0 2 -2q3 -13 5.5 -46t4 -61t2.5 -30q6 -13 20 -18.5t27 0.5q22 10 37 57q5 13 23 80q2 8 7 10t10 -2t7 -14q2 -8 5 -25.5t5 -24.5l27 -122q2 -10 5 -24.5t5 -24 t4 -15.5q8 -33 25 -41q16 -6 31 7t6 32q-7 18 -19 78l-24 123q-14 71 -31 117q-10 30 -16 40q-12 29 -39 29q-18 0 -27 -12q-12 -23 -18 -41q-5 -19 -9 -29t-6.5 -14t-6 0.5t-5.5 9.5t-6.5 17l-7.5 20l-11 23q-11 22 -34 22q-21 0 -29 -8q-4 -4 -14 -27q0 -2 -4 -16t-5 -23 q-3 -13 -6 -37z" />
<glyph unicode="&#x25fc;" horiz-adv-x="1249" d="M0 1249h1249v-1249h-1249v1249z" />
</font>
</defs>
</svg>
